<svg width="57" height="46" viewBox="0 0 57 46" fill="none" xmlns="http://www.w3.org/2000/svg">
<g clip-path="url(#clip0_96_820)">
<g clip-path="url(#clip1_96_820)">
<path fill-rule="evenodd" clip-rule="evenodd" d="M28.4998 36.05L55 19.4069V23.9024L28.4998 40.5469L2 23.9024V19.4069L28.4998 36.05ZM28.4926 15.2408C34.4614 15.2408 39.7192 18.3007 42.7983 22.9456H42.7939L38.8933 25.3974C33.0258 17.5435 22.2916 16.1828 14.8556 22.3779C14.6374 22.5591 14.4267 22.7468 14.2188 22.9363L14.1945 22.9335C17.2736 18.296 22.5282 15.2408 28.4926 15.2408ZM28.4926 22.8812C31.7421 22.8812 34.6141 24.5098 36.3444 26.998L32.5797 29.3624C30.8252 26.934 28.2693 25.4025 25.4228 25.4025C23.6912 25.4025 22.0694 25.9704 20.667 26.9588C22.4017 24.4926 25.2594 22.8812 28.4926 22.8812ZM10.5813 16.1697C9.62804 16.9278 8.56513 18.0149 7.74507 18.8826C12.2086 12.0504 19.9249 7.60001 28.4911 7.60001C37.1812 7.60001 44.8244 12.0942 49.2497 18.899L45.2103 21.4258L45.1551 21.3421C36.9323 9.81409 21.4915 7.4883 10.5813 16.1697Z" fill="black"/>
</g>
</g>
<defs>
<clipPath id="clip0_96_820">
<rect width="57" height="46" fill="white"/>
</clipPath>
<clipPath id="clip1_96_820">
<rect width="53" height="53" fill="white" transform="translate(2 -3)"/>
</clipPath>
</defs>
</svg>
