<svg width="60" height="46" viewBox="0 0 60 46" fill="none" xmlns="http://www.w3.org/2000/svg">
<path d="M18.5365 11.6903C18.5365 11.6903 16.5668 8.55582 12.5663 5.68752C8.92036 3.07291 3.62536 2.24781 1.69953 6.67503C-0.035442 10.6589 3.25667 13.1887 4.74387 14.6036C5.34077 15.1709 7.93403 17.8044 9.17999 21.1872C10.4698 24.6892 9.90432 30.2622 12.2753 34.1316C13.4691 36.0818 16.156 38.1623 18.9585 38.9382C23.4604 40.183 25.0081 38.9382 25.3833 39.1469C25.7585 39.3555 27.5877 42.7905 35.6076 42.7905C43.906 42.7905 46.935 34.7884 47.9486 29.9806C48.3635 28.0109 54.435 20.0818 55.9613 18.5614C60.1823 14.3635 59.1503 10.6115 56.3365 9.53326C51.9502 7.85045 44.0845 14.9676 44.0845 14.9676C44.0845 14.9676 44.3719 12.3174 41.4698 11.3619C37.6241 10.0958 35.7848 11.647 35.7848 11.647C35.7848 11.647 36.0296 9.78339 33.5917 8.78284C30.4774 7.50488 28.8858 9.03298 28.8858 9.03298C28.8858 9.03298 29.0014 7.57482 27.0483 7.32883C23.6975 6.9068 21.2121 8.56352 19.5311 10.1894C18.4565 11.2267 18.5365 11.6903 18.5365 11.6903Z" fill="#4EACB6"/>
<path d="M3.68517 10.3145C6.48709 12.9066 8.12485 13.7524 11.0791 19.9982C13.2242 24.5339 12.954 27.4668 13.9634 31.3878C15.7926 38.4931 19.3206 32.9562 19.3206 32.9562C19.3206 32.9562 23.4242 27.4342 21.6324 20.2258C20.5061 15.7002 16.8904 16.2301 16.8904 16.2301C15.3172 12.5248 13.8229 9.50954 11.2907 7.32705C4.9418 1.86193 1.47186 8.26714 3.68517 10.3145Z" fill="white"/>
<path d="M20.3812 13.1911C20.3812 13.1911 22.476 18.2561 22.5578 22.9898C22.7 31.1987 20.4168 33.2123 19.8584 35.5382C19.584 36.6805 21.2099 38.9856 23.7889 38.141C25.8938 37.4522 26.0414 28.4442 26.7438 28.4099C27.7052 28.363 26.5327 36.6876 26.6501 38.1902C26.7687 39.5535 28.1065 39.7224 28.7917 39.02C29.7952 38.4575 31.267 29.9593 31.3867 28.2646C31.5859 25.4473 29.8343 24.6927 29.8343 24.6927C29.8343 24.6927 33.2936 23.2933 34.3884 16.8999C35.076 12.8823 34.2942 11.3186 33.2936 10.6624C30.5765 8.87886 27.9162 10.3809 27.9162 10.3809C27.9162 10.3809 27.6661 8.74965 26.6341 8.59494C25.282 8.39103 22.9893 9.17642 21.4126 10.8652C19.8359 12.5539 20.3812 13.1911 20.3812 13.1911Z" fill="white"/>
<path d="M35.7948 13.2338C35.5109 13.9415 30.0262 38.1558 30.1673 39.4225C30.3084 40.6892 33.3717 41.9713 36.045 40.9381C38.7183 39.905 38.8718 36.6259 38.3994 35.278C37.451 32.5757 34.6372 32.9823 34.6372 32.9823L35.096 30.8537C35.9401 31.5099 36.764 31.7944 37.5772 31.3872C38.6904 30.8306 39.8812 26.6933 38.8504 25.0182C38.333 24.1771 36.8511 24.2067 36.8511 24.2067L37.8114 19.9893C37.8114 19.9893 41.7828 19.6159 42.6754 16.7547C43.4537 14.2622 42.0015 13.066 40.7348 12.5972C38.4901 11.7655 36.0764 12.526 35.7948 13.2338Z" fill="white"/>
<path d="M40.039 20.6953C40.055 20.3005 43.455 17.7031 43.9085 18.0688C44.6601 18.6746 42.5487 24.2162 43.5801 24.5191C44.6115 24.822 45.9683 16.8134 46.6452 15.5556C47.0352 14.8294 53.4292 10.8539 54.6953 10.8652C56.8428 10.8835 57.6703 13.884 55.2578 16.3332C52.2093 19.4286 46.299 27.941 43.2991 33.8264C39.7344 40.8143 39.1718 36.6716 39.1718 35.0925C39.1718 33.5134 40.0011 21.6608 40.039 20.6953Z" fill="white"/>
<path d="M16.0974 20.7415L17.6154 28.8206C17.6154 28.8206 19.9823 27.487 19.4529 23.6495C18.9586 20.0913 16.0974 20.7415 16.0974 20.7415Z" fill="#4EACB6"/>
<path d="M27.3701 14.0043L27.0459 22.1635C27.0459 22.1635 31.6367 20.345 31.6367 15.9112C31.6367 12.6754 27.3701 14.0043 27.3701 14.0043Z" fill="#4EACB6"/>
</svg>
