<svg width="46" height="46" viewBox="0 0 46 46" fill="none" xmlns="http://www.w3.org/2000/svg">
<path d="M6.73499 3.02775V7.55502H8.87472V25.7261H6.73499V30.254H16.9989V37.0443C16.9989 38.4397 16.999 39.3391 18.0533 40.4243L19.8206 42.223C20.8749 43.3083 21.7432 43.3083 23.0455 43.3083H31.6352C32.9376 43.3083 33.8053 43.3083 34.8595 42.223L36.6273 40.4243C37.6816 39.339 37.6818 38.4396 37.6818 37.0443V24.8582L35.4797 23.8347H39.5731V19.3384H31.3868V23.8657H33.2473V37.0444C33.2473 37.3855 33.2164 37.5095 33.0614 37.6646L32.162 38.5948C32.007 38.7499 31.8828 38.7814 31.5727 38.7814H23.1387C22.7976 38.7814 22.6734 38.7499 22.5494 38.5948L21.65 37.6646C21.495 37.5095 21.4641 37.3855 21.4641 37.0444V30.2225H23.4796C24.844 30.2225 25.743 30.2225 26.7973 29.1372L28.5651 27.339C29.6194 26.2537 29.6196 25.3541 29.6196 24.0208V19.1217C29.6196 17.7573 29.6194 16.8887 28.5651 15.8035L27.945 15.1833L28.5651 14.5631C29.6194 13.4778 29.6196 12.5788 29.6196 11.2455V9.22993C29.6196 7.86554 29.6194 6.99755 28.5651 5.9123L26.7976 4.11318C25.7123 3.02787 24.8134 3.02787 23.449 3.02787H6.7353L6.73499 3.02775ZM11.0762 7.55502H23.4487C23.7898 7.55502 23.914 7.58591 24.038 7.74095L24.9367 8.67122C25.0918 8.82626 25.1233 8.95029 25.1233 9.29139V11.2143C25.1233 11.5554 25.0918 11.6794 24.9367 11.8345L24.038 12.7647C23.8829 12.9198 23.7588 12.9507 23.4487 12.9507H13.3085V8.57844L11.0762 7.55502ZM13.3085 17.4468H23.4487C23.7898 17.4468 23.914 17.4777 24.038 17.6327L24.9367 18.563C25.0918 18.718 25.1233 18.8421 25.1233 19.1832V23.9895C25.1233 24.3306 25.0918 24.4547 24.9367 24.6097L24.038 25.54C23.8829 25.695 23.7897 25.7259 23.4796 25.7259H13.3084L13.3085 17.4468ZM15.1382 19.3382V23.8345H16.9987V25.0131H21.4333V23.8345H23.3247V19.3382H15.1382Z" fill="black"/>
</svg>
