<svg width="46" height="46" viewBox="0 0 46 46" fill="none" xmlns="http://www.w3.org/2000/svg">
<path opacity="0.992" fill-rule="evenodd" clip-rule="evenodd" d="M41.6759 2.99113C41.7693 2.99113 41.8628 2.99113 41.9562 2.99113C41.9562 3.01449 41.968 3.02616 41.9913 3.02616C41.9913 3.16632 41.9913 3.30647 41.9913 3.44662C41.9567 3.57971 41.9452 3.71986 41.9562 3.86707C41.9329 3.86707 41.9094 3.86707 41.8861 3.86707C41.8861 4.00723 41.8861 4.14738 41.8861 4.28753C41.8628 4.28753 41.8394 4.28753 41.8161 4.28753C41.819 4.42197 41.8161 4.55628 41.8073 4.69046C41.7896 4.70512 41.7691 4.71096 41.746 4.70798C41.746 4.82478 41.746 4.94156 41.746 5.05836C41.7227 5.05836 41.6992 5.05836 41.6759 5.05836C41.6759 5.19851 41.6759 5.33866 41.6759 5.47882C41.6526 5.47882 41.6291 5.47882 41.6058 5.47882C41.6058 5.61897 41.6058 5.75912 41.6058 5.89927C41.5825 5.89927 41.5591 5.89927 41.5358 5.89927C41.5358 6.03942 41.5358 6.17957 41.5358 6.31973C41.5125 6.31973 41.489 6.31973 41.4657 6.31973C41.4657 6.45988 41.4657 6.60003 41.4657 6.74018C41.4424 6.74018 41.4189 6.74018 41.3956 6.74018C41.3986 6.87462 41.3956 7.00894 41.3869 7.14312C41.3692 7.15778 41.3487 7.16361 41.3255 7.16063C41.3255 7.27743 41.3255 7.39421 41.3255 7.51101C41.3022 7.51101 41.2788 7.51101 41.2555 7.51101C41.2555 7.65116 41.2555 7.79132 41.2555 7.93147C41.2322 7.93147 41.2087 7.93147 41.1854 7.93147C41.1854 8.07162 41.1854 8.21177 41.1854 8.35192C41.1621 8.35192 41.1386 8.35192 41.1153 8.35192C41.1153 8.49207 41.1153 8.63223 41.1153 8.77238C41.092 8.77238 41.0685 8.77238 41.0452 8.77238C41.0452 8.91253 41.0452 9.05268 41.0452 9.19283C41.0219 9.19283 40.9985 9.19283 40.9752 9.19283C40.9781 9.32727 40.9752 9.46159 40.9664 9.59577C40.9487 9.61043 40.9282 9.61626 40.9051 9.61329C40.9051 9.73008 40.9051 9.84687 40.9051 9.96366C40.8818 9.96366 40.8583 9.96366 40.835 9.96366C40.835 10.1038 40.835 10.244 40.835 10.3841C40.8117 10.3841 40.7882 10.3841 40.7649 10.3841C40.7649 10.5243 40.7649 10.6644 40.7649 10.8046C40.7416 10.8046 40.7182 10.8046 40.6949 10.8046C40.6949 10.9447 40.6949 11.0849 40.6949 11.225C40.6716 11.225 40.6481 11.225 40.6248 11.225C40.6278 11.3595 40.6248 11.4938 40.616 11.628C40.5983 11.6426 40.5778 11.6485 40.5547 11.6455C40.5577 11.7799 40.5547 11.9142 40.5459 12.0484C40.5283 12.0631 40.5078 12.0689 40.4846 12.0659C40.4846 12.1827 40.4846 12.2995 40.4846 12.4163C40.4613 12.4163 40.4379 12.4163 40.4146 12.4163C40.4146 12.5565 40.4146 12.6966 40.4146 12.8368C40.3913 12.8368 40.3678 12.8368 40.3445 12.8368C40.3445 12.9769 40.3445 13.1171 40.3445 13.2572C40.3212 13.2572 40.2977 13.2572 40.2744 13.2572C40.2744 13.3974 40.2744 13.5375 40.2744 13.6777C40.2511 13.6777 40.2276 13.6777 40.2043 13.6777C40.2073 13.8121 40.2043 13.9464 40.1956 14.0806C40.1779 14.0953 40.1574 14.1011 40.1343 14.0981C40.1372 14.2326 40.1343 14.3669 40.1255 14.5011C40.1078 14.5157 40.0873 14.5216 40.0642 14.5186C40.0642 14.6354 40.0642 14.7522 40.0642 14.869C40.0409 14.869 40.0174 14.869 39.9941 14.869C39.9941 15.0091 39.9941 15.1493 39.9941 15.2894C39.9708 15.2894 39.9473 15.2894 39.924 15.2894C39.924 15.4296 39.924 15.5697 39.924 15.7099C39.9007 15.7099 39.8772 15.7099 39.8539 15.7099C39.8539 15.85 39.8539 15.9902 39.8539 16.1303C39.8306 16.1303 39.8072 16.1303 39.7839 16.1303C39.7868 16.2648 39.7839 16.3991 39.7751 16.5333C39.7574 16.5479 39.7369 16.5538 39.7138 16.5508C39.7168 16.6852 39.7138 16.8195 39.705 16.9537C39.6873 16.9684 39.6668 16.9742 39.6437 16.9712C39.6437 17.088 39.6437 17.2048 39.6437 17.3216C39.6204 17.3216 39.5969 17.3216 39.5736 17.3216C39.5736 17.4618 39.5736 17.6019 39.5736 17.7421C39.5503 17.7421 39.5269 17.7421 39.5036 17.7421C39.5036 17.8822 39.5036 18.0224 39.5036 18.1625C39.4803 18.1625 39.4568 18.1625 39.4335 18.1625C39.4335 18.3027 39.4335 18.4428 39.4335 18.583C39.4102 18.583 39.3867 18.583 39.3634 18.583C39.3664 18.7174 39.3634 18.8517 39.3547 18.9859C39.337 19.0006 39.3165 19.0064 39.2933 19.0034C39.2933 19.1202 39.2933 19.237 39.2933 19.3538C39.27 19.3538 39.2466 19.3538 39.2233 19.3538C39.2233 19.494 39.2233 19.6341 39.2233 19.7743C39.2 19.7743 39.1765 19.7743 39.1532 19.7743C39.1532 19.9144 39.1532 20.0546 39.1532 20.1947C39.1299 20.1947 39.1064 20.1947 39.0831 20.1947C39.0831 20.3349 39.0831 20.475 39.0831 20.6152C39.0598 20.6152 39.0363 20.6152 39.013 20.6152C39.016 20.7495 39.013 20.8839 39.0043 21.0181C38.9866 21.0328 38.9661 21.0386 38.943 21.0356C38.943 21.1525 38.943 21.2692 38.943 21.386C38.9197 21.386 38.8962 21.386 38.8729 21.386C38.8729 21.4794 38.8729 21.5729 38.8729 21.6663C38.8496 21.6663 38.8261 21.6663 38.8028 21.6663C38.8028 21.7597 38.8028 21.8532 38.8028 21.9466C38.7795 21.9466 38.756 21.9466 38.7327 21.9466C38.7327 22.04 38.7327 22.1335 38.7327 22.2269C38.7094 22.2269 38.686 22.2269 38.6627 22.2269C38.6656 22.3147 38.6627 22.4023 38.6539 22.4897C38.6362 22.5044 38.6157 22.5102 38.5926 22.5072C38.5926 22.5773 38.5926 22.6474 38.5926 22.7175C38.5693 22.7175 38.5458 22.7175 38.5225 22.7175C38.5225 22.7875 38.5225 22.8576 38.5225 22.9277C38.4992 22.9277 38.4757 22.9277 38.4524 22.9277C38.4524 22.9978 38.4524 23.0678 38.4524 23.1379C38.4291 23.1379 38.4057 23.1379 38.3824 23.1379C38.3824 23.208 38.3824 23.2781 38.3824 23.3481C38.3591 23.3481 38.3356 23.3481 38.3123 23.3481C38.3153 23.4126 38.3123 23.4769 38.3035 23.5408C38.2858 23.5556 38.2653 23.5613 38.2422 23.5584C38.2422 23.6051 38.2422 23.6517 38.2422 23.6985C38.2189 23.6985 38.1954 23.6985 38.1721 23.6985C38.1721 23.7453 38.1721 23.7919 38.1721 23.8387C38.1488 23.8387 38.1254 23.8387 38.1021 23.8387C38.105 23.9031 38.1021 23.9674 38.0933 24.0314C38.0756 24.0461 38.0551 24.0519 38.032 24.0489C38.032 24.0957 38.032 24.1423 38.032 24.189C38.0087 24.189 37.9852 24.189 37.9619 24.189C37.9619 24.2358 37.9619 24.2824 37.9619 24.3292C37.9386 24.3292 37.9151 24.3292 37.8918 24.3292C37.8946 24.3705 37.8918 24.4114 37.8831 24.4518C37.8654 24.4665 37.8449 24.4723 37.8218 24.4693C37.8218 24.4926 37.8218 24.5161 37.8218 24.5394C37.7985 24.5394 37.775 24.5394 37.7517 24.5394C37.7517 24.5862 37.7517 24.6328 37.7517 24.6796C37.7284 24.6796 37.7049 24.6796 37.6816 24.6796C37.6816 24.7263 37.6816 24.7729 37.6816 24.8197C37.6583 24.8197 37.6348 24.8197 37.6115 24.8197C37.6115 24.843 37.6115 24.8665 37.6115 24.8898C37.5882 24.8898 37.5647 24.8898 37.5414 24.8898C37.5414 24.9366 37.5414 24.9832 37.5414 25.03C37.5181 25.03 37.4947 25.03 37.4714 25.03C37.4714 25.0533 37.4714 25.0767 37.4714 25.1C37.4481 25.1 37.4246 25.1 37.4013 25.1C37.4013 25.1468 37.4013 25.1934 37.4013 25.2402C37.378 25.2402 37.3545 25.2402 37.3312 25.2402C37.3312 25.2635 37.3312 25.287 37.3312 25.3103C37.3079 25.3103 37.2844 25.3103 37.2611 25.3103C37.2639 25.3516 37.2611 25.3924 37.2524 25.4329C37.2347 25.4476 37.2142 25.4534 37.1911 25.4504C37.1911 25.4737 37.1911 25.4972 37.1911 25.5205C37.1678 25.5205 37.1443 25.5205 37.121 25.5205C37.121 25.5438 37.121 25.5673 37.121 25.5906C37.0977 25.5906 37.0742 25.5906 37.0509 25.5906C37.0509 25.6139 37.0509 25.6373 37.0509 25.6606C37.0276 25.6606 37.0041 25.6606 36.9808 25.6606C36.9836 25.702 36.9808 25.7428 36.9721 25.7833C36.9544 25.798 36.9339 25.8038 36.9108 25.8008C36.9108 25.8241 36.9108 25.8476 36.9108 25.8709C36.8875 25.8709 36.864 25.8709 36.8407 25.8709C36.8407 25.8942 36.8407 25.9176 36.8407 25.9409C36.8174 25.9409 36.7939 25.9409 36.7706 25.9409C36.7706 25.9642 36.7706 25.9877 36.7706 26.011C36.7473 26.011 36.7238 26.011 36.7005 26.011C36.7005 26.0343 36.7005 26.0578 36.7005 26.0811C36.6772 26.0811 36.6538 26.0811 36.6305 26.0811C36.6305 26.1044 36.6305 26.1279 36.6305 26.1512C36.6072 26.1512 36.5837 26.1512 36.5604 26.1512C36.5604 26.1745 36.5604 26.1979 36.5604 26.2212C36.5371 26.2212 36.5136 26.2212 36.4903 26.2212C36.4903 26.2445 36.4903 26.268 36.4903 26.2913C36.467 26.2913 36.4435 26.2913 36.4202 26.2913C36.4202 26.3146 36.4202 26.3381 36.4202 26.3614C36.3969 26.3614 36.3735 26.3614 36.3502 26.3614C36.3502 26.3847 36.3502 26.4082 36.3502 26.4315C36.3269 26.4315 36.3034 26.4315 36.2801 26.4315C36.2801 26.4548 36.2801 26.4782 36.2801 26.5015C36.2568 26.5015 36.2333 26.5015 36.21 26.5015C36.21 26.5248 36.21 26.5483 36.21 26.5716C36.1867 26.5716 36.1632 26.5716 36.1399 26.5716C36.1399 26.5949 36.1399 26.6184 36.1399 26.6417C36.1166 26.6417 36.0932 26.6417 36.0699 26.6417C36.0699 26.665 36.0699 26.6885 36.0699 26.7118C36.0466 26.7118 36.0231 26.7118 35.9998 26.7118C35.9998 26.7351 35.9998 26.7585 35.9998 26.7818C35.9765 26.7818 35.953 26.7818 35.9297 26.7818C35.9297 26.8051 35.9297 26.8286 35.9297 26.8519C35.9064 26.8519 35.8829 26.8519 35.8596 26.8519C35.8596 26.8752 35.8596 26.8987 35.8596 26.922C35.8363 26.922 35.8129 26.922 35.7896 26.922C35.7896 26.9453 35.7896 26.9688 35.7896 26.9921C35.7663 26.9921 35.7428 26.9921 35.7195 26.9921C35.7253 27.0446 35.702 27.0679 35.6494 27.0621C35.6524 27.0853 35.6466 27.1058 35.6319 27.1235C35.5914 27.1322 35.5506 27.135 35.5092 27.1322C35.5092 27.1555 35.5092 27.179 35.5092 27.2023C35.4859 27.2023 35.4625 27.2023 35.4392 27.2023C35.4392 27.2256 35.4392 27.2491 35.4392 27.2724C35.4159 27.2724 35.3924 27.2724 35.3691 27.2724C35.3691 27.2957 35.3691 27.3192 35.3691 27.3425C35.3458 27.3425 35.3223 27.3425 35.299 27.3425C35.299 27.3658 35.299 27.3892 35.299 27.4125C35.2757 27.4125 35.2522 27.4125 35.2289 27.4125C35.2319 27.4357 35.2261 27.4561 35.2114 27.4738C35.171 27.4826 35.1301 27.4854 35.0888 27.4826C35.0888 27.5059 35.0888 27.5294 35.0888 27.5527C35.0655 27.5527 35.042 27.5527 35.0187 27.5527C35.0187 27.576 35.0187 27.5995 35.0187 27.6228C34.9954 27.6228 34.9719 27.6228 34.9486 27.6228C34.9486 27.6461 34.9486 27.6695 34.9486 27.6928C34.9019 27.6928 34.8553 27.6928 34.8085 27.6928C34.8085 27.7161 34.8085 27.7396 34.8085 27.7629C34.7852 27.7629 34.7617 27.7629 34.7384 27.7629C34.7384 27.7862 34.7384 27.8097 34.7384 27.833C34.7151 27.833 34.6916 27.833 34.6683 27.833C34.6683 27.8563 34.6683 27.8798 34.6683 27.9031C34.645 27.9031 34.6216 27.9031 34.5983 27.9031C34.6012 27.9262 34.5955 27.9467 34.5807 27.9644C34.5403 27.9731 34.4995 27.9759 34.4581 27.9731C34.4581 27.9964 34.4581 28.0199 34.4581 28.0432C34.4348 28.0432 34.4113 28.0432 34.388 28.0432C34.388 28.0665 34.388 28.09 34.388 28.1133C34.3647 28.1133 34.3413 28.1133 34.318 28.1133C34.3209 28.1364 34.3152 28.1569 34.3004 28.1746C34.26 28.1834 34.2192 28.1862 34.1778 28.1834C34.1778 28.2067 34.1778 28.2301 34.1778 28.2534C34.1545 28.2534 34.131 28.2534 34.1077 28.2534C34.1077 28.2767 34.1077 28.3002 34.1077 28.3235C34.061 28.3235 34.0144 28.3235 33.9676 28.3235C33.9676 28.3468 33.9676 28.3703 33.9676 28.3936C33.9443 28.3936 33.9208 28.3936 33.8975 28.3936C33.8975 28.4169 33.8975 28.4404 33.8975 28.4637C33.8742 28.4637 33.8507 28.4637 33.8274 28.4637C33.8304 28.4868 33.8246 28.5073 33.8099 28.525C33.7694 28.5337 33.7286 28.5365 33.6873 28.5337C33.6873 28.557 33.6873 28.5805 33.6873 28.6038C33.664 28.6038 33.6405 28.6038 33.6172 28.6038C33.6202 28.6269 33.6144 28.6474 33.5997 28.6651C33.5592 28.6739 33.5184 28.6767 33.4771 28.6739C33.4771 28.6972 33.4771 28.7207 33.4771 28.744C33.4538 28.744 33.4303 28.744 33.407 28.744C33.407 28.7673 33.407 28.7907 33.407 28.814C33.3602 28.814 33.3136 28.814 33.2668 28.814C33.2668 28.8373 33.2668 28.8608 33.2668 28.8841C33.2435 28.8841 33.22 28.8841 33.1967 28.8841C33.1967 28.9074 33.1967 28.9309 33.1967 28.9542C33.15 28.9542 33.1034 28.9542 33.0566 28.9542C33.0566 28.9775 33.0566 29.001 33.0566 29.0243C33.0333 29.0243 33.0098 29.0243 32.9865 29.0243C32.9865 29.0476 32.9865 29.071 32.9865 29.0943C32.9397 29.0943 32.8931 29.0943 32.8464 29.0943C32.8464 29.1176 32.8464 29.1411 32.8464 29.1644C32.8231 29.1644 32.7996 29.1644 32.7763 29.1644C32.7763 29.1877 32.7763 29.2112 32.7763 29.2345C32.7295 29.2345 32.6829 29.2345 32.6361 29.2345C32.6361 29.2578 32.6361 29.2813 32.6361 29.3046C32.6128 29.3046 32.5894 29.3046 32.5661 29.3046C32.5661 29.3279 32.5661 29.3513 32.5661 29.3746C32.5193 29.3746 32.4727 29.3746 32.4259 29.3746C32.4259 29.3979 32.4259 29.4214 32.4259 29.4447C32.4026 29.4447 32.3791 29.4447 32.3558 29.4447C32.3558 29.468 32.3558 29.4915 32.3558 29.5148C32.3091 29.5148 32.2625 29.5148 32.2157 29.5148C32.2157 29.5381 32.2157 29.5616 32.2157 29.5849C32.1924 29.5849 32.1689 29.5849 32.1456 29.5849C32.1486 29.608 32.1428 29.6285 32.1281 29.6462C32.0876 29.6549 32.0468 29.6578 32.0055 29.6549C32.0055 29.6782 32.0055 29.7017 32.0055 29.725C31.9822 29.725 31.9587 29.725 31.9354 29.725C31.9384 29.7481 31.9326 29.7686 31.9179 29.7863C31.8774 29.7951 31.8366 29.7979 31.7952 29.7951C31.7952 29.8184 31.7952 29.8419 31.7952 29.8652C31.7719 29.8652 31.7485 29.8652 31.7252 29.8652C31.7281 29.8883 31.7224 29.9088 31.7076 29.9265C31.6672 29.9353 31.6264 29.9381 31.585 29.9353C31.585 29.9586 31.585 29.982 31.585 30.0053C31.5382 30.0053 31.4916 30.0053 31.4449 30.0053C31.4449 30.0286 31.4449 30.0521 31.4449 30.0754C31.4216 30.0754 31.3981 30.0754 31.3748 30.0754C31.3748 30.0987 31.3748 30.1222 31.3748 30.1455C31.328 30.1455 31.2814 30.1455 31.2346 30.1455C31.2346 30.1688 31.2346 30.1923 31.2346 30.2156C31.2113 30.2156 31.1879 30.2156 31.1646 30.2156C31.1646 30.2389 31.1646 30.2623 31.1646 30.2856C31.1178 30.2856 31.0712 30.2856 31.0244 30.2856C31.0244 30.3089 31.0244 30.3324 31.0244 30.3557C31.0011 30.3557 30.9776 30.3557 30.9543 30.3557C30.9543 30.379 30.9543 30.4025 30.9543 30.4258C30.9075 30.4258 30.8609 30.4258 30.8142 30.4258C30.8142 30.4491 30.8142 30.4726 30.8142 30.4959C30.7909 30.4959 30.7674 30.4959 30.7441 30.4959C30.7441 30.5192 30.7441 30.5426 30.7441 30.5659C30.6973 30.5659 30.6507 30.5659 30.6039 30.5659C30.6039 30.5892 30.6039 30.6127 30.6039 30.636C30.5806 30.636 30.5572 30.636 30.5339 30.636C30.5339 30.6593 30.5339 30.6828 30.5339 30.7061C30.4871 30.7061 30.4405 30.7061 30.3937 30.7061C30.3937 30.7294 30.3937 30.7529 30.3937 30.7762C30.3704 30.7762 30.3469 30.7762 30.3236 30.7762C30.3236 30.7995 30.3236 30.8229 30.3236 30.8462C30.2769 30.8462 30.2303 30.8462 30.1835 30.8462C30.1835 30.8695 30.1835 30.893 30.1835 30.9163C30.1602 30.9163 30.1367 30.9163 30.1134 30.9163C30.1134 30.9396 30.1134 30.9631 30.1134 30.9864C30.0666 30.9864 30.02 30.9864 29.9733 30.9864C29.9733 31.0097 29.9733 31.0332 29.9733 31.0565C29.95 31.0565 29.9265 31.0565 29.9032 31.0565C29.9032 31.0798 29.9032 31.1032 29.9032 31.1265C29.8564 31.1265 29.8098 31.1265 29.763 31.1265C29.763 31.1498 29.763 31.1733 29.763 31.1966C29.7397 31.1966 29.7163 31.1966 29.693 31.1966C29.693 31.2199 29.693 31.2434 29.693 31.2667C29.6697 31.2667 29.6462 31.2667 29.6229 31.2667C29.6259 31.2898 29.6201 31.3103 29.6054 31.328C29.5649 31.3368 29.5241 31.3396 29.4827 31.3368C29.4827 31.3601 29.4827 31.3835 29.4827 31.4068C29.4594 31.4068 29.436 31.4068 29.4127 31.4068C29.4156 31.43 29.4099 31.4505 29.3951 31.4682C29.3547 31.4769 29.3139 31.4797 29.2725 31.4769C29.2725 31.5002 29.2725 31.5237 29.2725 31.547C29.2492 31.547 29.2257 31.547 29.2024 31.547C29.2054 31.5701 29.1996 31.5906 29.1849 31.6083C29.1444 31.6171 29.1036 31.6199 29.0623 31.6171C29.0623 31.6404 29.0623 31.6638 29.0623 31.6871C29.039 31.6871 29.0155 31.6871 28.9922 31.6871C28.9922 31.7104 28.9922 31.7339 28.9922 31.7572C28.9454 31.7572 28.8988 31.7572 28.8521 31.7572C28.8521 31.7805 28.8521 31.804 28.8521 31.8273C28.8288 31.8273 28.8053 31.8273 28.782 31.8273C28.782 31.8506 28.782 31.8741 28.782 31.8974C28.7352 31.8974 28.6886 31.8974 28.6418 31.8974C28.6418 31.9207 28.6418 31.9441 28.6418 31.9674C28.6185 31.9674 28.5951 31.9674 28.5718 31.9674C28.5718 31.9907 28.5718 32.0142 28.5718 32.0375C28.5485 32.0375 28.525 32.0375 28.5017 32.0375C28.5047 32.0606 28.4989 32.0811 28.4842 32.0988C28.4437 32.1076 28.4029 32.1104 28.3615 32.1076C28.3615 32.1309 28.3615 32.1544 28.3615 32.1777C28.3382 32.1777 28.3147 32.1777 28.2914 32.1777C28.2944 32.2008 28.2886 32.2213 28.2739 32.239C28.2335 32.2478 28.1926 32.2506 28.1513 32.2478C28.1513 32.2711 28.1513 32.2945 28.1513 32.3178C28.128 32.3178 28.1045 32.3178 28.0812 32.3178C28.0812 32.3411 28.0812 32.3646 28.0812 32.3879C28.0344 32.3879 27.9878 32.3879 27.9411 32.3879C27.9411 32.4112 27.9411 32.4347 27.9411 32.458C27.9178 32.458 27.8943 32.458 27.871 32.458C27.871 32.4813 27.871 32.5048 27.871 32.5281C27.8477 32.5281 27.8242 32.5281 27.8009 32.5281C27.8039 32.5512 27.7981 32.5717 27.7834 32.5894C27.7429 32.5981 27.7021 32.6009 27.6608 32.5981C27.6608 32.6214 27.6608 32.6449 27.6608 32.6682C27.6375 32.6682 27.614 32.6682 27.5907 32.6682C27.5907 32.6915 27.5907 32.715 27.5907 32.7383C27.5439 32.7383 27.4973 32.7383 27.4505 32.7383C27.4505 32.7616 27.4505 32.7851 27.4505 32.8084C27.4272 32.8084 27.4038 32.8084 27.3805 32.8084C27.3805 32.8317 27.3805 32.8551 27.3805 32.8784C27.3572 32.8784 27.3337 32.8784 27.3104 32.8784C27.3134 32.9016 27.3076 32.9221 27.2929 32.9398C27.2524 32.9485 27.2116 32.9513 27.1702 32.9485C27.1702 32.9718 27.1702 32.9953 27.1702 33.0186C27.1469 33.0186 27.1235 33.0186 27.1002 33.0186C27.1002 33.0419 27.1002 33.0654 27.1002 33.0887C27.0534 33.0887 27.0068 33.0887 26.96 33.0887C26.96 33.112 26.96 33.1354 26.96 33.1587C26.9367 33.1587 26.9132 33.1587 26.8899 33.1587C26.8899 33.182 26.8899 33.2055 26.8899 33.2288C26.8666 33.2288 26.8432 33.2288 26.8199 33.2288C26.8228 33.2519 26.8171 33.2724 26.8023 33.2901C26.7619 33.2989 26.721 33.3017 26.6797 33.2989C26.6797 33.3222 26.6797 33.3457 26.6797 33.369C26.6564 33.369 26.6329 33.369 26.6096 33.369C26.6096 33.3923 26.6096 33.4157 26.6096 33.439C26.5863 33.439 26.5629 33.439 26.5396 33.439C26.5425 33.4622 26.5368 33.4827 26.522 33.5004C26.4816 33.5091 26.4407 33.5119 26.3994 33.5091C26.3994 33.5324 26.3994 33.5559 26.3994 33.5792C26.3761 33.5792 26.3526 33.5792 26.3293 33.5792C26.3293 33.6025 26.3293 33.626 26.3293 33.6493C26.2826 33.6493 26.236 33.6493 26.1892 33.6493C26.1892 33.6726 26.1892 33.696 26.1892 33.7193C26.1659 33.7193 26.1424 33.7193 26.1191 33.7193C26.1191 33.7426 26.1191 33.7661 26.1191 33.7894C26.0958 33.7894 26.0723 33.7894 26.049 33.7894C26.049 33.8127 26.049 33.8362 26.049 33.8595C26.0022 33.8595 25.9556 33.8595 25.9089 33.8595C25.9089 33.8828 25.9089 33.9063 25.9089 33.9296C25.8856 33.9296 25.8621 33.9296 25.8388 33.9296C25.8388 33.9529 25.8388 33.9763 25.8388 33.9996C25.8155 33.9996 25.792 33.9996 25.7687 33.9996C25.7717 34.0228 25.7659 34.0433 25.7512 34.061C25.7107 34.0697 25.6699 34.0725 25.6286 34.0697C25.6286 34.093 25.6286 34.1165 25.6286 34.1398C25.6053 34.1398 25.5818 34.1398 25.5585 34.1398C25.5585 34.1631 25.5585 34.1866 25.5585 34.2099C25.5352 34.2099 25.5117 34.2099 25.4884 34.2099C25.4884 34.2332 25.4884 34.2566 25.4884 34.2799C25.4416 34.2799 25.395 34.2799 25.3483 34.2799C25.3483 34.3032 25.3483 34.3267 25.3483 34.35C25.325 34.35 25.3015 34.35 25.2782 34.35C25.2782 34.3733 25.2782 34.3968 25.2782 34.4201C25.2549 34.4201 25.2314 34.4201 25.2081 34.4201C25.2081 34.4434 25.2081 34.4669 25.2081 34.4902C25.1848 34.4902 25.1613 34.4902 25.138 34.4902C25.141 34.5133 25.1352 34.5338 25.1205 34.5515C25.0801 34.5603 25.0392 34.5631 24.9979 34.5603C24.9979 34.5836 24.9979 34.607 24.9979 34.6303C24.9746 34.6303 24.9511 34.6303 24.9278 34.6303C24.9278 34.6536 24.9278 34.6771 24.9278 34.7004C24.9045 34.7004 24.881 34.7004 24.8577 34.7004C24.8607 34.7235 24.8549 34.744 24.8402 34.7617C24.7997 34.7705 24.7589 34.7733 24.7176 34.7705C24.7176 34.7938 24.7176 34.8173 24.7176 34.8406C24.6943 34.8406 24.6708 34.8406 24.6475 34.8406C24.6475 34.8639 24.6475 34.8873 24.6475 34.9106C24.6242 34.9106 24.6007 34.9106 24.5774 34.9106C24.5774 34.9339 24.5774 34.9574 24.5774 34.9807C24.5541 34.9807 24.5307 34.9807 24.5074 34.9807C24.5103 35.0038 24.5046 35.0243 24.4898 35.042C24.4494 35.0508 24.4085 35.0536 24.3672 35.0508C24.3672 35.0741 24.3672 35.0976 24.3672 35.1209C24.3439 35.1209 24.3204 35.1209 24.2971 35.1209C24.2971 35.1442 24.2971 35.1676 24.2971 35.1909C24.2738 35.1909 24.2504 35.1909 24.2271 35.1909C24.2271 35.2142 24.2271 35.2377 24.2271 35.261C24.2038 35.261 24.1803 35.261 24.157 35.261C24.16 35.2841 24.1542 35.3046 24.1395 35.3223C24.099 35.3311 24.0582 35.3339 24.0168 35.3311C24.0168 35.3544 24.0168 35.3779 24.0168 35.4012C23.9935 35.4012 23.9701 35.4012 23.9468 35.4012C23.9468 35.4245 23.9468 35.4479 23.9468 35.4712C23.9234 35.4712 23.9 35.4712 23.8767 35.4712C23.8767 35.4945 23.8767 35.518 23.8767 35.5413C23.8534 35.5413 23.8299 35.5413 23.8066 35.5413C23.8096 35.5644 23.8038 35.5849 23.7891 35.6026C23.7486 35.6114 23.7078 35.6142 23.6664 35.6114C23.6664 35.6347 23.6664 35.6582 23.6664 35.6815C23.6431 35.6815 23.6197 35.6815 23.5964 35.6815C23.5964 35.7048 23.5964 35.7282 23.5964 35.7515C23.5731 35.7515 23.5496 35.7515 23.5263 35.7515C23.5263 35.7748 23.5263 35.7983 23.5263 35.8216C23.503 35.8216 23.4795 35.8216 23.4562 35.8216C23.4562 35.8449 23.4562 35.8684 23.4562 35.8917C23.4329 35.8917 23.4094 35.8917 23.3861 35.8917C23.3891 35.9148 23.3833 35.9353 23.3686 35.953C23.3282 35.9618 23.2873 35.9646 23.246 35.9618C23.246 35.9851 23.246 36.0085 23.246 36.0318C23.2227 36.0318 23.1992 36.0318 23.1759 36.0318C23.1759 36.0551 23.1759 36.0786 23.1759 36.1019C23.1526 36.1019 23.1291 36.1019 23.1058 36.1019C23.1058 36.1252 23.1058 36.1487 23.1058 36.172C23.0825 36.172 23.0591 36.172 23.0358 36.172C23.0358 36.1953 23.0358 36.2188 23.0358 36.2421C23.0125 36.2421 22.989 36.2421 22.9657 36.2421C22.9657 36.2654 22.9657 36.2888 22.9657 36.3121C22.9424 36.3121 22.9189 36.3121 22.8956 36.3121C22.9014 36.3647 22.8781 36.388 22.8255 36.3822C22.8285 36.4053 22.8227 36.4258 22.808 36.4435C22.7676 36.4523 22.7267 36.4551 22.6854 36.4523C22.6854 36.4756 22.6854 36.4991 22.6854 36.5224C22.6621 36.5224 22.6386 36.5224 22.6153 36.5224C22.6153 36.5457 22.6153 36.5691 22.6153 36.5924C22.592 36.5924 22.5685 36.5924 22.5452 36.5924C22.5452 36.6157 22.5452 36.6392 22.5452 36.6625C22.5219 36.6625 22.4985 36.6625 22.4752 36.6625C22.4752 36.6858 22.4752 36.7093 22.4752 36.7326C22.4518 36.7326 22.4284 36.7326 22.4051 36.7326C22.4051 36.7559 22.4051 36.7794 22.4051 36.8027C22.3817 36.8027 22.3584 36.8027 22.335 36.8027C22.335 36.826 22.335 36.8495 22.335 36.8728C22.3117 36.8728 22.2883 36.8728 22.2649 36.8728C22.2649 36.8961 22.2649 36.9195 22.2649 36.9428C22.2416 36.9428 22.2182 36.9428 22.1949 36.9428C22.1949 36.9661 22.1949 36.9896 22.1949 37.0129C22.1715 37.0129 22.1481 37.0129 22.1248 37.0129C22.1248 37.0362 22.1248 37.0597 22.1248 37.083C22.1014 37.083 22.0781 37.083 22.0547 37.083C22.0547 37.1063 22.0547 37.1298 22.0547 37.1531C22.0314 37.1531 22.008 37.1531 21.9846 37.1531C21.9846 37.1764 21.9846 37.1998 21.9846 37.2231C21.9613 37.2231 21.9379 37.2231 21.9146 37.2231C21.9146 37.2464 21.9146 37.2699 21.9146 37.2932C21.8912 37.2932 21.8678 37.2932 21.8445 37.2932C21.8445 37.3165 21.8445 37.34 21.8445 37.3633C21.8211 37.3633 21.7978 37.3633 21.7744 37.3633C21.7744 37.3866 21.7744 37.4101 21.7744 37.4334C21.751 37.4334 21.7277 37.4334 21.7043 37.4334C21.7043 37.4567 21.7043 37.4801 21.7043 37.5034C21.681 37.5034 21.6576 37.5034 21.6343 37.5034C21.6343 37.5267 21.6343 37.5502 21.6343 37.5735C21.6109 37.5735 21.5875 37.5735 21.5642 37.5735C21.5642 37.5968 21.5642 37.6203 21.5642 37.6436C21.5408 37.6436 21.5175 37.6436 21.4941 37.6436C21.497 37.6849 21.494 37.7257 21.4853 37.7662C21.4676 37.7809 21.4472 37.7867 21.424 37.7837C21.4299 37.8363 21.4065 37.8596 21.3539 37.8538C21.3539 37.8771 21.3539 37.9006 21.3539 37.9239C21.3306 37.9239 21.3072 37.9239 21.2839 37.9239C21.2839 37.9472 21.2839 37.9707 21.2839 37.994C21.2605 37.994 21.2371 37.994 21.2138 37.994C21.2167 38.0353 21.2137 38.0761 21.205 38.1166C21.1873 38.1313 21.1669 38.1371 21.1437 38.1341C21.1437 38.1574 21.1437 38.1809 21.1437 38.2042C21.1204 38.2042 21.097 38.2042 21.0736 38.2042C21.0736 38.2275 21.0736 38.251 21.0736 38.2743C20.9568 38.2743 20.8401 38.2743 20.7233 38.2743C20.7203 38.0465 20.7233 37.8188 20.732 37.591C20.7497 37.5763 20.7702 37.5705 20.7933 37.5735C20.7933 37.4567 20.7933 37.34 20.7933 37.2231C20.8167 37.2231 20.8401 37.2231 20.8634 37.2231C20.8634 37.083 20.8634 36.9428 20.8634 36.8027C20.8868 36.8027 20.9101 36.8027 20.9335 36.8027C20.9335 36.6625 20.9335 36.5224 20.9335 36.3822C20.9568 36.3822 20.9802 36.3822 21.0036 36.3822C21.0036 36.2421 21.0036 36.1019 21.0036 35.9618C21.0269 35.9618 21.0503 35.9618 21.0736 35.9618C21.0736 35.8216 21.0736 35.6815 21.0736 35.5413C21.097 35.5413 21.1204 35.5413 21.1437 35.5413C21.1408 35.4069 21.1437 35.2726 21.1525 35.1384C21.1702 35.1237 21.1906 35.1179 21.2138 35.1209C21.2138 35.004 21.2138 34.8873 21.2138 34.7705C21.2371 34.7705 21.2605 34.7705 21.2839 34.7705C21.2839 34.6303 21.2839 34.4902 21.2839 34.35C21.3072 34.35 21.3306 34.35 21.3539 34.35C21.3539 34.2099 21.3539 34.0697 21.3539 33.9296C21.3773 33.9296 21.4007 33.9296 21.424 33.9296C21.424 33.7894 21.424 33.6493 21.424 33.5091C21.4474 33.5091 21.4707 33.5091 21.4941 33.5091C21.4912 33.3747 21.4941 33.2404 21.5029 33.1062C21.5206 33.0915 21.541 33.0857 21.5642 33.0887C21.5613 32.9543 21.5642 32.8199 21.5729 32.6857C21.5906 32.671 21.6111 32.6652 21.6343 32.6682C21.6343 32.5514 21.6343 32.4347 21.6343 32.3178C21.6576 32.3178 21.681 32.3178 21.7043 32.3178C21.7043 32.1777 21.7043 32.0375 21.7043 31.8974C21.7277 31.8974 21.751 31.8974 21.7744 31.8974C21.7744 31.7572 21.7744 31.6171 21.7744 31.4769C21.7978 31.4769 21.8211 31.4769 21.8445 31.4769C21.8445 31.3368 21.8445 31.1966 21.8445 31.0565C21.8678 31.0565 21.8912 31.0565 21.9146 31.0565C21.9116 30.9221 21.9146 30.7877 21.9233 30.6535C21.941 30.6388 21.9615 30.633 21.9846 30.636C21.9846 30.5192 21.9846 30.4025 21.9846 30.2856C22.008 30.2856 22.0314 30.2856 22.0547 30.2856C22.0547 30.1455 22.0547 30.0053 22.0547 29.8652C22.0781 29.8652 22.1014 29.8652 22.1248 29.8652C22.1248 29.725 22.1248 29.5849 22.1248 29.4447C22.1481 29.4447 22.1715 29.4447 22.1949 29.4447C22.1949 29.3046 22.1949 29.1644 22.1949 29.0243C22.2182 29.0243 22.2416 29.0243 22.2649 29.0243C22.2649 28.8841 22.2649 28.744 22.2649 28.6038C22.2883 28.6038 22.3117 28.6038 22.335 28.6038C22.3321 28.4694 22.335 28.3351 22.3438 28.2009C22.3615 28.1862 22.3819 28.1804 22.4051 28.1834C22.4051 28.0665 22.4051 27.9498 22.4051 27.833C22.4284 27.833 22.4518 27.833 22.4752 27.833C22.4752 27.6928 22.4752 27.5527 22.4752 27.4125C22.4985 27.4125 22.5219 27.4125 22.5452 27.4125C22.5452 27.2724 22.5452 27.1322 22.5452 26.9921C22.5685 26.9921 22.592 26.9921 22.6153 26.9921C22.6153 26.8519 22.6153 26.7118 22.6153 26.5716C22.6386 26.5716 22.6621 26.5716 22.6854 26.5716C22.6824 26.4372 22.6854 26.3029 22.6941 26.1687C22.7118 26.154 22.7323 26.1482 22.7555 26.1512C22.7525 26.0168 22.7555 25.8824 22.7642 25.7482C22.7819 25.7335 22.8024 25.7277 22.8255 25.7307C22.8255 25.6139 22.8255 25.4972 22.8255 25.3803C22.8488 25.3803 22.8723 25.3803 22.8956 25.3803C22.8956 25.2402 22.8956 25.1 22.8956 24.9599C22.9189 24.9599 22.9424 24.9599 22.9657 24.9599C22.9657 24.8197 22.9657 24.6796 22.9657 24.5394C22.989 24.5394 23.0125 24.5394 23.0358 24.5394C23.0358 24.3993 23.0358 24.2591 23.0358 24.119C23.0591 24.119 23.0825 24.119 23.1058 24.119C23.1029 23.9846 23.1058 23.8502 23.1146 23.716C23.1323 23.7013 23.1528 23.6955 23.1759 23.6985C23.1759 23.5817 23.1759 23.465 23.1759 23.3481C23.1992 23.3481 23.2227 23.3481 23.246 23.3481C23.246 23.208 23.246 23.0678 23.246 22.9277C23.2693 22.9277 23.2928 22.9277 23.3161 22.9277C23.3161 22.7875 23.3161 22.6474 23.3161 22.5072C23.3394 22.5072 23.3628 22.5072 23.3861 22.5072C23.3861 22.3671 23.3861 22.2269 23.3861 22.0868C23.4094 22.0868 23.4329 22.0868 23.4562 22.0868C23.4532 21.9524 23.4562 21.818 23.465 21.6838C23.4827 21.6691 23.5032 21.6633 23.5263 21.6663C23.5233 21.5319 23.5263 21.3976 23.5351 21.2634C23.5527 21.2487 23.5732 21.2429 23.5964 21.2459C23.5964 21.129 23.5964 21.0123 23.5964 20.8955C23.6197 20.8955 23.6431 20.8955 23.6664 20.8955C23.6664 20.7553 23.6664 20.6152 23.6664 20.475C23.6897 20.475 23.7132 20.475 23.7365 20.475C23.7365 20.3349 23.7365 20.1947 23.7365 20.0546C23.7598 20.0546 23.7833 20.0546 23.8066 20.0546C23.8066 19.9378 23.8066 19.821 23.8066 19.7042C23.8299 19.7042 23.8534 19.7042 23.8767 19.7042C23.8767 19.5874 23.8767 19.4706 23.8767 19.3538C23.9 19.3538 23.9234 19.3538 23.9468 19.3538C23.9468 19.237 23.9468 19.1202 23.9468 19.0034C23.9701 19.0034 23.9935 19.0034 24.0168 19.0034C24.0168 18.91 24.0168 18.8166 24.0168 18.7231C24.0401 18.7231 24.0636 18.7231 24.0869 18.7231C24.0869 18.6297 24.0869 18.5363 24.0869 18.4428C24.1102 18.4428 24.1337 18.4428 24.157 18.4428C24.154 18.355 24.157 18.2674 24.1657 18.18C24.1834 18.1654 24.2039 18.1595 24.2271 18.1625C24.2271 18.0925 24.2271 18.0224 24.2271 17.9523C24.2504 17.9523 24.2738 17.9523 24.2971 17.9523C24.2971 17.8822 24.2971 17.8121 24.2971 17.7421C24.3204 17.7421 24.3439 17.7421 24.3672 17.7421C24.3672 17.672 24.3672 17.6019 24.3672 17.5318C24.3905 17.5318 24.414 17.5318 24.4373 17.5318C24.4373 17.4618 24.4373 17.3917 24.4373 17.3216C24.4606 17.3216 24.4841 17.3216 24.5074 17.3216C24.5074 17.2749 24.5074 17.2282 24.5074 17.1815C24.5307 17.1815 24.5541 17.1815 24.5774 17.1815C24.5774 17.1114 24.5774 17.0413 24.5774 16.9712C24.6007 16.9712 24.6242 16.9712 24.6475 16.9712C24.6475 16.9245 24.6475 16.8778 24.6475 16.8311C24.6708 16.8311 24.6943 16.8311 24.7176 16.8311C24.7176 16.7844 24.7176 16.7377 24.7176 16.6909C24.7409 16.6909 24.7644 16.6909 24.7877 16.6909C24.7877 16.6442 24.7877 16.5975 24.7877 16.5508C24.811 16.5508 24.8344 16.5508 24.8577 16.5508C24.8577 16.5041 24.8577 16.4574 24.8577 16.4106C24.881 16.4106 24.9045 16.4106 24.9278 16.4106C24.9278 16.3639 24.9278 16.3172 24.9278 16.2705C24.9511 16.2705 24.9746 16.2705 24.9979 16.2705C24.9979 16.2238 24.9979 16.1771 24.9979 16.1303C25.0212 16.1303 25.0447 16.1303 25.068 16.1303C25.068 16.107 25.068 16.0836 25.068 16.0603C25.0913 16.0603 25.1147 16.0603 25.138 16.0603C25.138 16.0135 25.138 15.9668 25.138 15.9201C25.1613 15.9201 25.1848 15.9201 25.2081 15.9201C25.2053 15.8788 25.2081 15.8379 25.2169 15.7975C25.2346 15.7828 25.2551 15.777 25.2782 15.78C25.2782 15.7566 25.2782 15.7332 25.2782 15.7099C25.3015 15.7099 25.325 15.7099 25.3483 15.7099C25.3483 15.6865 25.3483 15.6632 25.3483 15.6398C25.3716 15.6398 25.395 15.6398 25.4183 15.6398C25.4155 15.5985 25.4183 15.5576 25.4271 15.5172C25.4448 15.5025 25.4653 15.4967 25.4884 15.4996C25.4884 15.4763 25.4884 15.4529 25.4884 15.4296C25.5117 15.4296 25.5352 15.4296 25.5585 15.4296C25.5585 15.4062 25.5585 15.3828 25.5585 15.3595C25.5818 15.3595 25.6053 15.3595 25.6286 15.3595C25.6286 15.3361 25.6286 15.3128 25.6286 15.2894C25.6519 15.2894 25.6753 15.2894 25.6986 15.2894C25.6958 15.2481 25.6986 15.2073 25.7074 15.1668C25.7251 15.1521 25.7456 15.1463 25.7687 15.1493C25.7687 15.1259 25.7687 15.1025 25.7687 15.0792C25.792 15.0792 25.8155 15.0792 25.8388 15.0792C25.8388 15.0558 25.8388 15.0325 25.8388 15.0091C25.8621 15.0091 25.8856 15.0091 25.9089 15.0091C25.9089 14.9858 25.9089 14.9624 25.9089 14.939C25.9322 14.939 25.9556 14.939 25.9789 14.939C25.9789 14.9157 25.9789 14.8923 25.9789 14.869C26.0022 14.869 26.0257 14.869 26.049 14.869C26.049 14.8456 26.049 14.8222 26.049 14.7989C26.0723 14.7989 26.0958 14.7989 26.1191 14.7989C26.1191 14.7755 26.1191 14.7522 26.1191 14.7288C26.1424 14.7288 26.1659 14.7288 26.1892 14.7288C26.1892 14.7055 26.1892 14.6821 26.1892 14.6587C26.2125 14.6587 26.236 14.6587 26.2593 14.6587C26.2593 14.6354 26.2593 14.612 26.2593 14.5887C26.2826 14.5887 26.306 14.5887 26.3293 14.5887C26.3293 14.5653 26.3293 14.5419 26.3293 14.5186C26.3526 14.5186 26.3761 14.5186 26.3994 14.5186C26.3994 14.4952 26.3994 14.4719 26.3994 14.4485C26.4227 14.4485 26.4462 14.4485 26.4695 14.4485C26.4637 14.396 26.487 14.3726 26.5396 14.3784C26.5366 14.3553 26.5424 14.3348 26.5571 14.3171C26.5975 14.3084 26.6384 14.3055 26.6797 14.3084C26.6797 14.285 26.6797 14.2616 26.6797 14.2383C26.703 14.2383 26.7265 14.2383 26.7498 14.2383C26.7498 14.2149 26.7498 14.1916 26.7498 14.1682C26.7731 14.1682 26.7966 14.1682 26.8199 14.1682C26.8199 14.1449 26.8199 14.1215 26.8199 14.0981C26.8432 14.0981 26.8666 14.0981 26.8899 14.0981C26.887 14.075 26.8927 14.0545 26.9075 14.0368C26.9479 14.0281 26.9887 14.0252 27.0301 14.0281C27.0301 14.0047 27.0301 13.9813 27.0301 13.958C27.0534 13.958 27.0769 13.958 27.1002 13.958C27.1002 13.9346 27.1002 13.9113 27.1002 13.8879C27.1235 13.8879 27.1469 13.8879 27.1702 13.8879C27.1702 13.8646 27.1702 13.8412 27.1702 13.8178C27.1935 13.8178 27.217 13.8178 27.2403 13.8178C27.2373 13.7947 27.2431 13.7742 27.2578 13.7565C27.2983 13.7478 27.3391 13.7449 27.3805 13.7478C27.3805 13.7244 27.3805 13.701 27.3805 13.6777C27.4038 13.6777 27.4272 13.6777 27.4505 13.6777C27.4505 13.6543 27.4505 13.631 27.4505 13.6076C27.4973 13.6076 27.5439 13.6076 27.5907 13.6076C27.5907 13.5843 27.5907 13.5609 27.5907 13.5375C27.614 13.5375 27.6375 13.5375 27.6608 13.5375C27.6608 13.5142 27.6608 13.4908 27.6608 13.4675C27.7075 13.4675 27.7541 13.4675 27.8009 13.4675C27.8009 13.4441 27.8009 13.4207 27.8009 13.3974C27.8242 13.3974 27.8477 13.3974 27.871 13.3974C27.871 13.374 27.871 13.3507 27.871 13.3273C27.8943 13.3273 27.9178 13.3273 27.9411 13.3273C27.9381 13.3041 27.9439 13.2837 27.9586 13.266C27.9991 13.2573 28.0399 13.2544 28.0812 13.2572C28.0812 13.2339 28.0812 13.2105 28.0812 13.1871C28.128 13.1871 28.1746 13.1871 28.2214 13.1871C28.2214 13.1638 28.2214 13.1404 28.2214 13.1171C28.2447 13.1171 28.2681 13.1171 28.2914 13.1171C28.2914 13.0937 28.2914 13.0703 28.2914 13.047C28.3382 13.047 28.3848 13.047 28.4316 13.047C28.4316 13.0236 28.4316 13.0003 28.4316 12.9769C28.4549 12.9769 28.4784 12.9769 28.5017 12.9769C28.5017 12.9536 28.5017 12.9302 28.5017 12.9068C28.5485 12.9068 28.5951 12.9068 28.6418 12.9068C28.6418 12.8835 28.6418 12.8601 28.6418 12.8368C28.6651 12.8368 28.6886 12.8368 28.7119 12.8368C28.7089 12.8136 28.7147 12.7932 28.7294 12.7755C28.7699 12.7667 28.8107 12.7638 28.8521 12.7667C28.8521 12.7433 28.8521 12.72 28.8521 12.6966C28.8988 12.6966 28.9454 12.6966 28.9922 12.6966C28.9922 12.6733 28.9922 12.6499 28.9922 12.6265C29.0155 12.6265 29.039 12.6265 29.0623 12.6265C29.0593 12.6034 29.0651 12.5829 29.0798 12.5652C29.1203 12.5565 29.1611 12.5536 29.2024 12.5565C29.2024 12.5331 29.2024 12.5097 29.2024 12.4864C29.2492 12.4864 29.2958 12.4864 29.3426 12.4864C29.3426 12.463 29.3426 12.4397 29.3426 12.4163C29.3659 12.4163 29.3894 12.4163 29.4127 12.4163C29.4097 12.3932 29.4155 12.3727 29.4302 12.355C29.4706 12.3463 29.5115 12.3434 29.5528 12.3462C29.5528 12.3229 29.5528 12.2995 29.5528 12.2762C29.5996 12.2762 29.6462 12.2762 29.693 12.2762C29.693 12.2528 29.693 12.2294 29.693 12.2061C29.7397 12.2061 29.7863 12.2061 29.8331 12.2061C29.8331 12.1827 29.8331 12.1594 29.8331 12.136C29.8564 12.136 29.8799 12.136 29.9032 12.136C29.9002 12.1129 29.906 12.0924 29.9207 12.0747C29.9612 12.066 30.002 12.0631 30.0433 12.0659C30.0433 12.0426 30.0433 12.0192 30.0433 11.9959C30.0901 11.9959 30.1367 11.9959 30.1835 11.9959C30.1835 11.9725 30.1835 11.9491 30.1835 11.9258C30.2303 11.9258 30.2769 11.9258 30.3236 11.9258C30.3236 11.9024 30.3236 11.8791 30.3236 11.8557C30.3469 11.8557 30.3704 11.8557 30.3937 11.8557C30.3907 11.8325 30.3965 11.8121 30.4112 11.7944C30.4517 11.7857 30.4925 11.7828 30.5339 11.7856C30.5339 11.7623 30.5339 11.7389 30.5339 11.7156C30.5806 11.7156 30.6272 11.7156 30.674 11.7156C30.674 11.6922 30.674 11.6688 30.674 11.6455C30.6973 11.6455 30.7208 11.6455 30.7441 11.6455C30.7411 11.6223 30.7469 11.6019 30.7616 11.5842C30.8021 11.5755 30.8429 11.5726 30.8842 11.5754C30.8842 11.5521 30.8842 11.5287 30.8842 11.5053C30.931 11.5053 30.9776 11.5053 31.0244 11.5053C31.0244 11.482 31.0244 11.4586 31.0244 11.4353C31.0712 11.4353 31.1178 11.4353 31.1646 11.4353C31.1646 11.4119 31.1646 11.3885 31.1646 11.3652C31.1879 11.3652 31.2113 11.3652 31.2346 11.3652C31.2317 11.342 31.2374 11.3216 31.2521 11.3039C31.2926 11.2952 31.3334 11.2922 31.3748 11.2951C31.3748 11.2718 31.3748 11.2484 31.3748 11.225C31.4216 11.225 31.4682 11.225 31.5149 11.225C31.5149 11.2017 31.5149 11.1783 31.5149 11.155C31.5382 11.155 31.5617 11.155 31.585 11.155C31.582 11.1318 31.5878 11.1113 31.6025 11.0936C31.643 11.0849 31.6838 11.082 31.7252 11.0849C31.7252 11.0615 31.7252 11.0382 31.7252 11.0148C31.7719 11.0148 31.8185 11.0148 31.8653 11.0148C31.8653 10.9914 31.8653 10.9681 31.8653 10.9447C31.8886 10.9447 31.9121 10.9447 31.9354 10.9447C31.9324 10.9216 31.9382 10.9011 31.9529 10.8834C31.9934 10.8747 32.0342 10.8718 32.0755 10.8746C32.0755 10.8513 32.0755 10.8279 32.0755 10.8046C32.1223 10.8046 32.1689 10.8046 32.2157 10.8046C32.2157 10.7812 32.2157 10.7579 32.2157 10.7345C32.239 10.7345 32.2625 10.7345 32.2858 10.7345C32.2858 10.7111 32.2858 10.6878 32.2858 10.6644C32.3325 10.6644 32.3791 10.6644 32.4259 10.6644C32.4259 10.6411 32.4259 10.6177 32.4259 10.5943C32.4492 10.5943 32.4727 10.5943 32.496 10.5943C32.493 10.5712 32.4988 10.5507 32.5135 10.533C32.554 10.5243 32.5948 10.5214 32.6361 10.5243C32.6361 10.5009 32.6361 10.4775 32.6361 10.4542C32.6829 10.4542 32.7295 10.4542 32.7763 10.4542C32.7763 10.4308 32.7763 10.4075 32.7763 10.3841C32.7996 10.3841 32.8231 10.3841 32.8464 10.3841C32.8464 10.3608 32.8464 10.3374 32.8464 10.314C32.8931 10.314 32.9397 10.314 32.9865 10.314C32.9865 10.2907 32.9865 10.2673 32.9865 10.244C33.0098 10.244 33.0333 10.244 33.0566 10.244C33.0536 10.2208 33.0594 10.2004 33.0741 10.1827C33.1146 10.1739 33.1554 10.171 33.1967 10.1739C33.1967 10.1505 33.1967 10.1272 33.1967 10.1038C33.22 10.1038 33.2435 10.1038 33.2668 10.1038C33.2638 10.0807 33.2696 10.0602 33.2843 10.0425C33.3248 10.0338 33.3656 10.0309 33.407 10.0337C33.407 10.0104 33.407 9.98702 33.407 9.96366C33.4303 9.96366 33.4538 9.96366 33.4771 9.96366C33.4741 9.9405 33.4799 9.92006 33.4946 9.90235C33.535 9.89364 33.5759 9.89073 33.6172 9.89359C33.6172 9.87024 33.6172 9.84687 33.6172 9.82351C33.664 9.82351 33.7106 9.82351 33.7574 9.82351C33.7574 9.80016 33.7574 9.77679 33.7574 9.75344C33.7807 9.75344 33.8041 9.75344 33.8274 9.75344C33.8274 9.73008 33.8274 9.70671 33.8274 9.68336C33.8742 9.68336 33.9208 9.68336 33.9676 9.68336C33.9676 9.66001 33.9676 9.63664 33.9676 9.61329C33.9909 9.61329 34.0144 9.61329 34.0377 9.61329C34.0377 9.58993 34.0377 9.56656 34.0377 9.54321C34.0844 9.54321 34.131 9.54321 34.1778 9.54321C34.1778 9.51986 34.1778 9.49649 34.1778 9.47313C34.2011 9.47313 34.2246 9.47313 34.2479 9.47313C34.2479 9.44978 34.2479 9.42641 34.2479 9.40306C34.2947 9.40306 34.3413 9.40306 34.388 9.40306C34.388 9.37971 34.388 9.35634 34.388 9.33298C34.4113 9.33298 34.4348 9.33298 34.4581 9.33298C34.4581 9.30963 34.4581 9.28626 34.4581 9.26291C34.4814 9.26291 34.5049 9.26291 34.5282 9.26291C34.5252 9.23975 34.531 9.2193 34.5457 9.20159C34.5862 9.19288 34.627 9.18998 34.6683 9.19283C34.6683 9.16948 34.6683 9.14611 34.6683 9.12276C34.6916 9.12276 34.7151 9.12276 34.7384 9.12276C34.7354 9.0996 34.7412 9.07915 34.7559 9.06144C34.7964 9.05273 34.8372 9.04982 34.8786 9.05268C34.8786 9.02933 34.8786 9.00596 34.8786 8.9826C34.9019 8.9826 34.9253 8.9826 34.9486 8.9826C34.9457 8.95944 34.9514 8.939 34.9662 8.92129C35.0066 8.91258 35.0475 8.90967 35.0888 8.91253C35.0888 8.88917 35.0888 8.86581 35.0888 8.84245C35.1121 8.84245 35.1356 8.84245 35.1589 8.84245C35.1589 8.8191 35.1589 8.79573 35.1589 8.77238C35.2056 8.77238 35.2522 8.77238 35.299 8.77238C35.299 8.74902 35.299 8.72565 35.299 8.7023C35.3223 8.7023 35.3458 8.7023 35.3691 8.7023C35.3691 8.67895 35.3691 8.65558 35.3691 8.63223C35.3924 8.63223 35.4159 8.63223 35.4392 8.63223C35.4362 8.60907 35.442 8.58862 35.4567 8.57091C35.4972 8.5622 35.538 8.55929 35.5793 8.56215C35.5793 8.5388 35.5793 8.51543 35.5793 8.49207C35.6026 8.49207 35.6261 8.49207 35.6494 8.49207C35.6494 8.46872 35.6494 8.44535 35.6494 8.422C35.6962 8.422 35.7428 8.422 35.7896 8.422C35.7896 8.39864 35.7896 8.37527 35.7896 8.35192C35.8129 8.35192 35.8363 8.35192 35.8596 8.35192C35.8596 8.32857 35.8596 8.3052 35.8596 8.28185C35.8829 8.28185 35.9064 8.28185 35.9297 8.28185C35.9267 8.25869 35.9325 8.23824 35.9472 8.22053C35.9877 8.21182 36.0285 8.20891 36.0699 8.21177C36.0699 8.18842 36.0699 8.16505 36.0699 8.14169C36.0932 8.14169 36.1166 8.14169 36.1399 8.14169C36.1399 8.11834 36.1399 8.09497 36.1399 8.07162C36.1632 8.07162 36.1867 8.07162 36.21 8.07162C36.207 8.04846 36.2128 8.02801 36.2275 8.0103C36.268 8.0016 36.3088 7.99869 36.3502 8.00154C36.3502 7.97819 36.3502 7.95482 36.3502 7.93147C36.3735 7.93147 36.3969 7.93147 36.4202 7.93147C36.4202 7.90811 36.4202 7.88474 36.4202 7.86139C36.4435 7.86139 36.467 7.86139 36.4903 7.86139C36.4873 7.83823 36.4931 7.81779 36.5078 7.80008C36.5483 7.79137 36.5891 7.78846 36.6305 7.79132C36.6305 7.76796 36.6305 7.74459 36.6305 7.72124C36.6538 7.72124 36.6772 7.72124 36.7005 7.72124C36.7005 7.69789 36.7005 7.67452 36.7005 7.65116C36.7238 7.65116 36.7473 7.65116 36.7706 7.65116C36.7676 7.628 36.7734 7.60756 36.7881 7.58985C36.8286 7.58114 36.8694 7.57823 36.9108 7.58109C36.9108 7.55774 36.9108 7.53437 36.9108 7.51101C36.9341 7.51101 36.9575 7.51101 36.9808 7.51101C36.9808 7.48766 36.9808 7.46429 36.9808 7.44094C37.0041 7.44094 37.0276 7.44094 37.0509 7.44094C37.0509 7.41758 37.0509 7.39421 37.0509 7.37086C37.0742 7.37086 37.0977 7.37086 37.121 7.37086C37.118 7.3477 37.1238 7.32726 37.1385 7.30955C37.179 7.30084 37.2198 7.29793 37.2611 7.30079C37.2611 7.27743 37.2611 7.25406 37.2611 7.23071C37.2844 7.23071 37.3079 7.23071 37.3312 7.23071C37.3312 7.20736 37.3312 7.18399 37.3312 7.16063C37.3545 7.16063 37.378 7.16063 37.4013 7.16063C37.3983 7.13747 37.4041 7.11703 37.4188 7.09932C37.4593 7.09061 37.5001 7.0877 37.5414 7.09056C37.5414 7.06721 37.5414 7.04384 37.5414 7.02048C37.5647 7.02048 37.5882 7.02048 37.6115 7.02048C37.6115 6.99713 37.6115 6.97376 37.6115 6.95041C37.6348 6.95041 37.6583 6.95041 37.6816 6.95041C37.6816 6.92705 37.6816 6.90368 37.6816 6.88033C37.7049 6.88033 37.7284 6.88033 37.7517 6.88033C37.7487 6.85717 37.7545 6.83673 37.7692 6.81901C37.8097 6.81031 37.8505 6.8074 37.8918 6.81026C37.8918 6.7869 37.8918 6.76353 37.8918 6.74018C37.9151 6.74018 37.9386 6.74018 37.9619 6.74018C37.9619 6.71683 37.9619 6.69346 37.9619 6.6701C37.9852 6.6701 38.0087 6.6701 38.032 6.6701C38.032 6.64675 38.032 6.62338 38.032 6.60003C38.0553 6.60003 38.0788 6.60003 38.1021 6.60003C38.1021 6.57668 38.1021 6.55331 38.1021 6.52995C38.1254 6.52995 38.1488 6.52995 38.1721 6.52995C38.1692 6.50679 38.1749 6.48635 38.1896 6.46864C38.2301 6.45993 38.2709 6.45702 38.3123 6.45988C38.3123 6.43652 38.3123 6.41315 38.3123 6.3898C38.3356 6.3898 38.3591 6.3898 38.3824 6.3898C38.3824 6.36645 38.3824 6.34308 38.3824 6.31973C38.4057 6.31973 38.4291 6.31973 38.4524 6.31973C38.4524 6.29637 38.4524 6.273 38.4524 6.24965C38.4757 6.24965 38.4992 6.24965 38.5225 6.24965C38.5225 6.2263 38.5225 6.20293 38.5225 6.17957C38.5458 6.17957 38.5693 6.17957 38.5926 6.17957C38.5868 6.12702 38.6101 6.10366 38.6627 6.1095C38.6597 6.08634 38.6655 6.06589 38.6802 6.04818C38.7206 6.03947 38.7615 6.03657 38.8028 6.03942C38.8028 6.01607 38.8028 5.9927 38.8028 5.96935C38.8261 5.96935 38.8496 5.96935 38.8729 5.96935C38.8729 5.94599 38.8729 5.92262 38.8729 5.89927C38.8962 5.89927 38.9197 5.89927 38.943 5.89927C38.943 5.87592 38.943 5.85255 38.943 5.8292C38.9663 5.8292 38.9897 5.8292 39.013 5.8292C39.013 5.80584 39.013 5.78247 39.013 5.75912C39.0363 5.75912 39.0598 5.75912 39.0831 5.75912C39.0831 5.73577 39.0831 5.7124 39.0831 5.68904C39.1064 5.68904 39.1299 5.68904 39.1532 5.68904C39.1532 5.66569 39.1532 5.64232 39.1532 5.61897C39.1765 5.61897 39.2 5.61897 39.2233 5.61897C39.2175 5.56641 39.2408 5.54306 39.2933 5.54889C39.2904 5.52573 39.2961 5.50529 39.3109 5.48758C39.3513 5.47887 39.3921 5.47596 39.4335 5.47882C39.4335 5.45546 39.4335 5.43209 39.4335 5.40874C39.4568 5.40874 39.4803 5.40874 39.5036 5.40874C39.5036 5.38539 39.5036 5.36202 39.5036 5.33866C39.5269 5.33866 39.5503 5.33866 39.5736 5.33866C39.5736 5.31531 39.5736 5.29194 39.5736 5.26859C39.5969 5.26859 39.6204 5.26859 39.6437 5.26859C39.6437 5.24524 39.6437 5.22187 39.6437 5.19851C39.667 5.19851 39.6905 5.19851 39.7138 5.19851C39.7138 5.17516 39.7138 5.15179 39.7138 5.12844C39.7371 5.12844 39.7606 5.12844 39.7839 5.12844C39.7839 5.10508 39.7839 5.08171 39.7839 5.05836C39.8072 5.05836 39.8306 5.05836 39.8539 5.05836C39.8539 5.03501 39.8539 5.01164 39.8539 4.98829C39.8772 4.98829 39.9007 4.98829 39.924 4.98829C39.924 4.96493 39.924 4.94156 39.924 4.91821C39.9473 4.91821 39.9708 4.91821 39.9941 4.91821C39.9941 4.89486 39.9941 4.87149 39.9941 4.84813C40.0174 4.84813 40.0409 4.84813 40.0642 4.84813C40.0642 4.82478 40.0642 4.80141 40.0642 4.77806C40.0875 4.77806 40.111 4.77806 40.1343 4.77806C40.1343 4.75471 40.1343 4.73134 40.1343 4.70798C40.1576 4.70798 40.181 4.70798 40.2043 4.70798C40.2043 4.68462 40.2043 4.66127 40.2043 4.63791C40.2276 4.63791 40.2511 4.63791 40.2744 4.63791C40.2744 4.61455 40.2744 4.59119 40.2744 4.56783C40.2977 4.56783 40.3212 4.56783 40.3445 4.56783C40.3445 4.54447 40.3445 4.52111 40.3445 4.49776C40.3678 4.49776 40.3913 4.49776 40.4146 4.49776C40.4146 4.4744 40.4146 4.45104 40.4146 4.42768C40.4379 4.42768 40.4613 4.42768 40.4846 4.42768C40.4846 4.40432 40.4846 4.38096 40.4846 4.3576C40.5079 4.3576 40.5314 4.3576 40.5547 4.3576C40.5547 4.33425 40.5547 4.31089 40.5547 4.28753C40.578 4.28753 40.6015 4.28753 40.6248 4.28753C40.6248 4.26417 40.6248 4.24081 40.6248 4.21745C40.6481 4.21745 40.6716 4.21745 40.6949 4.21745C40.6949 4.19409 40.6949 4.17073 40.6949 4.14738C40.7182 4.14738 40.7416 4.14738 40.7649 4.14738C40.7649 4.12402 40.7649 4.10066 40.7649 4.0773C40.7882 4.0773 40.8117 4.0773 40.835 4.0773C40.835 4.05394 40.835 4.03058 40.835 4.00723C40.8583 4.00723 40.8818 4.00723 40.9051 4.00723C40.9051 3.98387 40.9051 3.96051 40.9051 3.93715C40.9284 3.93715 40.9519 3.93715 40.9752 3.93715C40.9724 3.89586 40.9752 3.85498 40.9839 3.81452C41.0016 3.79986 41.0221 3.79402 41.0452 3.797C41.0395 3.74444 41.0628 3.72108 41.1153 3.72692C41.1153 3.70356 41.1153 3.6802 41.1153 3.65685C41.1386 3.65685 41.1621 3.65685 41.1854 3.65685C41.1854 3.63349 41.1854 3.61013 41.1854 3.58677C41.2087 3.58677 41.2322 3.58677 41.2555 3.58677C41.2555 3.56341 41.2555 3.54005 41.2555 3.5167C41.2788 3.5167 41.3022 3.5167 41.3255 3.5167C41.3227 3.47541 41.3255 3.43453 41.3343 3.39406C41.352 3.37941 41.3725 3.37357 41.3956 3.37654C41.3956 3.35319 41.3956 3.32983 41.3956 3.30647C41.4189 3.30647 41.4424 3.30647 41.4657 3.30647C41.4657 3.28311 41.4657 3.25975 41.4657 3.23639C41.489 3.23639 41.5125 3.23639 41.5358 3.23639C41.533 3.1951 41.5358 3.15423 41.5445 3.11376C41.5622 3.0991 41.5827 3.09326 41.6058 3.09624C41.6058 3.07288 41.6058 3.04952 41.6058 3.02616C41.6405 3.03218 41.664 3.0205 41.6759 2.99113Z" fill="black"/>
<path opacity="0.992" fill-rule="evenodd" clip-rule="evenodd" d="M16.9391 44.7564C16.8223 44.7564 16.7055 44.7564 16.5887 44.7564C16.5887 44.7213 16.5887 44.6863 16.5887 44.6513C16.5655 44.6542 16.5451 44.6485 16.5274 44.6337C16.5186 44.5698 16.5157 44.5055 16.5186 44.441C16.4953 44.441 16.4719 44.441 16.4485 44.441C16.4485 44.3943 16.4485 44.3477 16.4485 44.3009C16.4254 44.3039 16.4049 44.2981 16.3872 44.2834C16.3785 44.2194 16.3756 44.1551 16.3785 44.0907C16.3551 44.0907 16.3317 44.0907 16.3084 44.0907C16.3084 44.0439 16.3084 43.9973 16.3084 43.9505C16.285 43.9505 16.2617 43.9505 16.2383 43.9505C16.2383 43.9272 16.2383 43.9037 16.2383 43.8804C16.2151 43.8834 16.1947 43.8776 16.177 43.8629C16.1683 43.8224 16.1654 43.7816 16.1682 43.7403C16.1449 43.7403 16.1215 43.7403 16.0982 43.7403C16.0982 43.6935 16.0982 43.6469 16.0982 43.6001C16.0748 43.6001 16.0514 43.6001 16.0281 43.6001C16.0281 43.5533 16.0281 43.5067 16.0281 43.46C16.0047 43.46 15.9814 43.46 15.958 43.46C15.958 43.4367 15.958 43.4132 15.958 43.3899C15.9347 43.3899 15.9113 43.3899 15.8879 43.3899C15.8879 43.3431 15.8879 43.2965 15.8879 43.2497C15.8646 43.2497 15.8412 43.2497 15.8179 43.2497C15.8179 43.2264 15.8179 43.203 15.8179 43.1797C15.7947 43.1826 15.7743 43.1769 15.7565 43.1621C15.7478 43.1217 15.7449 43.0809 15.7478 43.0395C15.7244 43.0395 15.7011 43.0395 15.6777 43.0395C15.6777 43.0162 15.6777 42.9927 15.6777 42.9694C15.6545 42.9724 15.6341 42.9666 15.6164 42.9519C15.6077 42.9115 15.6048 42.8706 15.6076 42.8293C15.5843 42.8293 15.5609 42.8293 15.5376 42.8293C15.5376 42.806 15.5376 42.7825 15.5376 42.7592C15.5142 42.7592 15.4908 42.7592 15.4675 42.7592C15.4675 42.7124 15.4675 42.6658 15.4675 42.6191C15.4441 42.6191 15.4208 42.6191 15.3974 42.6191C15.3974 42.5958 15.3974 42.5723 15.3974 42.549C15.374 42.549 15.3507 42.549 15.3273 42.549C15.3273 42.5257 15.3273 42.5022 15.3273 42.4789C15.304 42.4789 15.2806 42.4789 15.2572 42.4789C15.2572 42.4321 15.2572 42.3855 15.2572 42.3388C15.2339 42.3388 15.2105 42.3388 15.1872 42.3388C15.1872 42.3155 15.1872 42.292 15.1872 42.2687C15.1638 42.2687 15.1404 42.2687 15.1171 42.2687C15.1171 42.2454 15.1171 42.2219 15.1171 42.1986C15.0937 42.1986 15.0704 42.1986 15.047 42.1986C15.047 42.1753 15.047 42.1518 15.047 42.1285C15.0239 42.1315 15.0034 42.1257 14.9857 42.111C14.977 42.0705 14.9741 42.0297 14.9769 41.9884C14.9536 41.9884 14.9302 41.9884 14.9069 41.9884C14.9069 41.9651 14.9069 41.9416 14.9069 41.9183C14.8835 41.9183 14.8601 41.9183 14.8368 41.9183C14.8368 41.895 14.8368 41.8715 14.8368 41.8482C14.7842 41.854 14.7609 41.8307 14.7667 41.7782C14.7436 41.7811 14.7231 41.7754 14.7054 41.7606C14.6967 41.7202 14.6938 41.6793 14.6966 41.638C14.6733 41.638 14.6499 41.638 14.6266 41.638C14.6266 41.6147 14.6266 41.5912 14.6266 41.5679C14.6032 41.5679 14.5798 41.5679 14.5565 41.5679C14.5565 41.5446 14.5565 41.5211 14.5565 41.4978C14.5331 41.4978 14.5098 41.4978 14.4864 41.4978C14.4864 41.4745 14.4864 41.4511 14.4864 41.4278C14.4339 41.4336 14.4105 41.4103 14.4163 41.3577C14.3932 41.3607 14.3727 41.3549 14.355 41.3402C14.3463 41.2997 14.3434 41.2589 14.3463 41.2175C14.3229 41.2175 14.2995 41.2175 14.2762 41.2175C14.2762 41.1942 14.2762 41.1708 14.2762 41.1475C14.2528 41.1475 14.2295 41.1475 14.2061 41.1475C14.2061 41.1242 14.2061 41.1007 14.2061 41.0774C14.1828 41.0774 14.1594 41.0774 14.136 41.0774C14.136 41.0541 14.136 41.0306 14.136 41.0073C14.1127 41.0073 14.0893 41.0073 14.066 41.0073C14.066 40.984 14.066 40.9605 14.066 40.9372C14.0426 40.9372 14.0192 40.9372 13.9959 40.9372C13.9959 40.9139 13.9959 40.8905 13.9959 40.8672C13.9433 40.8729 13.92 40.8496 13.9258 40.7971C13.9026 40.8001 13.8822 40.7943 13.8645 40.7796C13.8558 40.7391 13.8529 40.6983 13.8557 40.6569C13.8324 40.6569 13.809 40.6569 13.7857 40.6569C13.7857 40.6336 13.7857 40.6102 13.7857 40.5869C13.7623 40.5869 13.7389 40.5869 13.7156 40.5869C13.7156 40.5636 13.7156 40.5401 13.7156 40.5168C13.6922 40.5168 13.6689 40.5168 13.6455 40.5168C13.6455 40.4935 13.6455 40.47 13.6455 40.4467C13.6222 40.4467 13.5988 40.4467 13.5754 40.4467C13.5754 40.4234 13.5754 40.3999 13.5754 40.3766C13.5521 40.3766 13.5287 40.3766 13.5054 40.3766C13.5054 40.3533 13.5054 40.3299 13.5054 40.3066C13.482 40.3066 13.4586 40.3066 13.4353 40.3066C13.4353 40.2833 13.4353 40.2598 13.4353 40.2365C13.4119 40.2365 13.3886 40.2365 13.3652 40.2365C13.3652 40.2132 13.3652 40.1897 13.3652 40.1664C13.3419 40.1664 13.3185 40.1664 13.2951 40.1664C13.2951 40.1431 13.2951 40.1196 13.2951 40.0963C13.2718 40.0963 13.2484 40.0963 13.2251 40.0963C13.2251 40.073 13.2251 40.0496 13.2251 40.0263C13.2017 40.0263 13.1783 40.0263 13.155 40.0263C13.155 40.003 13.155 39.9795 13.155 39.9562C13.1316 39.9562 13.1083 39.9562 13.0849 39.9562C13.0849 39.9329 13.0849 39.9094 13.0849 39.8861C13.0615 39.8861 13.0382 39.8861 13.0148 39.8861C13.0148 39.8628 13.0148 39.8393 13.0148 39.816C12.9915 39.816 12.9681 39.816 12.9447 39.816C12.9447 39.7927 12.9447 39.7693 12.9447 39.746C12.8922 39.7517 12.8688 39.7284 12.8747 39.6759C12.8221 39.6817 12.7988 39.6584 12.8046 39.6058C12.752 39.6116 12.7287 39.5883 12.7345 39.5357C12.682 39.5415 12.6586 39.5182 12.6644 39.4657C12.6119 39.4714 12.5885 39.4481 12.5944 39.3956C12.5418 39.4014 12.5185 39.3781 12.5243 39.3255C12.4717 39.3313 12.4484 39.308 12.4542 39.2554C12.4017 39.2612 12.3783 39.2379 12.3841 39.1854C12.3608 39.1854 12.3374 39.1854 12.3141 39.1854C12.3141 39.1621 12.3141 39.1386 12.3141 39.1153C12.2907 39.1153 12.2673 39.1153 12.244 39.1153C12.244 39.092 12.244 39.0685 12.244 39.0452C12.2206 39.0452 12.1973 39.0452 12.1739 39.0452C12.1739 39.0219 12.1739 38.9984 12.1739 38.9751C12.1506 38.9751 12.1272 38.9751 12.1038 38.9751C12.1038 38.9518 12.1038 38.9283 12.1038 38.905C12.0805 38.905 12.0571 38.905 12.0338 38.905C12.0338 38.8817 12.0338 38.8583 12.0338 38.835C12.0104 38.835 11.987 38.835 11.9637 38.835C11.9637 38.8117 11.9637 38.7882 11.9637 38.7649C11.9403 38.7649 11.917 38.7649 11.8936 38.7649C11.8936 38.7416 11.8936 38.7181 11.8936 38.6948C11.8703 38.6948 11.8469 38.6948 11.8235 38.6948C11.8235 38.6715 11.8235 38.648 11.8235 38.6247C11.8002 38.6247 11.7768 38.6247 11.7535 38.6247C11.7535 38.6014 11.7535 38.578 11.7535 38.5547C11.7301 38.5547 11.7067 38.5547 11.6834 38.5547C11.6834 38.5314 11.6834 38.5079 11.6834 38.4846C11.66 38.4846 11.6367 38.4846 11.6133 38.4846C11.6133 38.4613 11.6133 38.4378 11.6133 38.4145C11.59 38.4145 11.5666 38.4145 11.5432 38.4145C11.5432 38.3912 11.5432 38.3677 11.5432 38.3444C11.5199 38.3444 11.4965 38.3444 11.4732 38.3444C11.4732 38.3211 11.4732 38.2977 11.4732 38.2744C11.4498 38.2744 11.4264 38.2744 11.4031 38.2744C11.4031 38.2511 11.4031 38.2276 11.4031 38.2043C11.3618 38.2071 11.3209 38.2043 11.2804 38.1955C11.2658 38.1778 11.26 38.1573 11.2629 38.1342C11.2104 38.14 11.187 38.1167 11.1929 38.0641C11.1403 38.0699 11.1169 38.0466 11.1228 37.9941C11.0994 37.9941 11.0761 37.9941 11.0527 37.9941C11.0527 37.9708 11.0527 37.9473 11.0527 37.924C11.0294 37.924 11.006 37.924 10.9826 37.924C10.9826 37.9007 10.9826 37.8772 10.9826 37.8539C10.9593 37.8539 10.9359 37.8539 10.9126 37.8539C10.9126 37.8306 10.9126 37.8071 10.9126 37.7838C10.8892 37.7838 10.8658 37.7838 10.8425 37.7838C10.8425 37.7605 10.8425 37.7371 10.8425 37.7138C10.8191 37.7138 10.7958 37.7138 10.7724 37.7138C10.7724 37.6905 10.7724 37.667 10.7724 37.6437C10.749 37.6437 10.7257 37.6437 10.7023 37.6437C10.7023 37.6204 10.7023 37.5969 10.7023 37.5736C10.661 37.5764 10.6202 37.5736 10.5797 37.5648C10.565 37.5472 10.5592 37.5267 10.5622 37.5035C10.5096 37.5093 10.4863 37.486 10.4921 37.4335C10.4687 37.4335 10.4454 37.4335 10.422 37.4335C10.422 37.4102 10.422 37.3867 10.422 37.3634C10.3987 37.3634 10.3753 37.3634 10.3519 37.3634C10.3519 37.3401 10.3519 37.3166 10.3519 37.2933C10.3286 37.2933 10.3052 37.2933 10.2819 37.2933C10.2819 37.27 10.2819 37.2465 10.2819 37.2232C10.2585 37.2232 10.2351 37.2232 10.2118 37.2232C10.2118 37.1999 10.2118 37.1765 10.2118 37.1532C10.1884 37.1532 10.1651 37.1532 10.1417 37.1532C10.1417 37.1299 10.1417 37.1064 10.1417 37.0831C10.1004 37.0859 10.0596 37.0831 10.0191 37.0743C10.0044 37.0566 9.99859 37.0361 10.0016 37.013C9.94901 37.0188 9.92566 36.9955 9.93149 36.9429C9.90814 36.9429 9.88477 36.9429 9.86141 36.9429C9.86141 36.9196 9.86141 36.8962 9.86141 36.8729C9.83806 36.8729 9.81469 36.8729 9.79134 36.8729C9.79134 36.8496 9.79134 36.8261 9.79134 36.8028C9.76799 36.8028 9.74462 36.8028 9.72126 36.8028C9.72126 36.7795 9.72126 36.756 9.72126 36.7327C9.69791 36.7327 9.67454 36.7327 9.65119 36.7327C9.65119 36.7094 9.65119 36.6859 9.65119 36.6626C9.6099 36.6654 9.56902 36.6626 9.52856 36.6539C9.51389 36.6362 9.50806 36.6157 9.51104 36.5925C9.45848 36.5983 9.43513 36.575 9.44096 36.5225C9.41761 36.5225 9.39424 36.5225 9.37088 36.5225C9.37088 36.4992 9.37088 36.4757 9.37088 36.4524C9.34753 36.4524 9.32416 36.4524 9.30081 36.4524C9.30081 36.4291 9.30081 36.4056 9.30081 36.3823C9.27746 36.3823 9.25409 36.3823 9.23073 36.3823C9.23073 36.359 9.23073 36.3355 9.23073 36.3122C9.20738 36.3122 9.18401 36.3122 9.16066 36.3122C9.16066 36.2889 9.16066 36.2655 9.16066 36.2422C9.11937 36.245 9.07849 36.2422 9.03802 36.2334C9.02336 36.2157 9.01753 36.1952 9.02051 36.1721C8.99715 36.1721 8.97378 36.1721 8.95043 36.1721C8.95043 36.1488 8.95043 36.1253 8.95043 36.102C8.92708 36.102 8.90371 36.102 8.88035 36.102C8.88035 36.0787 8.88035 36.0552 8.88035 36.0319C8.857 36.0319 8.83363 36.0319 8.81028 36.0319C8.81028 36.0086 8.81028 35.9852 8.81028 35.9619C8.76899 35.9647 8.72811 35.9619 8.68765 35.9531C8.67298 35.9354 8.66715 35.9149 8.67013 35.8918C8.61757 35.8976 8.59422 35.8743 8.60005 35.8217C8.5767 35.8217 8.55333 35.8217 8.52998 35.8217C8.52998 35.7984 8.52998 35.7749 8.52998 35.7516C8.50662 35.7516 8.48325 35.7516 8.4599 35.7516C8.4599 35.7283 8.4599 35.7049 8.4599 35.6816C8.43655 35.6816 8.41318 35.6816 8.38982 35.6816C8.38982 35.6583 8.38982 35.6348 8.38982 35.6115C8.34853 35.6143 8.30766 35.6115 8.26719 35.6027C8.25253 35.585 8.24669 35.5645 8.24967 35.5414C8.22632 35.5414 8.20295 35.5414 8.1796 35.5414C8.1796 35.5181 8.1796 35.4946 8.1796 35.4713C8.15624 35.4713 8.13287 35.4713 8.10952 35.4713C8.10952 35.448 8.10952 35.4246 8.10952 35.4013C8.08617 35.4013 8.0628 35.4013 8.03945 35.4013C8.03945 35.378 8.03945 35.3545 8.03945 35.3312C8.01609 35.3312 7.99272 35.3312 7.96937 35.3312C7.96937 35.3079 7.96937 35.2844 7.96937 35.2611C7.92808 35.2639 7.88721 35.2611 7.84674 35.2523C7.83207 35.2347 7.82624 35.2142 7.82922 35.191C7.80587 35.191 7.7825 35.191 7.75914 35.191C7.75914 35.1677 7.75914 35.1443 7.75914 35.121C7.73579 35.121 7.71242 35.121 7.68907 35.121C7.68907 35.0977 7.68907 35.0742 7.68907 35.0509C7.66571 35.0509 7.64234 35.0509 7.61899 35.0509C7.61899 35.0276 7.61899 35.0041 7.61899 34.9808C7.59564 34.9808 7.57227 34.9808 7.54892 34.9808C7.54892 34.9575 7.54892 34.934 7.54892 34.9107C7.52556 34.9107 7.50219 34.9107 7.47884 34.9107C7.47884 34.8874 7.47884 34.864 7.47884 34.8407C7.43755 34.8435 7.39668 34.8407 7.35621 34.8319C7.34154 34.8142 7.33571 34.7937 7.33869 34.7706C7.28613 34.7764 7.26278 34.7531 7.26861 34.7005C7.24526 34.7005 7.22189 34.7005 7.19854 34.7005C7.19854 34.6772 7.19854 34.6537 7.19854 34.6304C7.17518 34.6304 7.15181 34.6304 7.12846 34.6304C7.12846 34.6071 7.12846 34.5837 7.12846 34.5604C7.10511 34.5604 7.08174 34.5604 7.05838 34.5604C7.05838 34.5371 7.05838 34.5136 7.05838 34.4903C7.03503 34.4903 7.01166 34.4903 6.98831 34.4903C6.98831 34.467 6.98831 34.4435 6.98831 34.4202C6.96496 34.4202 6.94159 34.4202 6.91823 34.4202C6.91823 34.3969 6.91823 34.3734 6.91823 34.3501C6.89488 34.3501 6.87151 34.3501 6.84816 34.3501C6.84816 34.3268 6.84816 34.3033 6.84816 34.28C6.8248 34.28 6.80143 34.28 6.77808 34.28C6.77808 34.2567 6.77808 34.2333 6.77808 34.21C6.75473 34.21 6.73136 34.21 6.70801 34.21C6.70801 34.1867 6.70801 34.1632 6.70801 34.1399C6.68465 34.1399 6.66129 34.1399 6.63793 34.1399C6.63793 34.1166 6.63793 34.0931 6.63793 34.0698C6.61457 34.0698 6.59121 34.0698 6.56785 34.0698C6.56785 34.0465 6.56785 34.023 6.56785 33.9997C6.5445 33.9997 6.52114 33.9997 6.49778 33.9997C6.49778 33.9764 6.49778 33.953 6.49778 33.9297C6.47442 33.9297 6.45106 33.9297 6.4277 33.9297C6.4277 33.9064 6.4277 33.8829 6.4277 33.8596C6.40434 33.8596 6.38099 33.8596 6.35763 33.8596C6.35763 33.8363 6.35763 33.8128 6.35763 33.7895C6.33427 33.7895 6.31091 33.7895 6.28755 33.7895C6.28755 33.7662 6.28755 33.7427 6.28755 33.7194C6.23499 33.7252 6.21164 33.7019 6.21748 33.6494C6.19431 33.6523 6.17388 33.6466 6.15616 33.6318C6.14746 33.5914 6.14454 33.5506 6.1474 33.5092C6.12404 33.5092 6.10068 33.5092 6.07732 33.5092C6.07732 33.4859 6.07732 33.4624 6.07732 33.4391C6.05397 33.4391 6.03061 33.4391 6.00725 33.4391C6.00725 33.4158 6.00725 33.3924 6.00725 33.3691C5.98389 33.3691 5.96053 33.3691 5.93717 33.3691C5.93717 33.3458 5.93717 33.3223 5.93717 33.299C5.91401 33.302 5.89357 33.2962 5.87586 33.2815C5.86716 33.241 5.86424 33.2002 5.8671 33.1588C5.84374 33.1588 5.82038 33.1588 5.79702 33.1588C5.79702 33.1355 5.79702 33.1121 5.79702 33.0888C5.77366 33.0888 5.7503 33.0888 5.72695 33.0888C5.72695 33.042 5.72695 32.9954 5.72695 32.9486C5.70359 32.9486 5.68023 32.9486 5.65687 32.9486C5.65687 32.9253 5.65687 32.9018 5.65687 32.8785C5.63371 32.8815 5.61327 32.8757 5.59555 32.861C5.58685 32.8205 5.58393 32.7797 5.58679 32.7384C5.56344 32.7384 5.54008 32.7384 5.51672 32.7384C5.51672 32.6916 5.51672 32.645 5.51672 32.5982C5.49336 32.5982 5.47 32.5982 5.44664 32.5982C5.44664 32.5515 5.44664 32.5049 5.44664 32.4581C5.42328 32.4581 5.39992 32.4581 5.37657 32.4581C5.37657 32.4113 5.37657 32.3647 5.37657 32.3179C5.35321 32.3179 5.32985 32.3179 5.30649 32.3179C5.30649 32.2711 5.30649 32.2246 5.30649 32.1778C5.28333 32.1808 5.26289 32.175 5.24517 32.1603C5.23644 32.0963 5.23352 32.032 5.23642 31.9675C5.21306 31.9675 5.1897 31.9675 5.16634 31.9675C5.16634 31.8975 5.16634 31.8274 5.16634 31.7573C5.14318 31.7603 5.12274 31.7545 5.10502 31.7398C5.09627 31.6291 5.09335 31.518 5.09626 31.4069C5.07291 31.4069 5.04955 31.4069 5.02619 31.4069C5.03738 31.2365 5.0257 31.073 4.99115 30.9164C4.99115 30.4492 4.99115 29.9821 4.99115 29.5149C5.02582 29.3113 5.0375 29.1011 5.02619 28.8842C5.04955 28.8842 5.07291 28.8842 5.09626 28.8842C5.09626 28.7208 5.09626 28.5571 5.09626 28.3937C5.11962 28.3937 5.14298 28.3937 5.16634 28.3937C5.16634 28.2535 5.16634 28.1134 5.16634 27.9732C5.1897 27.9732 5.21306 27.9732 5.23642 27.9732C5.23642 27.8564 5.23642 27.7397 5.23642 27.6229C5.25977 27.6229 5.28313 27.6229 5.30649 27.6229C5.30649 27.4827 5.30649 27.3425 5.30649 27.2024C5.32985 27.2024 5.35321 27.2024 5.37657 27.2024C5.37657 27.0622 5.37657 26.9221 5.37657 26.7819C5.39992 26.7819 5.42328 26.7819 5.44664 26.7819C5.44664 26.6418 5.44664 26.5016 5.44664 26.3615C5.47 26.3615 5.49336 26.3615 5.51672 26.3615C5.5138 26.2271 5.51672 26.0927 5.52548 25.9585C5.54319 25.9438 5.56363 25.9381 5.58679 25.941C5.58679 25.8242 5.58679 25.7075 5.58679 25.5907C5.61015 25.5907 5.63351 25.5907 5.65687 25.5907C5.65687 25.4505 5.65687 25.3104 5.65687 25.1702C5.68023 25.1702 5.70359 25.1702 5.72695 25.1702C5.72695 25.03 5.72695 24.8899 5.72695 24.7497C5.7503 24.7497 5.77366 24.7497 5.79702 24.7497C5.79702 24.6096 5.79702 24.4694 5.79702 24.3293C5.82038 24.3293 5.84374 24.3293 5.8671 24.3293C5.8671 24.1891 5.8671 24.049 5.8671 23.9088C5.89045 23.9088 5.91381 23.9088 5.93717 23.9088C5.93426 23.7745 5.93718 23.6401 5.94593 23.5059C5.96365 23.4912 5.98409 23.4854 6.00725 23.4884C6.00725 23.3715 6.00725 23.2549 6.00725 23.138C6.03061 23.138 6.05397 23.138 6.07732 23.138C6.07732 22.9978 6.07732 22.8577 6.07732 22.7175C6.10068 22.7175 6.12404 22.7175 6.1474 22.7175C6.1474 22.5774 6.1474 22.4372 6.1474 22.2971C6.17076 22.2971 6.19412 22.2971 6.21748 22.2971C6.21748 22.1569 6.21748 22.0168 6.21748 21.8766C6.24083 21.8766 6.26419 21.8766 6.28755 21.8766C6.28464 21.7423 6.28756 21.6079 6.29631 21.4737C6.31403 21.459 6.33447 21.4532 6.35763 21.4562C6.35471 21.3218 6.35763 21.1874 6.36639 21.0532C6.3841 21.0385 6.40454 21.0328 6.4277 21.0357C6.4277 20.9189 6.4277 20.8022 6.4277 20.6853C6.45106 20.6853 6.47442 20.6853 6.49778 20.6853C6.49778 20.5452 6.49778 20.405 6.49778 20.2649C6.52114 20.2649 6.5445 20.2649 6.56785 20.2649C6.56785 20.1247 6.56785 19.9846 6.56785 19.8444C6.59121 19.8444 6.61457 19.8444 6.63793 19.8444C6.63793 19.7043 6.63793 19.5641 6.63793 19.424C6.66129 19.424 6.68465 19.424 6.70801 19.424C6.70509 19.2895 6.70801 19.1552 6.71677 19.0211C6.73448 19.0064 6.75492 19.0006 6.77808 19.0035C6.77517 18.8691 6.77808 18.7348 6.78684 18.6006C6.80455 18.5859 6.825 18.5801 6.84816 18.5831C6.84816 18.4663 6.84816 18.3495 6.84816 18.2327C6.87151 18.2327 6.89488 18.2327 6.91823 18.2327C6.91823 18.0925 6.91823 17.9524 6.91823 17.8122C6.94159 17.8122 6.96496 17.8122 6.98831 17.8122C6.98831 17.6721 6.98831 17.5319 6.98831 17.3918C7.01166 17.3918 7.03503 17.3918 7.05838 17.3918C7.05838 17.2516 7.05838 17.1115 7.05838 16.9713C7.08174 16.9713 7.10511 16.9713 7.12846 16.9713C7.12555 16.8369 7.12846 16.7026 7.13722 16.5684C7.15493 16.5537 7.17538 16.5479 7.19854 16.5509C7.19563 16.4164 7.19854 16.2821 7.2073 16.1479C7.22501 16.1333 7.24545 16.1274 7.26861 16.1304C7.26861 16.0136 7.26861 15.8968 7.26861 15.78C7.29197 15.78 7.31534 15.78 7.33869 15.78C7.33869 15.6399 7.33869 15.4997 7.33869 15.3596C7.36204 15.3596 7.38541 15.3596 7.40876 15.3596C7.40876 15.2194 7.40876 15.0793 7.40876 14.9391C7.43212 14.9391 7.45549 14.9391 7.47884 14.9391C7.47884 14.799 7.47884 14.6588 7.47884 14.5187C7.50219 14.5187 7.52556 14.5187 7.54892 14.5187C7.54601 14.3842 7.54891 14.2499 7.55767 14.1157C7.57539 14.1011 7.59583 14.0953 7.61899 14.0982C7.61608 13.9638 7.61899 13.8295 7.62775 13.6953C7.64546 13.6806 7.66591 13.6748 7.68907 13.6778C7.68907 13.561 7.68907 13.4442 7.68907 13.3274C7.71242 13.3274 7.73579 13.3274 7.75914 13.3274C7.75914 13.1872 7.75914 13.0471 7.75914 12.9069C7.7825 12.9069 7.80587 12.9069 7.82922 12.9069C7.82922 12.7668 7.82922 12.6266 7.82922 12.4865C7.85257 12.4865 7.87594 12.4865 7.89929 12.4865C7.89929 12.3463 7.89929 12.2062 7.89929 12.066C7.92265 12.066 7.94602 12.066 7.96937 12.066C7.96646 11.9316 7.96937 11.7973 7.97813 11.6631C7.99584 11.6484 8.01629 11.6426 8.03945 11.6456C8.03654 11.5111 8.03945 11.3768 8.0482 11.2426C8.06592 11.228 8.08636 11.2221 8.10952 11.2251C8.10952 11.1083 8.10952 10.9915 8.10952 10.8747C8.13287 10.8747 8.15624 10.8747 8.1796 10.8747C8.1796 10.7346 8.1796 10.5944 8.1796 10.4543C8.20295 10.4543 8.22632 10.4543 8.24967 10.4543C8.24967 10.3141 8.24967 10.174 8.24967 10.0338C8.27303 10.0338 8.2964 10.0338 8.31975 10.0338C8.31975 9.89368 8.31975 9.75353 8.31975 9.61338C8.3431 9.61338 8.36647 9.61338 8.38982 9.61338C8.38982 9.5433 8.38982 9.47323 8.38982 9.40315C8.50662 9.40315 8.6234 9.40315 8.7402 9.40315C8.7402 9.42651 8.7402 9.44988 8.7402 9.47323C8.76356 9.47323 8.78693 9.47323 8.81028 9.47323C8.81028 9.5433 8.81028 9.61338 8.81028 9.68346C8.83363 9.68346 8.857 9.68346 8.88035 9.68346C8.88035 9.75353 8.88035 9.82361 8.88035 9.89368C8.90371 9.89368 8.92708 9.89368 8.95043 9.89368C8.95043 9.94041 8.95043 9.98711 8.95043 10.0338C8.97359 10.0309 8.99403 10.0367 9.01175 10.0514C9.02045 10.0918 9.02336 10.1327 9.02051 10.174C9.04367 10.171 9.06411 10.1768 9.08182 10.1915C9.09053 10.232 9.09344 10.2728 9.09058 10.3141C9.11374 10.3112 9.13419 10.317 9.1519 10.3317C9.1606 10.3721 9.16351 10.413 9.16066 10.4543C9.18382 10.4513 9.20426 10.4571 9.22197 10.4718C9.23068 10.5123 9.23359 10.5531 9.23073 10.5944C9.25409 10.5944 9.27746 10.5944 9.30081 10.5944C9.30081 10.6412 9.30081 10.6879 9.30081 10.7346C9.32416 10.7346 9.34753 10.7346 9.37088 10.7346C9.37088 10.7579 9.37088 10.7813 9.37088 10.8047C9.39404 10.8017 9.41449 10.8075 9.4322 10.8222C9.44091 10.8627 9.44382 10.9035 9.44096 10.9448C9.46431 10.9448 9.48768 10.9448 9.51104 10.9448C9.51104 10.9915 9.51104 11.0382 9.51104 11.085C9.53439 11.085 9.55776 11.085 9.58111 11.085C9.58111 11.1083 9.58111 11.1317 9.58111 11.155C9.60446 11.155 9.62784 11.155 9.65119 11.155C9.65119 11.1784 9.65119 11.2018 9.65119 11.2251C9.67435 11.2221 9.69479 11.228 9.7125 11.2426C9.72121 11.2831 9.72412 11.324 9.72126 11.3653C9.74462 11.3653 9.76799 11.3653 9.79134 11.3653C9.79134 11.3886 9.79134 11.412 9.79134 11.4353C9.8145 11.4324 9.83494 11.4382 9.85266 11.4529C9.86136 11.4933 9.86427 11.5342 9.86141 11.5755C9.88477 11.5755 9.90814 11.5755 9.93149 11.5755C9.93149 11.5989 9.93149 11.6222 9.93149 11.6456C9.95484 11.6456 9.97821 11.6456 10.0016 11.6456C10.0016 11.6689 10.0016 11.6923 10.0016 11.7157C10.0247 11.7127 10.0452 11.7185 10.0629 11.7332C10.0716 11.7736 10.0745 11.8145 10.0716 11.8558C10.095 11.8558 10.1184 11.8558 10.1417 11.8558C10.1417 11.8792 10.1417 11.9025 10.1417 11.9259C10.1651 11.9259 10.1884 11.9259 10.2118 11.9259C10.2118 11.9492 10.2118 11.9726 10.2118 11.996C10.2351 11.996 10.2585 11.996 10.2819 11.996C10.2819 12.0193 10.2819 12.0427 10.2819 12.066C10.305 12.0631 10.3255 12.0689 10.3432 12.0836C10.3519 12.124 10.3548 12.1649 10.3519 12.2062C10.3753 12.2062 10.3987 12.2062 10.422 12.2062C10.422 12.2295 10.422 12.2529 10.422 12.2763C10.4454 12.2763 10.4687 12.2763 10.4921 12.2763C10.4921 12.2996 10.4921 12.323 10.4921 12.3463C10.5155 12.3463 10.5388 12.3463 10.5622 12.3463C10.5622 12.3697 10.5622 12.3931 10.5622 12.4164C10.6147 12.4106 10.6381 12.4339 10.6322 12.4865C10.6554 12.4835 10.6759 12.4893 10.6936 12.504C10.7023 12.5445 10.7052 12.5853 10.7023 12.6266C10.7257 12.6266 10.749 12.6266 10.7724 12.6266C10.7724 12.65 10.7724 12.6734 10.7724 12.6967C10.7958 12.6967 10.8191 12.6967 10.8425 12.6967C10.8425 12.7201 10.8425 12.7434 10.8425 12.7668C10.8658 12.7668 10.8892 12.7668 10.9126 12.7668C10.9126 12.7901 10.9126 12.8135 10.9126 12.8369C10.9359 12.8369 10.9593 12.8369 10.9826 12.8369C10.9826 12.8602 10.9826 12.8836 10.9826 12.9069C11.006 12.9069 11.0294 12.9069 11.0527 12.9069C11.0527 12.9303 11.0527 12.9537 11.0527 12.977C11.1053 12.9712 11.1286 12.9945 11.1228 13.0471C11.1459 13.0441 11.1664 13.0499 11.1841 13.0646C11.1928 13.1051 11.1957 13.146 11.1929 13.1872C11.2162 13.1872 11.2396 13.1872 11.2629 13.1872C11.2629 13.2106 11.2629 13.234 11.2629 13.2573C11.2863 13.2573 11.3097 13.2573 11.333 13.2573C11.333 13.2807 11.333 13.304 11.333 13.3274C11.3564 13.3274 11.3797 13.3274 11.4031 13.3274C11.4031 13.3507 11.4031 13.3741 11.4031 13.3975C11.4264 13.3975 11.4498 13.3975 11.4732 13.3975C11.4732 13.4208 11.4732 13.4442 11.4732 13.4675C11.4965 13.4675 11.5199 13.4675 11.5432 13.4675C11.5432 13.4909 11.5432 13.5143 11.5432 13.5376C11.5666 13.5376 11.59 13.5376 11.6133 13.5376C11.6133 13.561 11.6133 13.5843 11.6133 13.6077C11.6367 13.6077 11.66 13.6077 11.6834 13.6077C11.6834 13.6311 11.6834 13.6544 11.6834 13.6778C11.7067 13.6778 11.7301 13.6778 11.7535 13.6778C11.7535 13.7011 11.7535 13.7245 11.7535 13.7478C11.7768 13.7478 11.8002 13.7478 11.8235 13.7478C11.8235 13.7712 11.8235 13.7946 11.8235 13.8179C11.8469 13.8179 11.8703 13.8179 11.8936 13.8179C11.8936 13.8413 11.8936 13.8646 11.8936 13.888C11.917 13.888 11.9403 13.888 11.9637 13.888C11.9637 13.9114 11.9637 13.9347 11.9637 13.9581C11.987 13.9581 12.0104 13.9581 12.0338 13.9581C12.0338 13.9814 12.0338 14.0048 12.0338 14.0282C12.0571 14.0282 12.0805 14.0282 12.1038 14.0282C12.1038 14.0515 12.1038 14.0749 12.1038 14.0982C12.1272 14.0982 12.1506 14.0982 12.1739 14.0982C12.1739 14.1216 12.1739 14.145 12.1739 14.1683C12.2265 14.1625 12.2498 14.1858 12.244 14.2384C12.2965 14.2325 12.3199 14.2559 12.3141 14.3085C12.3666 14.3026 12.39 14.326 12.3841 14.3785C12.4367 14.3727 12.4601 14.396 12.4542 14.4486C12.5068 14.4428 12.5301 14.4661 12.5243 14.5187C12.5769 14.5128 12.6002 14.5362 12.5944 14.5888C12.6469 14.5829 12.6703 14.6063 12.6644 14.6588C12.6878 14.6588 12.7112 14.6588 12.7345 14.6588C12.7345 14.6822 12.7345 14.7056 12.7345 14.7289C12.7579 14.7289 12.7812 14.7289 12.8046 14.7289C12.8046 14.7523 12.8046 14.7756 12.8046 14.799C12.8279 14.799 12.8513 14.799 12.8747 14.799C12.8747 14.8223 12.8747 14.8457 12.8747 14.8691C12.898 14.8691 12.9214 14.8691 12.9447 14.8691C12.9447 14.8924 12.9447 14.9158 12.9447 14.9391C12.9681 14.9391 12.9915 14.9391 13.0148 14.9391C13.0148 14.9625 13.0148 14.9859 13.0148 15.0092C13.0382 15.0092 13.0615 15.0092 13.0849 15.0092C13.0849 15.0326 13.0849 15.0559 13.0849 15.0793C13.1083 15.0793 13.1316 15.0793 13.155 15.0793C13.155 15.1026 13.155 15.126 13.155 15.1494C13.1783 15.1494 13.2017 15.1494 13.2251 15.1494C13.2251 15.1727 13.2251 15.1961 13.2251 15.2194C13.2484 15.2194 13.2718 15.2194 13.2951 15.2194C13.2951 15.2428 13.2951 15.2662 13.2951 15.2895C13.3185 15.2895 13.3419 15.2895 13.3652 15.2895C13.3652 15.3129 13.3652 15.3362 13.3652 15.3596C13.3886 15.3596 13.4119 15.3596 13.4353 15.3596C13.4353 15.3829 13.4353 15.4063 13.4353 15.4297C13.4586 15.4297 13.482 15.4297 13.5054 15.4297C13.5054 15.453 13.5054 15.4764 13.5054 15.4997C13.5287 15.4997 13.5521 15.4997 13.5754 15.4997C13.5754 15.5231 13.5754 15.5465 13.5754 15.5698C13.5988 15.5698 13.6222 15.5698 13.6455 15.5698C13.6455 15.5932 13.6455 15.6165 13.6455 15.6399C13.6689 15.6399 13.6922 15.6399 13.7156 15.6399C13.7156 15.6632 13.7156 15.6866 13.7156 15.71C13.7569 15.7071 13.7977 15.71 13.8382 15.7187C13.8529 15.7364 13.8587 15.7569 13.8557 15.78C13.9083 15.7742 13.9316 15.7976 13.9258 15.8501C13.9784 15.8443 14.0017 15.8676 13.9959 15.9202C14.0192 15.9202 14.0426 15.9202 14.066 15.9202C14.066 15.9436 14.066 15.9669 14.066 15.9903C14.0893 15.9903 14.1127 15.9903 14.136 15.9903C14.136 16.0136 14.136 16.037 14.136 16.0603C14.1594 16.0603 14.1828 16.0603 14.2061 16.0603C14.2061 16.0837 14.2061 16.1071 14.2061 16.1304C14.2295 16.1304 14.2528 16.1304 14.2762 16.1304C14.2762 16.1538 14.2762 16.1771 14.2762 16.2005C14.2995 16.2005 14.3229 16.2005 14.3463 16.2005C14.3463 16.2239 14.3463 16.2472 14.3463 16.2706C14.3696 16.2706 14.393 16.2706 14.4163 16.2706C14.4163 16.2939 14.4163 16.3173 14.4163 16.3407C14.4397 16.3407 14.4631 16.3407 14.4864 16.3407C14.4864 16.364 14.4864 16.3874 14.4864 16.4107C14.5098 16.4107 14.5331 16.4107 14.5565 16.4107C14.5565 16.4341 14.5565 16.4575 14.5565 16.4808C14.5978 16.4779 14.6387 16.4809 14.6791 16.4896C14.6938 16.5073 14.6996 16.5277 14.6966 16.5509C14.7492 16.545 14.7726 16.5684 14.7667 16.621C14.7901 16.621 14.8134 16.621 14.8368 16.621C14.8368 16.6443 14.8368 16.6677 14.8368 16.691C14.8601 16.691 14.8835 16.691 14.9069 16.691C14.9069 16.7144 14.9069 16.7378 14.9069 16.7611C14.9302 16.7611 14.9536 16.7611 14.9769 16.7611C14.9769 16.7845 14.9769 16.8078 14.9769 16.8312C15.0003 16.8312 15.0237 16.8312 15.047 16.8312C15.047 16.8545 15.047 16.8779 15.047 16.9013C15.0704 16.9013 15.0937 16.9013 15.1171 16.9013C15.1171 16.9246 15.1171 16.948 15.1171 16.9713C15.1584 16.9685 15.1993 16.9714 15.2397 16.9801C15.2544 16.9978 15.2602 17.0182 15.2572 17.0414C15.3098 17.0356 15.3332 17.0589 15.3273 17.1115C15.3507 17.1115 15.374 17.1115 15.3974 17.1115C15.3974 17.1348 15.3974 17.1582 15.3974 17.1816C15.4208 17.1816 15.4441 17.1816 15.4675 17.1816C15.4675 17.2049 15.4675 17.2283 15.4675 17.2516C15.4908 17.2516 15.5142 17.2516 15.5376 17.2516C15.5376 17.275 15.5376 17.2984 15.5376 17.3217C15.5609 17.3217 15.5843 17.3217 15.6076 17.3217C15.6076 17.3451 15.6076 17.3684 15.6076 17.3918C15.631 17.3918 15.6544 17.3918 15.6777 17.3918C15.6777 17.4151 15.6777 17.4385 15.6777 17.4619C15.719 17.459 15.7599 17.4619 15.8003 17.4706C15.815 17.4883 15.8208 17.5088 15.8179 17.5319C15.8412 17.5319 15.8646 17.5319 15.8879 17.5319C15.8879 17.5553 15.8879 17.5787 15.8879 17.602C15.9113 17.602 15.9347 17.602 15.958 17.602C15.958 17.6254 15.958 17.6487 15.958 17.6721C15.9814 17.6721 16.0047 17.6721 16.0281 17.6721C16.0281 17.6954 16.0281 17.7188 16.0281 17.7422C16.0514 17.7422 16.0748 17.7422 16.0982 17.7422C16.0982 17.7655 16.0982 17.7889 16.0982 17.8122C16.1215 17.8122 16.1449 17.8122 16.1682 17.8122C16.1682 17.8356 16.1682 17.859 16.1682 17.8823C16.2095 17.8795 16.2504 17.8824 16.2909 17.8911C16.3055 17.9088 16.3114 17.9292 16.3084 17.9524C16.3317 17.9524 16.3551 17.9524 16.3785 17.9524C16.3785 17.9757 16.3785 17.9991 16.3785 18.0225C16.4018 18.0225 16.4252 18.0225 16.4485 18.0225C16.4485 18.0458 16.4485 18.0692 16.4485 18.0925C16.4719 18.0925 16.4953 18.0925 16.5186 18.0925C16.5186 18.1159 16.5186 18.1393 16.5186 18.1626C16.542 18.1626 16.5653 18.1626 16.5887 18.1626C16.5887 18.186 16.5887 18.2093 16.5887 18.2327C16.63 18.2298 16.6709 18.2327 16.7113 18.2415C16.726 18.2592 16.7318 18.2796 16.7288 18.3028C16.7522 18.3028 16.7756 18.3028 16.7989 18.3028C16.7989 18.3261 16.7989 18.3495 16.7989 18.3728C16.8223 18.3728 16.8456 18.3728 16.869 18.3728C16.869 18.3962 16.869 18.4196 16.869 18.4429C16.8923 18.4429 16.9157 18.4429 16.9391 18.4429C16.9391 18.4663 16.9391 18.4896 16.9391 18.513C16.9624 18.513 16.9858 18.513 17.0091 18.513C17.0091 18.5364 17.0091 18.5597 17.0091 18.5831C17.0325 18.5831 17.0559 18.5831 17.0792 18.5831C17.0792 18.6064 17.0792 18.6298 17.0792 18.6532C17.1026 18.6532 17.1259 18.6532 17.1493 18.6532C17.1493 18.6765 17.1493 18.6999 17.1493 18.7232C17.1906 18.7204 17.2315 18.7233 17.2719 18.732C17.2866 18.7497 17.2924 18.7701 17.2894 18.7933C17.342 18.7875 17.3654 18.8108 17.3595 18.8634C17.4121 18.8575 17.4354 18.8809 17.4296 18.9335C17.4822 18.9276 17.5055 18.951 17.4997 19.0035C17.5522 18.9977 17.5756 19.0211 17.5697 19.0736C17.6223 19.0678 17.6457 19.0911 17.6398 19.1437C17.6632 19.1437 17.6865 19.1437 17.7099 19.1437C17.7099 19.167 17.7099 19.1904 17.7099 19.2138C17.7333 19.2138 17.7566 19.2138 17.78 19.2138C17.78 19.2371 17.78 19.2605 17.78 19.2838C17.8033 19.2838 17.8267 19.2838 17.8501 19.2838C17.8501 19.3072 17.8501 19.3306 17.8501 19.3539C17.8734 19.3539 17.8968 19.3539 17.9201 19.3539C17.9201 19.3773 17.9201 19.4006 17.9201 19.424C17.9435 19.424 17.9669 19.424 17.9902 19.424C17.9902 19.4473 17.9902 19.4707 17.9902 19.4941C18.0428 19.4882 18.0661 19.5116 18.0603 19.5641C18.1128 19.5583 18.1362 19.5817 18.1304 19.6342C18.1829 19.6284 18.2063 19.6517 18.2004 19.7043C18.2236 19.7013 18.244 19.7071 18.2617 19.7218C18.2705 19.7623 18.2734 19.8031 18.2705 19.8444C18.2939 19.8444 18.3172 19.8444 18.3406 19.8444C18.3406 19.8678 18.3406 19.8912 18.3406 19.9145C18.3639 19.9145 18.3873 19.9145 18.4107 19.9145C18.4107 19.9379 18.4107 19.9612 18.4107 19.9846C18.434 19.9846 18.4574 19.9846 18.4807 19.9846C18.4807 20.0079 18.4807 20.0313 18.4807 20.0547C18.5041 20.0547 18.5275 20.0547 18.5508 20.0547C18.5508 20.078 18.5508 20.1014 18.5508 20.1247C18.5742 20.1247 18.5975 20.1247 18.6209 20.1247C18.6209 20.1481 18.6209 20.1715 18.6209 20.1948C18.6442 20.1948 18.6676 20.1948 18.691 20.1948C18.691 20.2182 18.691 20.2415 18.691 20.2649C18.7141 20.2619 18.7346 20.2677 18.7523 20.2824C18.761 20.3229 18.7639 20.3638 18.761 20.405C18.7844 20.405 18.8078 20.405 18.8311 20.405C18.8311 20.4284 18.8311 20.4518 18.8311 20.4751C18.8545 20.4751 18.8778 20.4751 18.9012 20.4751C18.9012 20.4985 18.9012 20.5219 18.9012 20.5452C18.9245 20.5452 18.9479 20.5452 18.9713 20.5452C18.9713 20.5685 18.9713 20.592 18.9713 20.6153C18.9944 20.6123 19.0149 20.6181 19.0326 20.6328C19.0413 20.6733 19.0442 20.7141 19.0413 20.7554C19.0647 20.7554 19.0881 20.7554 19.1114 20.7554C19.1114 20.7787 19.1114 20.8022 19.1114 20.8255C19.1348 20.8255 19.1581 20.8255 19.1815 20.8255C19.1815 20.8488 19.1815 20.8723 19.1815 20.8956C19.2047 20.8926 19.2251 20.8984 19.2428 20.9131C19.2515 20.9536 19.2544 20.9944 19.2516 21.0357C19.2749 21.0357 19.2983 21.0357 19.3216 21.0357C19.3216 21.059 19.3216 21.0825 19.3216 21.1058C19.3448 21.1028 19.3652 21.1086 19.383 21.1233C19.3917 21.1638 19.3946 21.2046 19.3917 21.246C19.4151 21.246 19.4384 21.246 19.4618 21.246C19.4618 21.2927 19.4618 21.3393 19.4618 21.3861C19.4851 21.3861 19.5085 21.3861 19.5319 21.3861C19.5319 21.4094 19.5319 21.4329 19.5319 21.4562C19.555 21.4532 19.5755 21.459 19.5932 21.4737C19.6019 21.5142 19.6048 21.555 19.6019 21.5963C19.6253 21.5963 19.6487 21.5963 19.672 21.5963C19.672 21.6431 19.672 21.6897 19.672 21.7365C19.6954 21.7365 19.7187 21.7365 19.7421 21.7365C19.7421 21.7833 19.7421 21.8299 19.7421 21.8766C19.7654 21.8766 19.7888 21.8766 19.8122 21.8766C19.8122 21.9234 19.8122 21.97 19.8122 22.0168C19.8355 22.0168 19.8589 22.0168 19.8822 22.0168C19.8822 22.0869 19.8822 22.1569 19.8822 22.227C19.9056 22.227 19.929 22.227 19.9523 22.227C19.9523 22.2738 19.9523 22.3204 19.9523 22.3672C19.9755 22.3642 19.9959 22.37 20.0136 22.3847C20.0224 22.4486 20.0253 22.5129 20.0224 22.5774C20.0456 22.5744 20.066 22.5802 20.0837 22.5949C20.0925 22.6823 20.0954 22.7699 20.0925 22.8577C20.1158 22.8577 20.1392 22.8577 20.1626 22.8577C20.1626 22.9746 20.1626 23.0912 20.1626 23.2081C20.1859 23.2081 20.2093 23.2081 20.2326 23.2081C20.2326 23.3715 20.2326 23.5352 20.2326 23.6986C20.256 23.6986 20.2794 23.6986 20.3027 23.6986C20.3027 24.1891 20.3027 24.6797 20.3027 25.1702C20.2794 25.1702 20.256 25.1702 20.2326 25.1702C20.2326 25.4037 20.2326 25.6374 20.2326 25.871C20.2093 25.871 20.1859 25.871 20.1626 25.871C20.1626 26.0579 20.1626 26.2446 20.1626 26.4316C20.1392 26.4316 20.1158 26.4316 20.0925 26.4316C20.0925 26.5717 20.0925 26.7119 20.0925 26.852C20.0691 26.852 20.0458 26.852 20.0224 26.852C20.0253 26.9864 20.0224 27.1208 20.0136 27.255C19.9959 27.2697 19.9755 27.2754 19.9523 27.2725C19.9552 27.4068 19.9523 27.5412 19.9436 27.6754C19.9259 27.6901 19.9054 27.6959 19.8822 27.6929C19.8822 27.8098 19.8822 27.9265 19.8822 28.0433C19.8589 28.0433 19.8355 28.0433 19.8122 28.0433C19.8122 28.1835 19.8122 28.3236 19.8122 28.4638C19.7888 28.4638 19.7654 28.4638 19.7421 28.4638C19.7421 28.6039 19.7421 28.7441 19.7421 28.8842C19.7187 28.8842 19.6954 28.8842 19.672 28.8842C19.672 29.0244 19.672 29.1645 19.672 29.3047C19.6487 29.3047 19.6253 29.3047 19.6019 29.3047C19.6049 29.439 19.6019 29.5734 19.5932 29.7076C19.5755 29.7223 19.555 29.7281 19.5319 29.7251C19.5348 29.8595 19.5319 29.9939 19.5231 30.1281C19.5054 30.1428 19.485 30.1486 19.4618 30.1456C19.4618 30.2624 19.4618 30.3791 19.4618 30.496C19.4384 30.496 19.4151 30.496 19.3917 30.496C19.3917 30.6361 19.3917 30.7763 19.3917 30.9164C19.3684 30.9164 19.345 30.9164 19.3216 30.9164C19.3216 31.0566 19.3216 31.1967 19.3216 31.3369C19.2983 31.3369 19.2749 31.3369 19.2516 31.3369C19.2516 31.477 19.2516 31.6172 19.2516 31.7573C19.2282 31.7573 19.2048 31.7573 19.1815 31.7573C19.1844 31.8917 19.1815 32.0261 19.1727 32.1603C19.155 32.175 19.1346 32.1808 19.1114 32.1778C19.1143 32.3121 19.1114 32.4465 19.1027 32.5807C19.0849 32.5954 19.0645 32.6012 19.0413 32.5982C19.0413 32.7151 19.0413 32.8318 19.0413 32.9486C19.018 32.9486 18.9946 32.9486 18.9713 32.9486C18.9713 33.0888 18.9713 33.2289 18.9713 33.3691C18.9479 33.3691 18.9245 33.3691 18.9012 33.3691C18.9012 33.5092 18.9012 33.6494 18.9012 33.7895C18.8778 33.7895 18.8545 33.7895 18.8311 33.7895C18.8311 33.9297 18.8311 34.0698 18.8311 34.21C18.8078 34.21 18.7844 34.21 18.761 34.21C18.7639 34.3443 18.761 34.4787 18.7523 34.6129C18.7346 34.6276 18.7141 34.6334 18.691 34.6304C18.6939 34.7648 18.691 34.8992 18.6822 35.0334C18.6645 35.0481 18.644 35.0539 18.6209 35.0509C18.6209 35.1677 18.6209 35.2844 18.6209 35.4013C18.5975 35.4013 18.5742 35.4013 18.5508 35.4013C18.5508 35.5414 18.5508 35.6816 18.5508 35.8217C18.5275 35.8217 18.5041 35.8217 18.4807 35.8217C18.4807 35.9619 18.4807 36.102 18.4807 36.2422C18.4574 36.2422 18.434 36.2422 18.4107 36.2422C18.4107 36.3823 18.4107 36.5225 18.4107 36.6626C18.3873 36.6626 18.3639 36.6626 18.3406 36.6626C18.3435 36.797 18.3406 36.9314 18.3318 37.0656C18.3141 37.0803 18.2937 37.0861 18.2705 37.0831C18.2705 37.1999 18.2705 37.3166 18.2705 37.4335C18.2472 37.4335 18.2238 37.4335 18.2004 37.4335C18.2004 37.5736 18.2004 37.7138 18.2004 37.8539C18.1771 37.8539 18.1537 37.8539 18.1304 37.8539C18.1304 37.9941 18.1304 38.1342 18.1304 38.2744C18.107 38.2744 18.0836 38.2744 18.0603 38.2744C18.0603 38.4145 18.0603 38.5547 18.0603 38.6948C18.0369 38.6948 18.0136 38.6948 17.9902 38.6948C17.9902 38.835 17.9902 38.9751 17.9902 39.1153C17.9669 39.1153 17.9435 39.1153 17.9201 39.1153C17.923 39.2496 17.9201 39.384 17.9114 39.5182C17.8937 39.5329 17.8732 39.5387 17.8501 39.5357C17.8501 39.6526 17.8501 39.7693 17.8501 39.8861C17.8267 39.8861 17.8033 39.8861 17.78 39.8861C17.78 40.0263 17.78 40.1664 17.78 40.3066C17.7566 40.3066 17.7333 40.3066 17.7099 40.3066C17.7099 40.4467 17.7099 40.5869 17.7099 40.727C17.6865 40.727 17.6632 40.727 17.6398 40.727C17.6398 40.8672 17.6398 41.0073 17.6398 41.1475C17.6165 41.1475 17.5931 41.1475 17.5697 41.1475C17.5697 41.2876 17.5697 41.4278 17.5697 41.5679C17.5464 41.5679 17.523 41.5679 17.4997 41.5679C17.5026 41.7023 17.4997 41.8367 17.4909 41.9709C17.4732 41.9856 17.4528 41.9914 17.4296 41.9884C17.4296 42.1052 17.4296 42.2219 17.4296 42.3388C17.4062 42.3388 17.3829 42.3388 17.3595 42.3388C17.3595 42.4789 17.3595 42.6191 17.3595 42.7592C17.3362 42.7592 17.3128 42.7592 17.2894 42.7592C17.2894 42.8994 17.2894 43.0395 17.2894 43.1797C17.2661 43.1797 17.2427 43.1797 17.2194 43.1797C17.2194 43.3198 17.2194 43.46 17.2194 43.6001C17.196 43.6001 17.1726 43.6001 17.1493 43.6001C17.1522 43.7345 17.1493 43.8689 17.1405 44.0031C17.1228 44.0178 17.1024 44.0236 17.0792 44.0206C17.0821 44.1549 17.0792 44.2893 17.0705 44.4235C17.0527 44.4382 17.0323 44.444 17.0091 44.441C17.0091 44.5344 17.0091 44.628 17.0091 44.7213C16.9744 44.7154 16.951 44.7269 16.9391 44.7564Z" fill="black"/>
</svg>
