<svg width="46" height="46" viewBox="0 0 46 46" fill="none" xmlns="http://www.w3.org/2000/svg">
<g clip-path="url(#clip0_96_822)">
<g clip-path="url(#clip1_96_822)">
<mask id="mask0_96_822" style="mask-type:luminance" maskUnits="userSpaceOnUse" x="4" y="7" width="216" height="33">
<path d="M220 7H4V39.0991H220V7Z" fill="white"/>
</mask>
<g mask="url(#mask0_96_822)">
<path d="M40.2887 32.3081L34.3637 38.661C34.2356 38.799 34.0804 38.9092 33.9078 38.9845C33.7352 39.0599 33.5489 39.0989 33.3606 39.099H5.27394C5.13999 39.099 5.00896 39.0599 4.8969 38.9864C4.78484 38.913 4.69662 38.8085 4.64304 38.6858C4.58946 38.563 4.57284 38.4273 4.59522 38.2952C4.61761 38.1631 4.67801 38.0404 4.76905 37.9421L10.6873 31.5892C10.8155 31.4512 10.9707 31.3411 11.1433 31.2657C11.3158 31.1904 11.5021 31.1514 11.6904 31.1512H39.7771C39.9122 31.1484 40.0453 31.1857 40.1593 31.2583C40.2733 31.3309 40.3636 31.4356 40.4181 31.5593C40.4729 31.683 40.4896 31.82 40.4666 31.9533C40.4435 32.0865 40.3816 32.21 40.2887 32.3081ZM34.3637 19.5119C34.2351 19.3746 34.0798 19.2649 33.9073 19.1896C33.7349 19.1143 33.5488 19.0749 33.3606 19.0739H5.27394C5.13999 19.074 5.00896 19.1131 4.8969 19.1865C4.78484 19.2599 4.69662 19.3644 4.64304 19.4872C4.58946 19.61 4.57284 19.7457 4.59522 19.8778C4.61761 20.0099 4.67801 20.1326 4.76905 20.2308L10.6873 26.5871C10.816 26.7245 10.9713 26.8342 11.1437 26.9095C11.3162 26.9848 11.5022 27.0241 11.6904 27.0251H39.7771C39.9109 27.0244 40.0413 26.9848 40.1529 26.9112C40.2646 26.8375 40.3522 26.733 40.4054 26.6103C40.4585 26.4877 40.4749 26.3522 40.4522 26.2204C40.4298 26.0887 40.3696 25.9663 40.2787 25.8682L34.3637 19.5119ZM5.27394 14.9478H33.3606C33.5489 14.9477 33.7352 14.9086 33.9078 14.8333C34.0804 14.7579 34.2356 14.6478 34.3637 14.5098L40.2887 8.15689C40.3816 8.05876 40.4435 7.93531 40.4666 7.80207C40.4896 7.66883 40.4729 7.53175 40.4181 7.40808C40.3636 7.28441 40.2733 7.17968 40.1593 7.10707C40.0453 7.03445 39.9122 6.99719 39.7771 6.99999H11.6904C11.5021 7.00018 11.3158 7.03918 11.1433 7.11454C10.9707 7.1899 10.8155 7.30001 10.6873 7.438L4.76905 13.7909C4.67801 13.8892 4.61761 14.0119 4.59522 14.144C4.57284 14.2761 4.58946 14.4118 4.64304 14.5346C4.69662 14.6573 4.78484 14.7618 4.8969 14.8352C5.00896 14.9086 5.13999 14.9478 5.27394 14.9478Z" fill="url(#paint0_linear_96_822)"/>
</g>
</g>
</g>
<defs>
<linearGradient id="paint0_linear_96_822" x1="7.6145" y1="39.8648" x2="37.0654" y2="6.66228" gradientUnits="userSpaceOnUse">
<stop offset="0.08" stop-color="#9945FF"/>
<stop offset="0.3" stop-color="#8752F3"/>
<stop offset="0.5" stop-color="#5497D5"/>
<stop offset="0.6" stop-color="#43B4CA"/>
<stop offset="0.72" stop-color="#28E0B9"/>
<stop offset="0.97" stop-color="#19FB9B"/>
</linearGradient>
<clipPath id="clip0_96_822">
<rect width="46" height="46" fill="white"/>
</clipPath>
<clipPath id="clip1_96_822">
<rect width="216" height="32.0991" fill="white" transform="translate(4 7)"/>
</clipPath>
</defs>
</svg>
