<svg width="382" height="70" viewBox="0 0 382 70" fill="none" xmlns="http://www.w3.org/2000/svg">
<path fill-rule="evenodd" clip-rule="evenodd" d="M0 68.2366H63.8882V53.452H24.6856L61.7474 8.49613V1.33797H1.87316V16.1226H36.0584L0 59.7405V68.2366ZM75.3278 1.33797V68.2366H91.7849V1.33797H75.3278ZM109.848 68.2366H126.305V36.326C126.305 32.0444 127.13 28.2981 128.78 25.087C130.43 21.8313 132.727 19.2891 135.67 17.4605C138.659 15.632 142.115 14.7177 146.04 14.7177C148.626 14.7177 151.302 15.1191 154.068 15.9219L156.074 1.07038C154.692 0.713586 153.287 0.445992 151.86 0.267596C150.477 0.0891993 149.117 0 147.779 0C142.65 0 138.101 1.18188 134.132 3.54563C130.207 5.90938 127.085 9.23201 124.766 13.5135L124.164 1.33797H109.848V68.2366ZM212.002 66.5641C216.64 64.5126 220.587 61.6359 223.843 57.9342L214.076 47.8325C212.113 49.9733 209.705 51.668 206.851 52.9168C203.996 54.121 200.986 54.7231 197.819 54.7231C193.984 54.7231 190.572 53.8757 187.584 52.1809C184.64 50.4416 182.321 48.0778 180.626 45.0897C178.976 42.0569 178.151 38.6005 178.151 34.7204C178.151 30.8403 178.976 27.4061 180.626 24.418C182.321 21.4299 184.64 19.0884 187.584 17.3936C190.572 15.6989 193.984 14.8515 197.819 14.8515C200.986 14.8515 203.974 15.4536 206.784 16.6578C209.638 17.8619 212.069 19.5567 214.076 21.7421L223.709 11.5066C220.453 7.84944 216.506 5.0174 211.868 3.01044C207.274 1.00348 202.257 0 196.816 0C190.037 0 183.949 1.51637 178.552 4.54911C173.201 7.58184 168.964 11.7296 165.842 16.9923C162.764 22.2103 161.226 28.142 161.226 34.7873C161.226 41.4325 162.764 47.3865 165.842 52.6492C168.964 57.8673 173.201 61.9927 178.552 65.0255C183.949 68.0582 190.037 69.5746 196.816 69.5746C202.301 69.5746 207.363 68.5711 212.002 66.5641ZM236.888 52.6492C240.01 57.8673 244.247 61.9927 249.599 65.0255C254.995 68.0582 261.105 69.5746 267.929 69.5746C274.708 69.5746 280.773 68.0582 286.125 65.0255C291.477 61.9927 295.67 57.8673 298.702 52.6492C301.78 47.3865 303.318 41.4325 303.318 34.7873C303.318 28.142 301.78 22.2103 298.702 16.9923C295.67 11.7296 291.477 7.58184 286.125 4.54911C280.773 1.51637 274.708 0 267.929 0C261.105 0 254.995 1.51637 249.599 4.54911C244.247 7.58184 240.01 11.7296 236.888 16.9923C233.811 22.2103 232.272 28.142 232.272 34.7873C232.272 41.4325 233.811 47.3865 236.888 52.6492ZM277.362 52.1809C274.552 53.9203 271.363 54.79 267.795 54.79C264.272 54.79 261.083 53.9203 258.229 52.1809C255.419 50.4416 253.189 48.0555 251.539 45.0228C249.933 41.99 249.13 38.5559 249.13 34.7204C249.13 30.9295 249.933 27.5399 251.539 24.5518C253.189 21.5191 255.419 19.133 258.229 17.3936C261.083 15.6543 264.272 14.7846 267.795 14.7846C271.363 14.7846 274.552 15.6543 277.362 17.3936C280.171 19.133 282.379 21.5191 283.985 24.5518C285.635 27.5399 286.46 30.9295 286.46 34.7204C286.46 38.5559 285.635 41.99 283.985 45.0228C282.379 48.0555 280.171 50.4416 277.362 52.1809ZM365.467 68.2366H381.924V29.703C381.924 20.4264 379.449 13.1567 374.498 7.89404C369.548 2.63135 362.747 0 354.094 0C348.787 0 344.149 1.04808 340.179 3.14424C336.255 5.19579 333.088 8.18393 330.68 12.1087L330.145 1.33797H316.564V68.2366H333.021V33.7169C333.021 27.9636 334.538 23.3922 337.57 20.0027C340.603 16.5686 344.617 14.8515 349.612 14.8515C354.473 14.8515 358.331 16.4794 361.186 19.7351C364.04 22.9462 365.467 27.3392 365.467 32.9141V68.2366Z" fill="white"/>
</svg>
