<svg width="36" height="36" viewBox="0 0 36 36" fill="none" xmlns="http://www.w3.org/2000/svg">
<rect x="5.25" y="5.25" width="25.5" height="25.5" rx="4.75" stroke="#979BA0" stroke-width="2.5"/>
<path d="M11 16.5L8.5 13.5L9 12.5L9.99997 12L11.5 12.5L13 13.5L14 15L15.5 13.5L16.5 13L18 13.5L19.5 14L20 14.5H21L22.5 15L23 16L25 14.5L26 14H27L27.5 14.5L27 16.5L24.5 19L22.5 23L21 25H18.5L18 24.5H17L16.5 24H15L14 23.5L12 22L11 16.5Z" fill="#979BA0"/>
<path d="M9.41661 11.565C8.53018 11.8467 7.96924 12.8433 8.17007 13.7822C8.28088 14.3022 8.50248 14.6344 9.29196 15.4794C10.4692 16.7361 10.9817 17.7761 11.1479 19.2639C11.3972 21.5822 11.7227 22.485 12.5814 23.2722C13.4956 24.11 15.033 24.5867 16.0925 24.37C16.4249 24.2978 16.4249 24.2978 16.7158 24.5939C17.0343 24.9189 17.7892 25.3089 18.3224 25.4244C18.5163 25.4678 19.0011 25.5255 19.3958 25.5544C20.8294 25.6483 21.695 25.3522 22.5399 24.4639C23.2809 23.6839 23.821 22.615 24.1327 21.2861C24.2712 20.6794 24.2712 20.6794 24.8529 19.7694C25.4277 18.8594 26.051 18 26.7227 17.1839C27.4845 16.2594 27.6091 16.0789 27.7684 15.6455C28.0246 14.9305 27.9138 14.3167 27.4706 13.9194C27.0828 13.5728 26.6119 13.4717 26.0717 13.6161C25.6562 13.7317 24.8252 14.1144 24.3751 14.4033C24.0357 14.62 23.1424 15.3133 23.0939 15.4C23.0039 15.5589 22.8792 15.4578 22.803 15.1617C22.6922 14.75 22.4083 14.49 21.8404 14.2805C21.3003 14.0783 20.8017 14.0567 20.3931 14.2083C20.033 14.3455 20.0537 14.3528 19.9568 14.0639C19.8321 13.7172 19.5551 13.5005 18.9734 13.3128C18.4748 13.1467 18.454 13.1467 18.0939 13.2622L17.7199 13.385L17.5814 13.2044C17.4983 13.0889 17.2975 12.9733 17.069 12.9083C16.7296 12.8 16.6465 12.8 16.1825 12.9011C15.8986 12.9661 15.6077 13.0383 15.5385 13.0672C15.2684 13.1683 14.6313 13.6594 14.3404 13.9917L14.0288 14.3383L13.8557 14.0928C13.2463 13.2405 12.0274 12.1789 11.2726 11.8322C10.6285 11.5361 9.85982 11.4278 9.41661 11.565ZM10.9332 12.4389C11.3903 12.6989 12.0967 13.3705 12.4083 13.8617C12.6576 14.2444 13.0939 15.1111 13.3017 15.6167C13.4886 16.0861 13.5302 16.1222 13.8487 16.1222C14.0011 16.1222 14.2089 16.2017 14.3751 16.31C15.5939 17.1333 15.5662 20.2533 14.3127 22.0661C13.8418 22.7522 13.4125 22.9255 13.0316 22.5861C12.7892 22.3767 12.4568 21.3655 12.3252 20.4555C12.0897 18.8739 11.9166 18.2455 11.4249 17.1767C10.8501 15.92 10.31 15.1472 9.46509 14.3889C8.88337 13.8617 8.79334 13.7172 8.79334 13.2839C8.79334 12.9011 8.98725 12.5689 9.33351 12.3378C9.80442 12.0272 10.2407 12.0561 10.9332 12.4389ZM17.1036 13.5222C17.1798 13.6017 17.2421 13.7389 17.2421 13.8183C17.2421 13.9483 17.2698 13.9628 17.4014 13.9194C17.4845 13.8905 17.7753 13.8544 18.0385 13.8328C18.6548 13.7894 19.1327 13.9772 19.3889 14.3744C19.5482 14.6272 19.562 14.6994 19.5551 15.5083C19.5482 16.2594 19.5136 16.4617 19.3335 17.0467C19.0911 17.8194 18.6756 18.5272 18.2809 18.8305C18.1285 18.9533 18.0039 19.0689 18.0039 19.0978C18.0039 19.1267 18.08 19.2278 18.1701 19.3217C18.4332 19.5961 18.5163 20.0294 18.4332 20.6722C18.1631 22.7161 17.803 24.1244 17.5122 24.2833C17.3044 24.4061 17.1105 24.3628 16.9928 24.1678C16.8889 24.0017 16.882 23.8789 16.9582 22.8894C17.069 21.3294 17.062 20.4555 16.9374 20.4555C16.792 20.4555 16.7712 20.5061 16.6881 21.2211C16.5703 22.1744 16.2864 23.3805 16.1064 23.6478C15.9609 23.8789 15.9402 23.8861 15.4831 23.8861C15.026 23.8861 15.0053 23.8789 14.8113 23.6333C14.5066 23.2578 14.4997 23.1205 14.749 22.4922C15.3446 20.99 15.4762 20.21 15.4208 18.4694C15.3861 17.2272 15.2476 16.4255 14.9291 15.5228C14.6798 14.8439 14.6936 14.6272 14.9983 14.2517C15.4415 13.7172 16.051 13.3922 16.6396 13.385C16.8751 13.3778 16.9997 13.4139 17.1036 13.5222ZM26.9305 14.36C27.1313 14.5333 27.1451 14.5839 27.1451 15.0028C27.1451 15.5155 27.1728 15.465 26.0787 16.8228C25.4623 17.5811 24.6174 18.8089 23.9595 19.8922C23.7864 20.1739 23.5856 20.5061 23.5094 20.6289C23.3294 20.9105 22.9831 21.5533 22.6299 22.2467C22.0551 23.395 21.695 23.8355 21.4457 23.7344C21.3834 23.7128 21.3072 23.6189 21.2795 23.5394C21.1687 23.2217 21.2864 19.7839 21.4665 18.1805C21.5288 17.6461 21.5565 17.5883 21.7712 17.3861C22.2213 16.9817 22.4222 16.8444 22.6438 16.7939L22.8654 16.7505L22.8169 17.1405C22.7961 17.3572 22.7476 17.6244 22.713 17.7472C22.6784 17.8628 22.6299 18.1805 22.6091 18.4405C22.5537 18.9894 22.6438 19.1483 22.8584 18.8811C22.9692 18.7294 23.267 17.8628 23.267 17.6678C23.267 17.6244 23.3432 17.3139 23.4332 16.9817C23.5233 16.6494 23.6341 16.2378 23.6756 16.0717C23.7587 15.7539 23.7726 15.7394 25.1022 14.8583C25.587 14.5333 26.2933 14.1939 26.5011 14.1794C26.6465 14.1722 26.792 14.2372 26.9305 14.36ZM21.8197 14.8439C22.1521 15.0244 22.436 15.4505 22.436 15.7683C22.436 16.1222 22.2213 16.6205 21.972 16.8372C21.7158 17.0539 21.0648 17.35 20.8363 17.35C20.7532 17.35 20.6908 17.4222 20.6631 17.545C20.6354 17.6605 20.5593 17.9855 20.49 18.2817C20.4138 18.5778 20.3584 18.8378 20.3584 18.8667C20.3584 18.8955 20.4623 18.9461 20.587 18.9678C20.7185 18.9894 20.8986 19.0978 20.9886 19.1989C21.321 19.5672 21.1618 20.8455 20.7185 21.3367C20.5177 21.5678 20.31 21.5894 20.0053 21.4233C19.8875 21.3655 19.7767 21.3222 19.7629 21.3439C19.7144 21.3944 19.6174 22.0372 19.6521 22.0805C19.6728 22.1022 19.7767 22.1167 19.8875 22.1167C20.1992 22.1167 20.6008 22.3694 20.774 22.6728C20.8986 22.8822 20.9332 23.0555 20.9402 23.4167C20.9402 23.9872 20.6978 24.5144 20.303 24.7889C20.0745 24.9478 19.9776 24.9694 19.3889 24.9694C18.6687 24.9694 18.3917 24.8683 18.1908 24.5433C18.0662 24.3483 18.0939 24.1317 18.4332 22.4778C18.5094 22.1022 18.6271 21.4955 18.6964 21.1417C18.7656 20.7805 18.9041 20.1017 19.008 19.625C19.1119 19.1483 19.2504 18.4839 19.3197 18.1444C19.5897 16.8517 19.7629 16.0644 19.9014 15.5083C20.0399 14.9811 20.0745 14.9161 20.2892 14.8078C20.6631 14.6128 21.4318 14.6344 21.8197 14.8439Z" fill="white"/>
<path d="M13.2463 17.8339C13.5579 19.6106 13.7587 20.5278 13.828 20.5278C13.9457 20.5278 14.2296 20.1089 14.3335 19.7767C14.382 19.6251 14.4166 19.2928 14.4166 19.0473C14.4097 18.2095 14.015 17.6389 13.4402 17.6389C13.2255 17.6389 13.2116 17.6534 13.2463 17.8339Z" fill="#979BA0"/>
<path d="M17.3806 15.1617C17.2836 15.1761 17.1797 15.2195 17.152 15.2484C17.1036 15.2989 16.9581 18.1445 17.0066 18.2023C17.0135 18.2167 17.159 18.1445 17.3252 18.0434C18.0246 17.6173 18.5302 16.8445 18.6063 16.0861C18.641 15.7323 18.6271 15.6889 18.4124 15.4434C18.2254 15.2339 18.1146 15.1761 17.8653 15.1545C17.6922 15.14 17.4775 15.14 17.3806 15.1617Z" fill="#979BA0"/>
</svg>
