<svg width="36" height="36" viewBox="0 0 36 36" fill="none" xmlns="http://www.w3.org/2000/svg">
<rect x="5.25" y="5.25" width="25.5" height="25.5" rx="4.75" stroke="#979BA0" stroke-width="2.5"/>
<g clip-path="url(#clip0_44_865)">
<path d="M11.2447 10.0729V11.9181H12.1308V19.3418H11.2447V21.1872H15.5077V23.9562C15.5077 24.5204 15.5076 24.8931 15.9472 25.3348L16.6787 26.0687C17.1185 26.5108 17.4746 26.5108 18.0135 26.5108H21.5792C22.1178 26.5108 22.4737 26.5108 22.912 26.0703L23.6464 25.3335C24.0845 24.8931 24.0845 24.5204 24.0845 23.9562V18.9923L23.1649 18.5759L24.8598 18.5757V16.7305H21.4702V18.5759H22.2456V23.9561C22.2456 24.0936 22.2297 24.1453 22.1681 24.2072L21.7892 24.5871C21.726 24.6507 21.6793 24.6654 21.5388 24.6654H18.0533C17.913 24.6654 17.8661 24.6508 17.8023 24.5868L17.4243 24.2075C17.3624 24.1453 17.3462 24.0936 17.3462 23.9561V21.1871H18.1771C18.7393 21.1871 19.1108 21.187 19.5508 20.746L20.2822 20.012C20.7229 19.5704 20.7228 19.2053 20.7228 18.6525V16.6532C20.7228 16.1008 20.7228 15.736 20.2836 15.296L20.0308 15.042L20.2822 14.7897C20.7229 14.3481 20.7228 13.983 20.7228 13.4302V12.6067C20.7228 12.0543 20.7228 11.6893 20.2836 11.2493L19.5495 10.5123C19.1108 10.0727 18.7395 10.0728 18.1772 10.0728L11.2447 10.0729ZM13.0502 11.9181H18.1772C18.3143 11.9181 18.3659 11.9343 18.4275 11.9961L18.8061 12.3761C18.8695 12.4397 18.884 12.4867 18.884 12.6276V13.41C18.884 13.5509 18.8694 13.598 18.8057 13.6617L18.4277 14.0413C18.3658 14.1034 18.3143 14.1195 18.1772 14.1195H13.9696V12.3347L13.0502 11.9181ZM13.9696 15.9646H18.1773C18.3144 15.9646 18.366 15.9806 18.4275 16.0424L18.8061 16.4226C18.8696 16.486 18.8841 16.533 18.8841 16.6739V18.6324C18.8841 18.7733 18.8695 18.8204 18.8057 18.8841L18.4278 19.2635C18.3695 19.322 18.3194 19.3396 18.1994 19.3414L13.9696 19.3417L13.9696 15.9646ZM14.7315 16.7143V18.5615H15.51V19.0389H17.3565V18.5614L18.1353 18.5615V16.7143H14.7315Z" fill="#979BA0"/>
</g>
<defs>
<clipPath id="clip0_44_865">
<rect width="13.75" height="16.6038" fill="white" transform="translate(11.1719 10)"/>
</clipPath>
</defs>
</svg>
