<svg width="36" height="36" viewBox="0 0 36 36" fill="none" xmlns="http://www.w3.org/2000/svg">
<rect x="5.25" y="5.25" width="25.5" height="25.5" rx="4.75" stroke="#979BA0" stroke-width="2.5"/>
<g clip-path="url(#clip0_45_872)">
<path opacity="0.992" fill-rule="evenodd" clip-rule="evenodd" d="M25.8598 8.99609C25.9002 8.99609 25.9407 8.99609 25.9811 8.99609C25.9811 9.00619 25.9861 9.01125 25.9962 9.01125C25.9962 9.07185 25.9962 9.13246 25.9962 9.19306C25.9813 9.25061 25.9763 9.31122 25.9811 9.37488C25.971 9.37488 25.9608 9.37488 25.9508 9.37488C25.9508 9.43549 25.9508 9.49609 25.9508 9.5567C25.9407 9.5567 25.9305 9.5567 25.9205 9.5567C25.9217 9.61484 25.9205 9.67292 25.9167 9.73094C25.909 9.73728 25.9002 9.73981 25.8902 9.73852C25.8902 9.78903 25.8902 9.83953 25.8902 9.89003C25.8801 9.89003 25.8699 9.89003 25.8598 9.89003C25.8598 9.95064 25.8598 10.0112 25.8598 10.0719C25.8498 10.0719 25.8396 10.0719 25.8295 10.0719C25.8295 10.1325 25.8295 10.1931 25.8295 10.2537C25.8195 10.2537 25.8093 10.2537 25.7992 10.2537C25.7992 10.3143 25.7992 10.3749 25.7992 10.4355C25.7892 10.4355 25.779 10.4355 25.7689 10.4355C25.7689 10.4961 25.7689 10.5567 25.7689 10.6173C25.7589 10.6173 25.7487 10.6173 25.7386 10.6173C25.7399 10.6754 25.7386 10.7335 25.7348 10.7915C25.7272 10.7979 25.7183 10.8004 25.7083 10.7991C25.7083 10.8496 25.7083 10.9001 25.7083 10.9506C25.6983 10.9506 25.6881 10.9506 25.678 10.9506C25.678 11.0112 25.678 11.0719 25.678 11.1325C25.668 11.1325 25.6578 11.1325 25.6477 11.1325C25.6477 11.1931 25.6477 11.2537 25.6477 11.3143C25.6377 11.3143 25.6275 11.3143 25.6174 11.3143C25.6174 11.3749 25.6174 11.4355 25.6174 11.4961C25.6073 11.4961 25.5972 11.4961 25.5871 11.4961C25.5871 11.5567 25.5871 11.6173 25.5871 11.6779C25.577 11.6779 25.5669 11.6779 25.5568 11.6779C25.5581 11.736 25.5568 11.7941 25.553 11.8522C25.5454 11.8585 25.5365 11.861 25.5265 11.8597C25.5265 11.9102 25.5265 11.9607 25.5265 12.0112C25.5164 12.0112 25.5063 12.0112 25.4962 12.0112C25.4962 12.0719 25.4962 12.1325 25.4962 12.1931C25.4861 12.1931 25.476 12.1931 25.4659 12.1931C25.4659 12.2537 25.4659 12.3143 25.4659 12.3749C25.4558 12.3749 25.4457 12.3749 25.4356 12.3749C25.4356 12.4355 25.4356 12.4961 25.4356 12.5567C25.4255 12.5567 25.4154 12.5567 25.4053 12.5567C25.4066 12.6148 25.4053 12.6729 25.4015 12.7309C25.3939 12.7373 25.385 12.7398 25.375 12.7385C25.3763 12.7967 25.375 12.8547 25.3712 12.9128C25.3636 12.9191 25.3547 12.9216 25.3447 12.9203C25.3447 12.9708 25.3447 13.0213 25.3447 13.0719C25.3346 13.0719 25.3245 13.0719 25.3144 13.0719C25.3144 13.1325 25.3144 13.1931 25.3144 13.2537C25.3043 13.2537 25.2942 13.2537 25.2841 13.2537C25.2841 13.3143 25.2841 13.3749 25.2841 13.4355C25.274 13.4355 25.2639 13.4355 25.2538 13.4355C25.2538 13.4961 25.2538 13.5567 25.2538 13.6173C25.2437 13.6173 25.2336 13.6173 25.2235 13.6173C25.2248 13.6754 25.2235 13.7335 25.2197 13.7915C25.212 13.7979 25.2032 13.8004 25.1932 13.7991C25.1945 13.8573 25.1932 13.9153 25.1894 13.9734C25.1817 13.9797 25.1729 13.9822 25.1629 13.9809C25.1629 14.0314 25.1629 14.0819 25.1629 14.1325C25.1528 14.1325 25.1427 14.1325 25.1326 14.1325C25.1326 14.1931 25.1326 14.2537 25.1326 14.3143C25.1225 14.3143 25.1123 14.3143 25.1023 14.3143C25.1023 14.3749 25.1023 14.4355 25.1023 14.4961C25.0922 14.4961 25.082 14.4961 25.072 14.4961C25.072 14.5567 25.072 14.6173 25.072 14.6779C25.0619 14.6779 25.0517 14.6779 25.0417 14.6779C25.043 14.736 25.0417 14.7941 25.0379 14.8522C25.0302 14.8585 25.0214 14.861 25.0114 14.8597C25.0127 14.9179 25.0114 14.9759 25.0076 15.034C24.9999 15.0403 24.9911 15.0428 24.9811 15.0415C24.9811 15.0921 24.9811 15.1426 24.9811 15.1931C24.971 15.1931 24.9608 15.1931 24.9508 15.1931C24.9508 15.2537 24.9508 15.3143 24.9508 15.3749C24.9407 15.3749 24.9305 15.3749 24.9205 15.3749C24.9205 15.4355 24.9205 15.4961 24.9205 15.5567C24.9104 15.5567 24.9002 15.5567 24.8902 15.5567C24.8902 15.6173 24.8902 15.6779 24.8902 15.7385C24.8801 15.7385 24.8699 15.7385 24.8598 15.7385C24.8611 15.7967 24.8598 15.8547 24.8561 15.9128C24.8484 15.9191 24.8395 15.9216 24.8295 15.9203C24.8295 15.9708 24.8295 16.0213 24.8295 16.0719C24.8195 16.0719 24.8093 16.0719 24.7992 16.0719C24.7992 16.1325 24.7992 16.1931 24.7992 16.2537C24.7892 16.2537 24.779 16.2537 24.7689 16.2537C24.7689 16.3143 24.7689 16.3749 24.7689 16.4355C24.7589 16.4355 24.7487 16.4355 24.7386 16.4355C24.7386 16.4961 24.7386 16.5567 24.7386 16.6173C24.7286 16.6173 24.7184 16.6173 24.7083 16.6173C24.7096 16.6754 24.7083 16.7335 24.7045 16.7915C24.6969 16.7979 24.688 16.8004 24.678 16.7991C24.678 16.8497 24.678 16.9001 24.678 16.9506C24.668 16.9506 24.6578 16.9506 24.6477 16.9506C24.6477 16.991 24.6477 17.0315 24.6477 17.0719C24.6377 17.0719 24.6275 17.0719 24.6174 17.0719C24.6174 17.1122 24.6174 17.1527 24.6174 17.1931C24.6073 17.1931 24.5972 17.1931 24.5871 17.1931C24.5871 17.2334 24.5871 17.2739 24.5871 17.3143C24.577 17.3143 24.5669 17.3143 24.5568 17.3143C24.5581 17.3522 24.5568 17.3901 24.553 17.4279C24.5454 17.4343 24.5365 17.4368 24.5265 17.4355C24.5265 17.4658 24.5265 17.4961 24.5265 17.5264C24.5164 17.5264 24.5063 17.5264 24.4962 17.5264C24.4962 17.5567 24.4962 17.587 24.4962 17.6173C24.4861 17.6173 24.476 17.6173 24.4659 17.6173C24.4659 17.6476 24.4659 17.6779 24.4659 17.7082C24.4558 17.7082 24.4457 17.7082 24.4356 17.7082C24.4356 17.7385 24.4356 17.7688 24.4356 17.7991C24.4255 17.7991 24.4154 17.7991 24.4053 17.7991C24.4066 17.827 24.4053 17.8548 24.4015 17.8825C24.3939 17.8888 24.385 17.8913 24.375 17.89C24.375 17.9103 24.375 17.9304 24.375 17.9506C24.3649 17.9506 24.3548 17.9506 24.3447 17.9506C24.3447 17.9709 24.3447 17.991 24.3447 18.0112C24.3346 18.0112 24.3245 18.0112 24.3144 18.0112C24.3157 18.0391 24.3144 18.0669 24.3106 18.0946C24.303 18.1009 24.2941 18.1034 24.2841 18.1022C24.2841 18.1224 24.2841 18.1425 24.2841 18.1628C24.274 18.1628 24.2639 18.1628 24.2538 18.1628C24.2538 18.183 24.2538 18.2031 24.2538 18.2234C24.2437 18.2234 24.2336 18.2234 24.2235 18.2234C24.2247 18.2412 24.2235 18.2589 24.2197 18.2764C24.212 18.2828 24.2032 18.2853 24.1932 18.284C24.1932 18.294 24.1932 18.3042 24.1932 18.3143C24.1831 18.3143 24.173 18.3143 24.1629 18.3143C24.1629 18.3345 24.1629 18.3547 24.1629 18.3749C24.1528 18.3749 24.1427 18.3749 24.1326 18.3749C24.1326 18.3951 24.1326 18.4153 24.1326 18.4355C24.1225 18.4355 24.1123 18.4355 24.1023 18.4355C24.1023 18.4456 24.1023 18.4557 24.1023 18.4658C24.0922 18.4658 24.082 18.4658 24.072 18.4658C24.072 18.486 24.072 18.5062 24.072 18.5264C24.0619 18.5264 24.0517 18.5264 24.0417 18.5264C24.0417 18.5365 24.0417 18.5466 24.0417 18.5567C24.0316 18.5567 24.0214 18.5567 24.0114 18.5567C24.0114 18.5769 24.0114 18.5971 24.0114 18.6173C24.0013 18.6173 23.9911 18.6173 23.9811 18.6173C23.9811 18.6274 23.9811 18.6375 23.9811 18.6476C23.971 18.6476 23.9608 18.6476 23.9508 18.6476C23.952 18.6655 23.9508 18.6831 23.947 18.7006C23.9393 18.707 23.9305 18.7095 23.9205 18.7082C23.9205 18.7183 23.9205 18.7284 23.9205 18.7385C23.9104 18.7385 23.9002 18.7385 23.8902 18.7385C23.8902 18.7486 23.8902 18.7587 23.8902 18.7688C23.8801 18.7688 23.8699 18.7688 23.8598 18.7688C23.8598 18.7789 23.8598 18.789 23.8598 18.7991C23.8498 18.7991 23.8396 18.7991 23.8295 18.7991C23.8308 18.817 23.8295 18.8347 23.8258 18.8522C23.8181 18.8585 23.8092 18.861 23.7992 18.8597C23.7992 18.8698 23.7992 18.88 23.7992 18.89C23.7892 18.89 23.779 18.89 23.7689 18.89C23.7689 18.9001 23.7689 18.9103 23.7689 18.9203C23.7589 18.9203 23.7487 18.9203 23.7386 18.9203C23.7386 18.9304 23.7386 18.9406 23.7386 18.9506C23.7286 18.9506 23.7184 18.9506 23.7083 18.9506C23.7083 18.9607 23.7083 18.9709 23.7083 18.9809C23.6983 18.9809 23.6881 18.9809 23.678 18.9809C23.678 18.991 23.678 19.0012 23.678 19.0112C23.668 19.0112 23.6578 19.0112 23.6477 19.0112C23.6477 19.0213 23.6477 19.0315 23.6477 19.0415C23.6377 19.0415 23.6275 19.0415 23.6174 19.0415C23.6174 19.0516 23.6174 19.0618 23.6174 19.0719C23.6073 19.0719 23.5972 19.0719 23.5871 19.0719C23.5871 19.0819 23.5871 19.0921 23.5871 19.1022C23.577 19.1022 23.5669 19.1022 23.5568 19.1022C23.5568 19.1122 23.5568 19.1224 23.5568 19.1325C23.5467 19.1325 23.5366 19.1325 23.5265 19.1325C23.5265 19.1425 23.5265 19.1527 23.5265 19.1628C23.5164 19.1628 23.5063 19.1628 23.4962 19.1628C23.4962 19.1728 23.4962 19.183 23.4962 19.1931C23.4861 19.1931 23.476 19.1931 23.4659 19.1931C23.4659 19.2031 23.4659 19.2133 23.4659 19.2234C23.4558 19.2234 23.4457 19.2234 23.4356 19.2234C23.4356 19.2334 23.4356 19.2436 23.4356 19.2537C23.4255 19.2537 23.4154 19.2537 23.4053 19.2537C23.4053 19.2637 23.4053 19.2739 23.4053 19.284C23.3952 19.284 23.3851 19.284 23.375 19.284C23.375 19.294 23.375 19.3042 23.375 19.3143C23.3649 19.3143 23.3548 19.3143 23.3447 19.3143C23.3447 19.3244 23.3447 19.3345 23.3447 19.3446C23.3346 19.3446 23.3245 19.3446 23.3144 19.3446C23.3144 19.3547 23.3144 19.3648 23.3144 19.3749C23.3043 19.3749 23.2942 19.3749 23.2841 19.3749C23.2866 19.3976 23.2765 19.4077 23.2538 19.4052C23.2551 19.4152 23.2526 19.424 23.2462 19.4317C23.2287 19.4355 23.2111 19.4367 23.1932 19.4355C23.1932 19.4456 23.1932 19.4557 23.1932 19.4658C23.1831 19.4658 23.173 19.4658 23.1629 19.4658C23.1629 19.4759 23.1629 19.486 23.1629 19.4961C23.1528 19.4961 23.1427 19.4961 23.1326 19.4961C23.1326 19.5062 23.1326 19.5163 23.1326 19.5264C23.1225 19.5264 23.1123 19.5264 23.1023 19.5264C23.1023 19.5365 23.1023 19.5466 23.1023 19.5567C23.0922 19.5567 23.082 19.5567 23.072 19.5567C23.0733 19.5667 23.0708 19.5756 23.0644 19.5832C23.0469 19.587 23.0292 19.5882 23.0114 19.587C23.0114 19.5971 23.0114 19.6072 23.0114 19.6173C23.0013 19.6173 22.9911 19.6173 22.9811 19.6173C22.9811 19.6274 22.9811 19.6375 22.9811 19.6476C22.971 19.6476 22.9608 19.6476 22.9508 19.6476C22.9508 19.6577 22.9508 19.6678 22.9508 19.6779C22.9305 19.6779 22.9104 19.6779 22.8902 19.6779C22.8902 19.688 22.8902 19.6981 22.8902 19.7082C22.8801 19.7082 22.8699 19.7082 22.8598 19.7082C22.8598 19.7183 22.8598 19.7284 22.8598 19.7385C22.8498 19.7385 22.8396 19.7385 22.8295 19.7385C22.8295 19.7486 22.8295 19.7587 22.8295 19.7688C22.8195 19.7688 22.8093 19.7688 22.7992 19.7688C22.8005 19.7788 22.798 19.7877 22.7917 19.7953C22.7742 19.7991 22.7565 19.8003 22.7386 19.7991C22.7386 19.8092 22.7386 19.8194 22.7386 19.8294C22.7286 19.8294 22.7184 19.8294 22.7083 19.8294C22.7083 19.8395 22.7083 19.8497 22.7083 19.8597C22.6983 19.8597 22.6881 19.8597 22.678 19.8597C22.6793 19.8697 22.6768 19.8786 22.6705 19.8862C22.653 19.89 22.6353 19.8912 22.6174 19.89C22.6174 19.9001 22.6174 19.9103 22.6174 19.9203C22.6073 19.9203 22.5972 19.9203 22.5871 19.9203C22.5871 19.9304 22.5871 19.9406 22.5871 19.9506C22.5669 19.9506 22.5467 19.9506 22.5265 19.9506C22.5265 19.9607 22.5265 19.9709 22.5265 19.9809C22.5164 19.9809 22.5063 19.9809 22.4962 19.9809C22.4962 19.991 22.4962 20.0012 22.4962 20.0112C22.4861 20.0112 22.476 20.0112 22.4659 20.0112C22.4672 20.0212 22.4647 20.0301 22.4583 20.0378C22.4408 20.0415 22.4232 20.0428 22.4053 20.0415C22.4053 20.0516 22.4053 20.0618 22.4053 20.0719C22.3952 20.0719 22.3851 20.0719 22.375 20.0719C22.3763 20.0819 22.3738 20.0907 22.3674 20.0984C22.3499 20.1022 22.3323 20.1034 22.3144 20.1022C22.3144 20.1122 22.3144 20.1224 22.3144 20.1325C22.3043 20.1325 22.2942 20.1325 22.2841 20.1325C22.2841 20.1425 22.2841 20.1527 22.2841 20.1628C22.2639 20.1628 22.2437 20.1628 22.2235 20.1628C22.2235 20.1728 22.2235 20.183 22.2235 20.1931C22.2134 20.1931 22.2033 20.1931 22.1932 20.1931C22.1932 20.2031 22.1932 20.2133 22.1932 20.2234C22.173 20.2234 22.1528 20.2234 22.1326 20.2234C22.1326 20.2334 22.1326 20.2436 22.1326 20.2537C22.1225 20.2537 22.1123 20.2537 22.1023 20.2537C22.1023 20.2637 22.1023 20.2739 22.1023 20.284C22.082 20.284 22.0619 20.284 22.0417 20.284C22.0417 20.294 22.0417 20.3042 22.0417 20.3143C22.0316 20.3143 22.0214 20.3143 22.0114 20.3143C22.0114 20.3244 22.0114 20.3345 22.0114 20.3446C21.9911 20.3446 21.971 20.3446 21.9508 20.3446C21.9508 20.3547 21.9508 20.3648 21.9508 20.3749C21.9407 20.3749 21.9305 20.3749 21.9205 20.3749C21.9205 20.385 21.9205 20.3951 21.9205 20.4052C21.9002 20.4052 21.8801 20.4052 21.8598 20.4052C21.8598 20.4153 21.8598 20.4254 21.8598 20.4355C21.8498 20.4355 21.8396 20.4355 21.8295 20.4355C21.8295 20.4456 21.8295 20.4557 21.8295 20.4658C21.8093 20.4658 21.7892 20.4658 21.7689 20.4658C21.7689 20.4759 21.7689 20.486 21.7689 20.4961C21.7589 20.4961 21.7487 20.4961 21.7386 20.4961C21.7399 20.5061 21.7374 20.515 21.7311 20.5226C21.7136 20.5264 21.6959 20.5276 21.678 20.5264C21.678 20.5365 21.678 20.5466 21.678 20.5567C21.668 20.5567 21.6578 20.5567 21.6477 20.5567C21.649 20.5667 21.6465 20.5756 21.6402 20.5832C21.6227 20.587 21.605 20.5882 21.5871 20.587C21.5871 20.5971 21.5871 20.6072 21.5871 20.6173C21.577 20.6173 21.5669 20.6173 21.5568 20.6173C21.5581 20.6273 21.5556 20.6362 21.5492 20.6438C21.5317 20.6476 21.5141 20.6488 21.4962 20.6476C21.4962 20.6577 21.4962 20.6678 21.4962 20.6779C21.476 20.6779 21.4558 20.6779 21.4356 20.6779C21.4356 20.688 21.4356 20.6981 21.4356 20.7082C21.4255 20.7082 21.4154 20.7082 21.4053 20.7082C21.4053 20.7183 21.4053 20.7284 21.4053 20.7385C21.3851 20.7385 21.3649 20.7385 21.3447 20.7385C21.3447 20.7486 21.3447 20.7587 21.3447 20.7688C21.3346 20.7688 21.3245 20.7688 21.3144 20.7688C21.3144 20.7789 21.3144 20.789 21.3144 20.7991C21.2942 20.7991 21.274 20.7991 21.2538 20.7991C21.2538 20.8092 21.2538 20.8194 21.2538 20.8294C21.2437 20.8294 21.2336 20.8294 21.2235 20.8294C21.2235 20.8395 21.2235 20.8497 21.2235 20.8597C21.2033 20.8597 21.1831 20.8597 21.1629 20.8597C21.1629 20.8698 21.1629 20.88 21.1629 20.89C21.1528 20.89 21.1427 20.89 21.1326 20.89C21.1326 20.9001 21.1326 20.9103 21.1326 20.9203C21.1123 20.9203 21.0922 20.9203 21.072 20.9203C21.072 20.9304 21.072 20.9406 21.072 20.9506C21.0619 20.9506 21.0517 20.9506 21.0417 20.9506C21.0417 20.9607 21.0417 20.9709 21.0417 20.9809C21.0214 20.9809 21.0013 20.9809 20.9811 20.9809C20.9811 20.991 20.9811 21.0012 20.9811 21.0112C20.971 21.0112 20.9608 21.0112 20.9508 21.0112C20.9508 21.0213 20.9508 21.0315 20.9508 21.0415C20.9305 21.0415 20.9104 21.0415 20.8902 21.0415C20.8902 21.0516 20.8902 21.0618 20.8902 21.0719C20.8801 21.0719 20.8699 21.0719 20.8598 21.0719C20.8598 21.0819 20.8598 21.0921 20.8598 21.1022C20.8396 21.1022 20.8195 21.1022 20.7992 21.1022C20.7992 21.1122 20.7992 21.1224 20.7992 21.1325C20.7892 21.1325 20.779 21.1325 20.7689 21.1325C20.7689 21.1425 20.7689 21.1527 20.7689 21.1628C20.7487 21.1628 20.7286 21.1628 20.7083 21.1628C20.7083 21.1728 20.7083 21.183 20.7083 21.1931C20.6983 21.1931 20.6881 21.1931 20.678 21.1931C20.678 21.2031 20.678 21.2133 20.678 21.2234C20.668 21.2234 20.6578 21.2234 20.6477 21.2234C20.649 21.2334 20.6465 21.2422 20.6402 21.2499C20.6227 21.2537 20.605 21.2549 20.5871 21.2537C20.5871 21.2637 20.5871 21.2739 20.5871 21.284C20.577 21.284 20.5669 21.284 20.5568 21.284C20.5581 21.294 20.5556 21.3028 20.5492 21.3105C20.5317 21.3143 20.5141 21.3155 20.4962 21.3143C20.4962 21.3244 20.4962 21.3345 20.4962 21.3446C20.4861 21.3446 20.476 21.3446 20.4659 21.3446C20.4672 21.3546 20.4647 21.3634 20.4583 21.3711C20.4408 21.3749 20.4232 21.3761 20.4053 21.3749C20.4053 21.385 20.4053 21.3951 20.4053 21.4052C20.3952 21.4052 20.3851 21.4052 20.375 21.4052C20.375 21.4153 20.375 21.4254 20.375 21.4355C20.3548 21.4355 20.3346 21.4355 20.3144 21.4355C20.3144 21.4456 20.3144 21.4557 20.3144 21.4658C20.3043 21.4658 20.2942 21.4658 20.2841 21.4658C20.2841 21.4759 20.2841 21.486 20.2841 21.4961C20.2639 21.4961 20.2437 21.4961 20.2235 21.4961C20.2235 21.5062 20.2235 21.5163 20.2235 21.5264C20.2134 21.5264 20.2033 21.5264 20.1932 21.5264C20.1932 21.5365 20.1932 21.5466 20.1932 21.5567C20.1831 21.5567 20.173 21.5567 20.1629 21.5567C20.1642 21.5667 20.1617 21.5756 20.1553 21.5832C20.1378 21.587 20.1202 21.5882 20.1023 21.587C20.1023 21.5971 20.1023 21.6072 20.1023 21.6173C20.0922 21.6173 20.082 21.6173 20.072 21.6173C20.0733 21.6273 20.0708 21.6362 20.0644 21.6438C20.0469 21.6476 20.0292 21.6488 20.0114 21.6476C20.0114 21.6577 20.0114 21.6678 20.0114 21.6779C20.0013 21.6779 19.9911 21.6779 19.9811 21.6779C19.9811 21.688 19.9811 21.6981 19.9811 21.7082C19.9608 21.7082 19.9407 21.7082 19.9205 21.7082C19.9205 21.7183 19.9205 21.7284 19.9205 21.7385C19.9104 21.7385 19.9002 21.7385 19.8902 21.7385C19.8902 21.7486 19.8902 21.7587 19.8902 21.7688C19.8801 21.7688 19.8699 21.7688 19.8598 21.7688C19.8611 21.7788 19.8586 21.7877 19.8523 21.7953C19.8348 21.7991 19.8171 21.8003 19.7992 21.7991C19.7992 21.8092 19.7992 21.8194 19.7992 21.8294C19.7892 21.8294 19.779 21.8294 19.7689 21.8294C19.7689 21.8395 19.7689 21.8497 19.7689 21.8597C19.7487 21.8597 19.7286 21.8597 19.7083 21.8597C19.7083 21.8698 19.7083 21.88 19.7083 21.89C19.6983 21.89 19.6881 21.89 19.678 21.89C19.678 21.9001 19.678 21.9103 19.678 21.9203C19.668 21.9203 19.6578 21.9203 19.6477 21.9203C19.649 21.9303 19.6465 21.9392 19.6402 21.9469C19.6227 21.9506 19.605 21.9519 19.5871 21.9506C19.5871 21.9607 19.5871 21.9709 19.5871 21.9809C19.577 21.9809 19.5669 21.9809 19.5568 21.9809C19.5568 21.991 19.5568 22.0012 19.5568 22.0112C19.5366 22.0112 19.5164 22.0112 19.4962 22.0112C19.4962 22.0213 19.4962 22.0315 19.4962 22.0415C19.4861 22.0415 19.476 22.0415 19.4659 22.0415C19.4659 22.0516 19.4659 22.0618 19.4659 22.0719C19.4558 22.0719 19.4457 22.0719 19.4356 22.0719C19.4369 22.0819 19.4344 22.0907 19.428 22.0984C19.4105 22.1022 19.3929 22.1034 19.375 22.1022C19.375 22.1122 19.375 22.1224 19.375 22.1325C19.3649 22.1325 19.3548 22.1325 19.3447 22.1325C19.3447 22.1425 19.3447 22.1527 19.3447 22.1628C19.3346 22.1628 19.3245 22.1628 19.3144 22.1628C19.3157 22.1728 19.3132 22.1816 19.3068 22.1893C19.2893 22.1931 19.2717 22.1943 19.2538 22.1931C19.2538 22.2031 19.2538 22.2133 19.2538 22.2234C19.2437 22.2234 19.2336 22.2234 19.2235 22.2234C19.2235 22.2334 19.2235 22.2436 19.2235 22.2537C19.2033 22.2537 19.1831 22.2537 19.1629 22.2537C19.1629 22.2637 19.1629 22.2739 19.1629 22.284C19.1528 22.284 19.1427 22.284 19.1326 22.284C19.1326 22.294 19.1326 22.3042 19.1326 22.3143C19.1225 22.3143 19.1123 22.3143 19.1023 22.3143C19.1023 22.3244 19.1023 22.3345 19.1023 22.3446C19.082 22.3446 19.0619 22.3446 19.0417 22.3446C19.0417 22.3547 19.0417 22.3648 19.0417 22.3749C19.0316 22.3749 19.0214 22.3749 19.0114 22.3749C19.0114 22.385 19.0114 22.3951 19.0114 22.4052C19.0013 22.4052 18.9911 22.4052 18.9811 22.4052C18.9823 22.4152 18.9798 22.424 18.9735 22.4317C18.956 22.4355 18.9383 22.4367 18.9205 22.4355C18.9205 22.4456 18.9205 22.4557 18.9205 22.4658C18.9104 22.4658 18.9002 22.4658 18.8902 22.4658C18.8902 22.4759 18.8902 22.486 18.8902 22.4961C18.8801 22.4961 18.8699 22.4961 18.8598 22.4961C18.8598 22.5062 18.8598 22.5163 18.8598 22.5264C18.8396 22.5264 18.8195 22.5264 18.7992 22.5264C18.7992 22.5365 18.7992 22.5466 18.7992 22.5567C18.7892 22.5567 18.779 22.5567 18.7689 22.5567C18.7689 22.5668 18.7689 22.5769 18.7689 22.587C18.7589 22.587 18.7487 22.587 18.7386 22.587C18.7386 22.5971 18.7386 22.6072 18.7386 22.6173C18.7286 22.6173 18.7184 22.6173 18.7083 22.6173C18.7096 22.6273 18.7071 22.6362 18.7008 22.6438C18.6833 22.6476 18.6656 22.6488 18.6477 22.6476C18.6477 22.6577 18.6477 22.6678 18.6477 22.6779C18.6377 22.6779 18.6275 22.6779 18.6174 22.6779C18.6174 22.688 18.6174 22.6981 18.6174 22.7082C18.6073 22.7082 18.5972 22.7082 18.5871 22.7082C18.5884 22.7182 18.5859 22.7271 18.5795 22.7347C18.562 22.7385 18.5444 22.7397 18.5265 22.7385C18.5265 22.7486 18.5265 22.7587 18.5265 22.7688C18.5164 22.7688 18.5063 22.7688 18.4962 22.7688C18.4962 22.7789 18.4962 22.789 18.4962 22.7991C18.4861 22.7991 18.476 22.7991 18.4659 22.7991C18.4659 22.8092 18.4659 22.8194 18.4659 22.8294C18.4558 22.8294 18.4457 22.8294 18.4356 22.8294C18.4369 22.8394 18.4344 22.8483 18.428 22.8559C18.4105 22.8597 18.3929 22.8609 18.375 22.8597C18.375 22.8698 18.375 22.88 18.375 22.89C18.3649 22.89 18.3548 22.89 18.3447 22.89C18.3447 22.9001 18.3447 22.9103 18.3447 22.9203C18.3346 22.9203 18.3245 22.9203 18.3144 22.9203C18.3144 22.9304 18.3144 22.9406 18.3144 22.9506C18.3043 22.9506 18.2942 22.9506 18.2841 22.9506C18.2854 22.9606 18.2829 22.9695 18.2765 22.9772C18.259 22.9809 18.2414 22.9822 18.2235 22.9809C18.2235 22.991 18.2235 23.0012 18.2235 23.0112C18.2134 23.0112 18.2033 23.0112 18.1932 23.0112C18.1932 23.0213 18.1932 23.0315 18.1932 23.0415C18.1831 23.0415 18.173 23.0415 18.1629 23.0415C18.1629 23.0516 18.1629 23.0618 18.1629 23.0719C18.1528 23.0719 18.1427 23.0719 18.1326 23.0719C18.1339 23.0819 18.1314 23.0907 18.125 23.0984C18.1075 23.1022 18.0898 23.1034 18.072 23.1022C18.072 23.1122 18.072 23.1224 18.072 23.1325C18.0619 23.1325 18.0517 23.1325 18.0417 23.1325C18.0417 23.1425 18.0417 23.1527 18.0417 23.1628C18.0316 23.1628 18.0214 23.1628 18.0114 23.1628C18.0114 23.1728 18.0114 23.183 18.0114 23.1931C18.0013 23.1931 17.9911 23.1931 17.9811 23.1931C17.9811 23.2031 17.9811 23.2133 17.9811 23.2234C17.971 23.2234 17.9608 23.2234 17.9508 23.2234C17.952 23.2334 17.9495 23.2422 17.9432 23.2499C17.9257 23.2537 17.908 23.2549 17.8902 23.2537C17.8902 23.2637 17.8902 23.2739 17.8902 23.284C17.8801 23.284 17.8699 23.284 17.8598 23.284C17.8598 23.294 17.8598 23.3042 17.8598 23.3143C17.8498 23.3143 17.8396 23.3143 17.8295 23.3143C17.8295 23.3244 17.8295 23.3345 17.8295 23.3446C17.8195 23.3446 17.8093 23.3446 17.7992 23.3446C17.7992 23.3547 17.7992 23.3648 17.7992 23.3749C17.7892 23.3749 17.779 23.3749 17.7689 23.3749C17.7689 23.385 17.7689 23.3951 17.7689 23.4052C17.7589 23.4052 17.7487 23.4052 17.7386 23.4052C17.7411 23.4279 17.7311 23.438 17.7083 23.4355C17.7096 23.4455 17.7071 23.4544 17.7008 23.462C17.6833 23.4658 17.6656 23.467 17.6477 23.4658C17.6477 23.4759 17.6477 23.486 17.6477 23.4961C17.6377 23.4961 17.6275 23.4961 17.6174 23.4961C17.6174 23.5062 17.6174 23.5163 17.6174 23.5264C17.6073 23.5264 17.5972 23.5264 17.5871 23.5264C17.5871 23.5365 17.5871 23.5466 17.5871 23.5567C17.577 23.5567 17.5669 23.5567 17.5568 23.5567C17.5568 23.5668 17.5568 23.5769 17.5568 23.587C17.5467 23.587 17.5366 23.587 17.5265 23.587C17.5265 23.5971 17.5265 23.6072 17.5265 23.6173C17.5164 23.6173 17.5063 23.6173 17.4962 23.6173C17.4962 23.6274 17.4962 23.6375 17.4962 23.6476C17.4861 23.6476 17.476 23.6476 17.4659 23.6476C17.4659 23.6577 17.4659 23.6678 17.4659 23.6779C17.4558 23.6779 17.4457 23.6779 17.4356 23.6779C17.4356 23.688 17.4356 23.6981 17.4356 23.7082C17.4255 23.7082 17.4154 23.7082 17.4053 23.7082C17.4053 23.7183 17.4053 23.7284 17.4053 23.7385C17.3952 23.7385 17.3851 23.7385 17.375 23.7385C17.375 23.7486 17.375 23.7587 17.375 23.7688C17.3649 23.7688 17.3548 23.7688 17.3447 23.7688C17.3447 23.7789 17.3447 23.789 17.3447 23.7991C17.3346 23.7991 17.3245 23.7991 17.3144 23.7991C17.3144 23.8092 17.3144 23.8194 17.3144 23.8294C17.3043 23.8294 17.2942 23.8294 17.2841 23.8294C17.2841 23.8395 17.2841 23.8497 17.2841 23.8597C17.274 23.8597 17.2639 23.8597 17.2538 23.8597C17.2538 23.8698 17.2538 23.88 17.2538 23.89C17.2437 23.89 17.2336 23.89 17.2235 23.89C17.2235 23.9001 17.2235 23.9103 17.2235 23.9203C17.2134 23.9203 17.2033 23.9203 17.1932 23.9203C17.1932 23.9304 17.1932 23.9406 17.1932 23.9506C17.1831 23.9506 17.173 23.9506 17.1629 23.9506C17.1629 23.9607 17.1629 23.9709 17.1629 23.9809C17.1528 23.9809 17.1427 23.9809 17.1326 23.9809C17.1338 23.9988 17.1326 24.0165 17.1288 24.034C17.1211 24.0403 17.1123 24.0428 17.1023 24.0415C17.1048 24.0643 17.0947 24.0744 17.072 24.0719C17.072 24.0819 17.072 24.0921 17.072 24.1022C17.0619 24.1022 17.0518 24.1022 17.0417 24.1022C17.0417 24.1122 17.0417 24.1224 17.0417 24.1325C17.0316 24.1325 17.0215 24.1325 17.0114 24.1325C17.0126 24.1503 17.0113 24.168 17.0076 24.1855C16.9999 24.1919 16.9911 24.1944 16.9811 24.1931C16.9811 24.2031 16.9811 24.2133 16.9811 24.2234C16.971 24.2234 16.9609 24.2234 16.9508 24.2234C16.9508 24.2334 16.9508 24.2436 16.9508 24.2537C16.9002 24.2537 16.8497 24.2537 16.7992 24.2537C16.798 24.1552 16.7992 24.0567 16.803 23.9582C16.8107 23.9519 16.8195 23.9494 16.8295 23.9506C16.8295 23.9001 16.8295 23.8497 16.8295 23.7991C16.8396 23.7991 16.8497 23.7991 16.8598 23.7991C16.8598 23.7385 16.8598 23.6779 16.8598 23.6173C16.8699 23.6173 16.8801 23.6173 16.8902 23.6173C16.8902 23.5567 16.8902 23.4961 16.8902 23.4355C16.9002 23.4355 16.9104 23.4355 16.9205 23.4355C16.9205 23.3749 16.9205 23.3143 16.9205 23.2537C16.9306 23.2537 16.9407 23.2537 16.9508 23.2537C16.9508 23.1931 16.9508 23.1325 16.9508 23.0719C16.9609 23.0719 16.971 23.0719 16.9811 23.0719C16.9798 23.0137 16.9811 22.9556 16.9848 22.8976C16.9925 22.8912 17.0013 22.8887 17.0114 22.89C17.0114 22.8395 17.0114 22.789 17.0114 22.7385C17.0215 22.7385 17.0316 22.7385 17.0417 22.7385C17.0417 22.6779 17.0417 22.6173 17.0417 22.5567C17.0518 22.5567 17.0619 22.5567 17.072 22.5567C17.072 22.4961 17.072 22.4355 17.072 22.3749C17.0821 22.3749 17.0922 22.3749 17.1023 22.3749C17.1023 22.3143 17.1023 22.2537 17.1023 22.1931C17.1124 22.1931 17.1225 22.1931 17.1326 22.1931C17.1313 22.135 17.1326 22.0769 17.1364 22.0188C17.144 22.0125 17.1529 22.01 17.1629 22.0112C17.1616 21.9531 17.1629 21.895 17.1667 21.837C17.1743 21.8306 17.1832 21.8281 17.1932 21.8294C17.1932 21.7789 17.1932 21.7284 17.1932 21.6779C17.2033 21.6779 17.2134 21.6779 17.2235 21.6779C17.2235 21.6173 17.2235 21.5567 17.2235 21.4961C17.2336 21.4961 17.2437 21.4961 17.2538 21.4961C17.2538 21.4355 17.2538 21.3749 17.2538 21.3143C17.2639 21.3143 17.274 21.3143 17.2841 21.3143C17.2841 21.2537 17.2841 21.1931 17.2841 21.1325C17.2942 21.1325 17.3043 21.1325 17.3144 21.1325C17.3131 21.0744 17.3144 21.0162 17.3182 20.9582C17.3258 20.9519 17.3347 20.9494 17.3447 20.9506C17.3447 20.9001 17.3447 20.8497 17.3447 20.7991C17.3548 20.7991 17.3649 20.7991 17.375 20.7991C17.375 20.7385 17.375 20.6779 17.375 20.6173C17.3851 20.6173 17.3952 20.6173 17.4053 20.6173C17.4053 20.5567 17.4053 20.4961 17.4053 20.4355C17.4154 20.4355 17.4255 20.4355 17.4356 20.4355C17.4356 20.3749 17.4356 20.3143 17.4356 20.2537C17.4457 20.2537 17.4558 20.2537 17.4659 20.2537C17.4659 20.1931 17.4659 20.1325 17.4659 20.0719C17.476 20.0719 17.4861 20.0719 17.4962 20.0719C17.495 20.0137 17.4962 19.9556 17.5 19.8976C17.5077 19.8912 17.5165 19.8887 17.5265 19.89C17.5265 19.8395 17.5265 19.789 17.5265 19.7385C17.5366 19.7385 17.5467 19.7385 17.5568 19.7385C17.5568 19.6779 17.5568 19.6173 17.5568 19.5567C17.5669 19.5567 17.577 19.5567 17.5871 19.5567C17.5871 19.4961 17.5871 19.4355 17.5871 19.3749C17.5972 19.3749 17.6073 19.3749 17.6174 19.3749C17.6174 19.3143 17.6174 19.2537 17.6174 19.1931C17.6275 19.1931 17.6377 19.1931 17.6477 19.1931C17.6464 19.135 17.6477 19.0769 17.6515 19.0188C17.6592 19.0125 17.668 19.01 17.678 19.0112C17.6767 18.9531 17.678 18.895 17.6818 18.837C17.6895 18.8306 17.6983 18.8281 17.7083 18.8294C17.7083 18.7789 17.7083 18.7284 17.7083 18.6779C17.7184 18.6779 17.7286 18.6779 17.7386 18.6779C17.7386 18.6173 17.7386 18.5567 17.7386 18.4961C17.7487 18.4961 17.7589 18.4961 17.7689 18.4961C17.7689 18.4355 17.7689 18.3749 17.7689 18.3143C17.779 18.3143 17.7892 18.3143 17.7992 18.3143C17.7992 18.2537 17.7992 18.1931 17.7992 18.1325C17.8093 18.1325 17.8195 18.1325 17.8295 18.1325C17.8283 18.0744 17.8295 18.0162 17.8333 17.9582C17.841 17.9519 17.8498 17.9494 17.8598 17.9506C17.8598 17.9001 17.8598 17.8497 17.8598 17.7991C17.8699 17.7991 17.8801 17.7991 17.8902 17.7991C17.8902 17.7385 17.8902 17.6779 17.8902 17.6173C17.9002 17.6173 17.9104 17.6173 17.9205 17.6173C17.9205 17.5567 17.9205 17.4961 17.9205 17.4355C17.9305 17.4355 17.9407 17.4355 17.9508 17.4355C17.9508 17.3749 17.9508 17.3143 17.9508 17.2537C17.9608 17.2537 17.971 17.2537 17.9811 17.2537C17.9798 17.1956 17.9811 17.1375 17.9848 17.0794C17.9925 17.0731 18.0014 17.0706 18.0114 17.0719C18.0101 17.0137 18.0114 16.9556 18.0152 16.8976C18.0228 16.8912 18.0317 16.8887 18.0417 16.89C18.0417 16.8395 18.0417 16.789 18.0417 16.7385C18.0517 16.7385 18.0619 16.7385 18.072 16.7385C18.072 16.6779 18.072 16.6173 18.072 16.5567C18.082 16.5567 18.0922 16.5567 18.1023 16.5567C18.1023 16.4961 18.1023 16.4355 18.1023 16.3749C18.1123 16.3749 18.1225 16.3749 18.1326 16.3749C18.1326 16.3244 18.1326 16.2739 18.1326 16.2234C18.1427 16.2234 18.1528 16.2234 18.1629 16.2234C18.1629 16.1729 18.1629 16.1224 18.1629 16.0719C18.173 16.0719 18.1831 16.0719 18.1932 16.0719C18.1932 16.0213 18.1932 15.9708 18.1932 15.9203C18.2033 15.9203 18.2134 15.9203 18.2235 15.9203C18.2235 15.8799 18.2235 15.8395 18.2235 15.7991C18.2336 15.7991 18.2437 15.7991 18.2538 15.7991C18.2538 15.7587 18.2538 15.7183 18.2538 15.6779C18.2639 15.6779 18.274 15.6779 18.2841 15.6779C18.2828 15.6399 18.2841 15.6021 18.2879 15.5643C18.2955 15.5579 18.3044 15.5554 18.3144 15.5567C18.3144 15.5264 18.3144 15.4961 18.3144 15.4658C18.3245 15.4658 18.3346 15.4658 18.3447 15.4658C18.3447 15.4355 18.3447 15.4052 18.3447 15.3749C18.3548 15.3749 18.3649 15.3749 18.375 15.3749C18.375 15.3446 18.375 15.3143 18.375 15.284C18.3851 15.284 18.3952 15.284 18.4053 15.284C18.4053 15.2537 18.4053 15.2234 18.4053 15.1931C18.4154 15.1931 18.4255 15.1931 18.4356 15.1931C18.4356 15.1729 18.4356 15.1527 18.4356 15.1325C18.4457 15.1325 18.4558 15.1325 18.4659 15.1325C18.4659 15.1022 18.4659 15.0719 18.4659 15.0415C18.476 15.0415 18.4861 15.0415 18.4962 15.0415C18.4962 15.0213 18.4962 15.0011 18.4962 14.9809C18.5063 14.9809 18.5164 14.9809 18.5265 14.9809C18.5265 14.9607 18.5265 14.9405 18.5265 14.9203C18.5366 14.9203 18.5467 14.9203 18.5568 14.9203C18.5568 14.9001 18.5568 14.8799 18.5568 14.8597C18.5669 14.8597 18.577 14.8597 18.5871 14.8597C18.5871 14.8395 18.5871 14.8193 18.5871 14.7991C18.5972 14.7991 18.6073 14.7991 18.6174 14.7991C18.6174 14.7789 18.6174 14.7587 18.6174 14.7385C18.6275 14.7385 18.6377 14.7385 18.6477 14.7385C18.6477 14.7183 18.6477 14.6981 18.6477 14.6779C18.6578 14.6779 18.668 14.6779 18.678 14.6779C18.678 14.6678 18.678 14.6577 18.678 14.6476C18.6881 14.6476 18.6983 14.6476 18.7083 14.6476C18.7083 14.6274 18.7083 14.6072 18.7083 14.587C18.7184 14.587 18.7286 14.587 18.7386 14.587C18.7374 14.5691 18.7386 14.5515 18.7424 14.534C18.7501 14.5276 18.7589 14.5251 18.7689 14.5264C18.7689 14.5163 18.7689 14.5062 18.7689 14.4961C18.779 14.4961 18.7892 14.4961 18.7992 14.4961C18.7992 14.486 18.7992 14.4759 18.7992 14.4658C18.8093 14.4658 18.8195 14.4658 18.8295 14.4658C18.8283 14.4479 18.8295 14.4303 18.8333 14.4128C18.841 14.4064 18.8498 14.4039 18.8598 14.4052C18.8598 14.3951 18.8598 14.385 18.8598 14.3749C18.8699 14.3749 18.8801 14.3749 18.8902 14.3749C18.8902 14.3648 18.8902 14.3547 18.8902 14.3446C18.9002 14.3446 18.9104 14.3446 18.9205 14.3446C18.9205 14.3345 18.9205 14.3244 18.9205 14.3143C18.9305 14.3143 18.9407 14.3143 18.9508 14.3143C18.9495 14.2964 18.9508 14.2787 18.9545 14.2612C18.9622 14.2549 18.9711 14.2524 18.9811 14.2537C18.9811 14.2436 18.9811 14.2335 18.9811 14.2234C18.9911 14.2234 19.0013 14.2234 19.0114 14.2234C19.0114 14.2133 19.0114 14.2032 19.0114 14.1931C19.0214 14.1931 19.0316 14.1931 19.0417 14.1931C19.0417 14.183 19.0417 14.1729 19.0417 14.1628C19.0517 14.1628 19.0619 14.1628 19.072 14.1628C19.072 14.1527 19.072 14.1426 19.072 14.1325C19.082 14.1325 19.0922 14.1325 19.1023 14.1325C19.1023 14.1224 19.1023 14.1123 19.1023 14.1022C19.1123 14.1022 19.1225 14.1022 19.1326 14.1022C19.1326 14.0921 19.1326 14.0819 19.1326 14.0719C19.1427 14.0719 19.1528 14.0719 19.1629 14.0719C19.1629 14.0618 19.1629 14.0516 19.1629 14.0415C19.173 14.0415 19.1831 14.0415 19.1932 14.0415C19.1932 14.0314 19.1932 14.0213 19.1932 14.0112C19.2033 14.0112 19.2134 14.0112 19.2235 14.0112C19.2235 14.0011 19.2235 13.991 19.2235 13.9809C19.2336 13.9809 19.2437 13.9809 19.2538 13.9809C19.2538 13.9708 19.2538 13.9607 19.2538 13.9506C19.2639 13.9506 19.274 13.9506 19.2841 13.9506C19.2816 13.9279 19.2917 13.9178 19.3144 13.9203C19.3131 13.9103 19.3156 13.9015 19.322 13.8938C19.3395 13.8901 19.3571 13.8888 19.375 13.89C19.375 13.8799 19.375 13.8698 19.375 13.8597C19.3851 13.8597 19.3952 13.8597 19.4053 13.8597C19.4053 13.8496 19.4053 13.8395 19.4053 13.8294C19.4154 13.8294 19.4255 13.8294 19.4356 13.8294C19.4356 13.8193 19.4356 13.8092 19.4356 13.7991C19.4457 13.7991 19.4558 13.7991 19.4659 13.7991C19.4646 13.7891 19.4671 13.7803 19.4735 13.7726C19.491 13.7688 19.5086 13.7676 19.5265 13.7688C19.5265 13.7587 19.5265 13.7486 19.5265 13.7385C19.5366 13.7385 19.5467 13.7385 19.5568 13.7385C19.5568 13.7284 19.5568 13.7183 19.5568 13.7082C19.5669 13.7082 19.577 13.7082 19.5871 13.7082C19.5871 13.6981 19.5871 13.688 19.5871 13.6779C19.5972 13.6779 19.6073 13.6779 19.6174 13.6779C19.6161 13.6679 19.6186 13.6591 19.625 13.6514C19.6425 13.6476 19.6602 13.6464 19.678 13.6476C19.678 13.6375 19.678 13.6274 19.678 13.6173C19.6881 13.6173 19.6983 13.6173 19.7083 13.6173C19.7083 13.6072 19.7083 13.5971 19.7083 13.587C19.7286 13.587 19.7487 13.587 19.7689 13.587C19.7689 13.5769 19.7689 13.5668 19.7689 13.5567C19.779 13.5567 19.7892 13.5567 19.7992 13.5567C19.7992 13.5466 19.7992 13.5365 19.7992 13.5264C19.8195 13.5264 19.8396 13.5264 19.8598 13.5264C19.8598 13.5163 19.8598 13.5062 19.8598 13.4961C19.8699 13.4961 19.8801 13.4961 19.8902 13.4961C19.8902 13.486 19.8902 13.4759 19.8902 13.4658C19.9002 13.4658 19.9104 13.4658 19.9205 13.4658C19.9192 13.4558 19.9217 13.4469 19.928 13.4393C19.9455 13.4355 19.9632 13.4343 19.9811 13.4355C19.9811 13.4254 19.9811 13.4153 19.9811 13.4052C20.0013 13.4052 20.0214 13.4052 20.0417 13.4052C20.0417 13.3951 20.0417 13.385 20.0417 13.3749C20.0517 13.3749 20.0619 13.3749 20.072 13.3749C20.072 13.3648 20.072 13.3547 20.072 13.3446C20.0922 13.3446 20.1123 13.3446 20.1326 13.3446C20.1326 13.3345 20.1326 13.3244 20.1326 13.3143C20.1427 13.3143 20.1528 13.3143 20.1629 13.3143C20.1629 13.3042 20.1629 13.2941 20.1629 13.284C20.1831 13.284 20.2033 13.284 20.2235 13.284C20.2235 13.2739 20.2235 13.2638 20.2235 13.2537C20.2336 13.2537 20.2437 13.2537 20.2538 13.2537C20.2525 13.2437 20.255 13.2348 20.2614 13.2272C20.2789 13.2234 20.2965 13.2221 20.3144 13.2234C20.3144 13.2133 20.3144 13.2032 20.3144 13.1931C20.3346 13.1931 20.3548 13.1931 20.375 13.1931C20.375 13.183 20.375 13.1729 20.375 13.1628C20.3851 13.1628 20.3952 13.1628 20.4053 13.1628C20.404 13.1527 20.4065 13.1439 20.4129 13.1362C20.4304 13.1325 20.448 13.1312 20.4659 13.1325C20.4659 13.1224 20.4659 13.1123 20.4659 13.1022C20.4861 13.1022 20.5063 13.1022 20.5265 13.1022C20.5265 13.0921 20.5265 13.0819 20.5265 13.0719C20.5366 13.0719 20.5467 13.0719 20.5568 13.0719C20.5555 13.0618 20.558 13.053 20.5644 13.0453C20.5819 13.0416 20.5995 13.0403 20.6174 13.0415C20.6174 13.0314 20.6174 13.0213 20.6174 13.0112C20.6377 13.0112 20.6578 13.0112 20.678 13.0112C20.678 13.0011 20.678 12.991 20.678 12.9809C20.6983 12.9809 20.7184 12.9809 20.7386 12.9809C20.7386 12.9708 20.7386 12.9607 20.7386 12.9506C20.7487 12.9506 20.7589 12.9506 20.7689 12.9506C20.7677 12.9406 20.7702 12.9318 20.7765 12.9241C20.794 12.9204 20.8117 12.9191 20.8295 12.9203C20.8295 12.9102 20.8295 12.9001 20.8295 12.89C20.8498 12.89 20.8699 12.89 20.8902 12.89C20.8902 12.8799 20.8902 12.8698 20.8902 12.8597C20.9104 12.8597 20.9305 12.8597 20.9508 12.8597C20.9508 12.8496 20.9508 12.8395 20.9508 12.8294C20.9608 12.8294 20.971 12.8294 20.9811 12.8294C20.9798 12.8194 20.9823 12.8106 20.9886 12.8029C21.0061 12.7991 21.0238 12.7979 21.0417 12.7991C21.0417 12.789 21.0417 12.7789 21.0417 12.7688C21.0619 12.7688 21.082 12.7688 21.1023 12.7688C21.1023 12.7587 21.1023 12.7486 21.1023 12.7385C21.1123 12.7385 21.1225 12.7385 21.1326 12.7385C21.1313 12.7285 21.1338 12.7197 21.1402 12.712C21.1577 12.7082 21.1753 12.707 21.1932 12.7082C21.1932 12.6981 21.1932 12.688 21.1932 12.6779C21.2134 12.6779 21.2336 12.6779 21.2538 12.6779C21.2538 12.6678 21.2538 12.6577 21.2538 12.6476C21.274 12.6476 21.2942 12.6476 21.3144 12.6476C21.3144 12.6375 21.3144 12.6274 21.3144 12.6173C21.3245 12.6173 21.3346 12.6173 21.3447 12.6173C21.3434 12.6073 21.3459 12.5984 21.3523 12.5908C21.3698 12.587 21.3874 12.5858 21.4053 12.587C21.4053 12.5769 21.4053 12.5668 21.4053 12.5567C21.4255 12.5567 21.4457 12.5567 21.4659 12.5567C21.4659 12.5466 21.4659 12.5365 21.4659 12.5264C21.476 12.5264 21.4861 12.5264 21.4962 12.5264C21.4949 12.5164 21.4974 12.5075 21.5038 12.4999C21.5213 12.4961 21.5389 12.4949 21.5568 12.4961C21.5568 12.486 21.5568 12.4759 21.5568 12.4658C21.577 12.4658 21.5972 12.4658 21.6174 12.4658C21.6174 12.4557 21.6174 12.4456 21.6174 12.4355C21.6275 12.4355 21.6377 12.4355 21.6477 12.4355C21.6464 12.4255 21.6489 12.4166 21.6553 12.409C21.6728 12.4052 21.6905 12.4039 21.7083 12.4052C21.7083 12.3951 21.7083 12.385 21.7083 12.3749C21.7286 12.3749 21.7487 12.3749 21.7689 12.3749C21.7689 12.3648 21.7689 12.3547 21.7689 12.3446C21.779 12.3446 21.7892 12.3446 21.7992 12.3446C21.7992 12.3345 21.7992 12.3244 21.7992 12.3143C21.8195 12.3143 21.8396 12.3143 21.8598 12.3143C21.8598 12.3042 21.8598 12.2941 21.8598 12.284C21.8699 12.284 21.8801 12.284 21.8902 12.284C21.8889 12.274 21.8914 12.2651 21.8977 12.2575C21.9152 12.2537 21.9329 12.2524 21.9508 12.2537C21.9508 12.2436 21.9508 12.2335 21.9508 12.2234C21.971 12.2234 21.9911 12.2234 22.0114 12.2234C22.0114 12.2133 22.0114 12.2032 22.0114 12.1931C22.0214 12.1931 22.0316 12.1931 22.0417 12.1931C22.0417 12.183 22.0417 12.1729 22.0417 12.1628C22.0619 12.1628 22.082 12.1628 22.1023 12.1628C22.1023 12.1527 22.1023 12.1426 22.1023 12.1325C22.1123 12.1325 22.1225 12.1325 22.1326 12.1325C22.1313 12.1224 22.1338 12.1136 22.1402 12.1059C22.1577 12.1022 22.1753 12.1009 22.1932 12.1022C22.1932 12.0921 22.1932 12.0819 22.1932 12.0719C22.2033 12.0719 22.2134 12.0719 22.2235 12.0719C22.2222 12.0618 22.2247 12.053 22.2311 12.0453C22.2486 12.0416 22.2662 12.0403 22.2841 12.0415C22.2841 12.0314 22.2841 12.0213 22.2841 12.0112C22.2942 12.0112 22.3043 12.0112 22.3144 12.0112C22.3131 12.0012 22.3156 11.9924 22.322 11.9847C22.3395 11.981 22.3571 11.9797 22.375 11.9809C22.375 11.9708 22.375 11.9607 22.375 11.9506C22.3952 11.9506 22.4154 11.9506 22.4356 11.9506C22.4356 11.9405 22.4356 11.9304 22.4356 11.9203C22.4457 11.9203 22.4558 11.9203 22.4659 11.9203C22.4659 11.9102 22.4659 11.9001 22.4659 11.89C22.4861 11.89 22.5063 11.89 22.5265 11.89C22.5265 11.8799 22.5265 11.8698 22.5265 11.8597C22.5366 11.8597 22.5467 11.8597 22.5568 11.8597C22.5568 11.8496 22.5568 11.8395 22.5568 11.8294C22.577 11.8294 22.5972 11.8294 22.6174 11.8294C22.6174 11.8193 22.6174 11.8092 22.6174 11.7991C22.6275 11.7991 22.6377 11.7991 22.6477 11.7991C22.6477 11.789 22.6477 11.7789 22.6477 11.7688C22.668 11.7688 22.6881 11.7688 22.7083 11.7688C22.7083 11.7587 22.7083 11.7486 22.7083 11.7385C22.7184 11.7385 22.7286 11.7385 22.7386 11.7385C22.7386 11.7284 22.7386 11.7183 22.7386 11.7082C22.7487 11.7082 22.7589 11.7082 22.7689 11.7082C22.7677 11.6982 22.7702 11.6894 22.7765 11.6817C22.794 11.6779 22.8117 11.6767 22.8295 11.6779C22.8295 11.6678 22.8295 11.6577 22.8295 11.6476C22.8396 11.6476 22.8498 11.6476 22.8598 11.6476C22.8586 11.6376 22.8611 11.6288 22.8674 11.6211C22.8849 11.6173 22.9026 11.6161 22.9205 11.6173C22.9205 11.6072 22.9205 11.5971 22.9205 11.587C22.9305 11.587 22.9407 11.587 22.9508 11.587C22.9495 11.577 22.952 11.5681 22.9583 11.5605C22.9758 11.5567 22.9935 11.5555 23.0114 11.5567C23.0114 11.5466 23.0114 11.5365 23.0114 11.5264C23.0214 11.5264 23.0316 11.5264 23.0417 11.5264C23.0417 11.5163 23.0417 11.5062 23.0417 11.4961C23.0619 11.4961 23.082 11.4961 23.1023 11.4961C23.1023 11.486 23.1023 11.4759 23.1023 11.4658C23.1123 11.4658 23.1225 11.4658 23.1326 11.4658C23.1326 11.4557 23.1326 11.4456 23.1326 11.4355C23.1427 11.4355 23.1528 11.4355 23.1629 11.4355C23.1616 11.4255 23.1641 11.4166 23.1705 11.409C23.188 11.4052 23.2056 11.4039 23.2235 11.4052C23.2235 11.3951 23.2235 11.385 23.2235 11.3749C23.2336 11.3749 23.2437 11.3749 23.2538 11.3749C23.2538 11.3648 23.2538 11.3547 23.2538 11.3446C23.274 11.3446 23.2942 11.3446 23.3144 11.3446C23.3144 11.3345 23.3144 11.3244 23.3144 11.3143C23.3245 11.3143 23.3346 11.3143 23.3447 11.3143C23.3447 11.3042 23.3447 11.2941 23.3447 11.284C23.3548 11.284 23.3649 11.284 23.375 11.284C23.3737 11.274 23.3762 11.2651 23.3826 11.2575C23.4001 11.2537 23.4177 11.2524 23.4356 11.2537C23.4356 11.2436 23.4356 11.2335 23.4356 11.2234C23.4457 11.2234 23.4558 11.2234 23.4659 11.2234C23.4659 11.2133 23.4659 11.2032 23.4659 11.1931C23.476 11.1931 23.4861 11.1931 23.4962 11.1931C23.4949 11.183 23.4974 11.1742 23.5038 11.1665C23.5213 11.1628 23.5389 11.1615 23.5568 11.1628C23.5568 11.1527 23.5568 11.1426 23.5568 11.1325C23.5669 11.1325 23.577 11.1325 23.5871 11.1325C23.5871 11.1224 23.5871 11.1123 23.5871 11.1022C23.5972 11.1022 23.6073 11.1022 23.6174 11.1022C23.6161 11.0921 23.6186 11.0833 23.625 11.0756C23.6425 11.0719 23.6602 11.0706 23.678 11.0719C23.678 11.0618 23.678 11.0516 23.678 11.0415C23.6881 11.0415 23.6983 11.0415 23.7083 11.0415C23.7083 11.0314 23.7083 11.0213 23.7083 11.0112C23.7184 11.0112 23.7286 11.0112 23.7386 11.0112C23.7373 11.0012 23.7398 10.9924 23.7462 10.9847C23.7637 10.981 23.7814 10.9797 23.7992 10.9809C23.7992 10.9708 23.7992 10.9607 23.7992 10.9506C23.8093 10.9506 23.8195 10.9506 23.8295 10.9506C23.8295 10.9405 23.8295 10.9304 23.8295 10.9203C23.8396 10.9203 23.8498 10.9203 23.8598 10.9203C23.8598 10.9102 23.8598 10.9001 23.8598 10.89C23.8699 10.89 23.8801 10.89 23.8902 10.89C23.8889 10.88 23.8914 10.8712 23.8977 10.8635C23.9152 10.8598 23.9329 10.8585 23.9508 10.8597C23.9508 10.8496 23.9508 10.8395 23.9508 10.8294C23.9608 10.8294 23.971 10.8294 23.9811 10.8294C23.9811 10.8193 23.9811 10.8092 23.9811 10.7991C23.9911 10.7991 24.0013 10.7991 24.0114 10.7991C24.0101 10.7891 24.0126 10.7803 24.0189 10.7726C24.0364 10.7688 24.0541 10.7676 24.072 10.7688C24.072 10.7587 24.072 10.7486 24.072 10.7385C24.082 10.7385 24.0922 10.7385 24.1023 10.7385C24.1023 10.7284 24.1023 10.7183 24.1023 10.7082C24.1123 10.7082 24.1225 10.7082 24.1326 10.7082C24.1326 10.6981 24.1326 10.688 24.1326 10.6779C24.1427 10.6779 24.1528 10.6779 24.1629 10.6779C24.1616 10.6679 24.1641 10.6591 24.1705 10.6514C24.188 10.6476 24.2056 10.6464 24.2235 10.6476C24.2235 10.6375 24.2235 10.6274 24.2235 10.6173C24.2336 10.6173 24.2437 10.6173 24.2538 10.6173C24.2538 10.6072 24.2538 10.5971 24.2538 10.587C24.2639 10.587 24.274 10.587 24.2841 10.587C24.2841 10.5769 24.2841 10.5668 24.2841 10.5567C24.2942 10.5567 24.3043 10.5567 24.3144 10.5567C24.3144 10.5466 24.3144 10.5365 24.3144 10.5264C24.3245 10.5264 24.3346 10.5264 24.3447 10.5264C24.3434 10.5164 24.3459 10.5075 24.3523 10.4999C24.3698 10.4961 24.3874 10.4949 24.4053 10.4961C24.4053 10.486 24.4053 10.4759 24.4053 10.4658C24.4154 10.4658 24.4255 10.4658 24.4356 10.4658C24.4356 10.4557 24.4356 10.4456 24.4356 10.4355C24.4457 10.4355 24.4558 10.4355 24.4659 10.4355C24.4659 10.4254 24.4659 10.4153 24.4659 10.4052C24.476 10.4052 24.4861 10.4052 24.4962 10.4052C24.4962 10.3951 24.4962 10.385 24.4962 10.3749C24.5063 10.3749 24.5164 10.3749 24.5265 10.3749C24.524 10.3522 24.5341 10.3421 24.5568 10.3446C24.5555 10.3346 24.558 10.3257 24.5644 10.3181C24.5819 10.3143 24.5995 10.313 24.6174 10.3143C24.6174 10.3042 24.6174 10.2941 24.6174 10.284C24.6275 10.284 24.6377 10.284 24.6477 10.284C24.6477 10.2739 24.6477 10.2638 24.6477 10.2537C24.6578 10.2537 24.668 10.2537 24.678 10.2537C24.678 10.2436 24.678 10.2335 24.678 10.2234C24.6881 10.2234 24.6983 10.2234 24.7083 10.2234C24.7083 10.2133 24.7083 10.2032 24.7083 10.1931C24.7184 10.1931 24.7286 10.1931 24.7386 10.1931C24.7386 10.183 24.7386 10.1729 24.7386 10.1628C24.7487 10.1628 24.7589 10.1628 24.7689 10.1628C24.7689 10.1527 24.7689 10.1426 24.7689 10.1325C24.779 10.1325 24.7892 10.1325 24.7992 10.1325C24.7967 10.1097 24.8068 10.0996 24.8295 10.1022C24.8283 10.0921 24.8308 10.0833 24.8371 10.0756C24.8546 10.0719 24.8723 10.0706 24.8902 10.0719C24.8902 10.0618 24.8902 10.0516 24.8902 10.0415C24.9002 10.0415 24.9104 10.0415 24.9205 10.0415C24.9205 10.0314 24.9205 10.0213 24.9205 10.0112C24.9305 10.0112 24.9407 10.0112 24.9508 10.0112C24.9508 10.0011 24.9508 9.99104 24.9508 9.98094C24.9608 9.98094 24.971 9.98094 24.9811 9.98094C24.9811 9.97084 24.9811 9.96074 24.9811 9.95064C24.9911 9.95064 25.0013 9.95064 25.0114 9.95064C25.0114 9.94054 25.0114 9.93043 25.0114 9.92034C25.0214 9.92034 25.0316 9.92034 25.0417 9.92034C25.0417 9.91024 25.0417 9.90013 25.0417 9.89003C25.0517 9.89003 25.0619 9.89003 25.072 9.89003C25.072 9.87993 25.072 9.86983 25.072 9.85973C25.082 9.85973 25.0922 9.85973 25.1023 9.85973C25.1023 9.84963 25.1023 9.83953 25.1023 9.82943C25.1123 9.82943 25.1225 9.82943 25.1326 9.82943C25.1326 9.81933 25.1326 9.80922 25.1326 9.79912C25.1427 9.79912 25.1528 9.79912 25.1629 9.79912C25.1629 9.78903 25.1629 9.77892 25.1629 9.76882C25.173 9.76882 25.1831 9.76882 25.1932 9.76882C25.1932 9.75872 25.1932 9.74862 25.1932 9.73852C25.2033 9.73852 25.2134 9.73852 25.2235 9.73852C25.2235 9.72842 25.2235 9.71832 25.2235 9.70821C25.2336 9.70821 25.2437 9.70821 25.2538 9.70821C25.2538 9.69811 25.2538 9.68801 25.2538 9.67791C25.2639 9.67791 25.274 9.67791 25.2841 9.67791C25.2841 9.66781 25.2841 9.65771 25.2841 9.64761C25.2942 9.64761 25.3043 9.64761 25.3144 9.64761C25.3144 9.63751 25.3144 9.62741 25.3144 9.61731C25.3245 9.61731 25.3346 9.61731 25.3447 9.61731C25.3447 9.60721 25.3447 9.5971 25.3447 9.587C25.3548 9.587 25.3649 9.587 25.375 9.587C25.375 9.5769 25.375 9.5668 25.375 9.5567C25.3851 9.5567 25.3952 9.5567 25.4053 9.5567C25.4053 9.5466 25.4053 9.5365 25.4053 9.5264C25.4154 9.5264 25.4255 9.5264 25.4356 9.5264C25.4356 9.5163 25.4356 9.50619 25.4356 9.49609C25.4457 9.49609 25.4558 9.49609 25.4659 9.49609C25.4659 9.48599 25.4659 9.47589 25.4659 9.46579C25.476 9.46579 25.4861 9.46579 25.4962 9.46579C25.4962 9.45569 25.4962 9.44559 25.4962 9.43549C25.5063 9.43549 25.5164 9.43549 25.5265 9.43549C25.5265 9.42539 25.5265 9.41529 25.5265 9.40518C25.5366 9.40518 25.5467 9.40518 25.5568 9.40518C25.5556 9.38733 25.5568 9.36965 25.5606 9.35215C25.5683 9.34582 25.5771 9.34329 25.5871 9.34458C25.5846 9.32185 25.5947 9.31175 25.6174 9.31428C25.6174 9.30417 25.6174 9.29407 25.6174 9.28397C25.6275 9.28397 25.6377 9.28397 25.6477 9.28397C25.6477 9.27387 25.6477 9.26377 25.6477 9.25367C25.6578 9.25367 25.668 9.25367 25.678 9.25367C25.678 9.24357 25.678 9.23347 25.678 9.22337C25.6881 9.22337 25.6983 9.22337 25.7083 9.22337C25.7071 9.20551 25.7083 9.18783 25.7121 9.17034C25.7198 9.164 25.7286 9.16147 25.7386 9.16276C25.7386 9.15266 25.7386 9.14256 25.7386 9.13246C25.7487 9.13246 25.7589 9.13246 25.7689 9.13246C25.7689 9.12236 25.7689 9.11226 25.7689 9.10215C25.779 9.10215 25.7892 9.10215 25.7992 9.10215C25.798 9.0843 25.7992 9.06662 25.803 9.04912C25.8107 9.04279 25.8195 9.04026 25.8295 9.04155C25.8295 9.03145 25.8295 9.02135 25.8295 9.01125C25.8445 9.01384 25.8547 9.00879 25.8598 8.99609Z" fill="#979BA0"/>
<path opacity="0.992" fill-rule="evenodd" clip-rule="evenodd" d="M15.1629 27.0569C15.1124 27.0569 15.0619 27.0569 15.0114 27.0569C15.0114 27.0418 15.0114 27.0266 15.0114 27.0115C15.0013 27.0128 14.9925 27.0103 14.9848 27.0039C14.9811 26.9762 14.9798 26.9484 14.981 26.9206C14.971 26.9206 14.9608 26.9206 14.9507 26.9206C14.9507 26.9003 14.9507 26.8802 14.9507 26.86C14.9407 26.8612 14.9319 26.8587 14.9242 26.8524C14.9205 26.8247 14.9192 26.7969 14.9204 26.769C14.9103 26.769 14.9002 26.769 14.8901 26.769C14.8901 26.7488 14.8901 26.7287 14.8901 26.7084C14.88 26.7084 14.8699 26.7084 14.8598 26.7084C14.8598 26.6984 14.8598 26.6882 14.8598 26.6781C14.8498 26.6794 14.841 26.6769 14.8333 26.6706C14.8296 26.6531 14.8283 26.6354 14.8295 26.6175C14.8194 26.6175 14.8093 26.6175 14.7992 26.6175C14.7992 26.5973 14.7992 26.5771 14.7992 26.5569C14.7891 26.5569 14.779 26.5569 14.7689 26.5569C14.7689 26.5367 14.7689 26.5165 14.7689 26.4963C14.7588 26.4963 14.7487 26.4963 14.7386 26.4963C14.7386 26.4862 14.7386 26.4761 14.7386 26.466C14.7285 26.466 14.7184 26.466 14.7083 26.466C14.7083 26.4458 14.7083 26.4256 14.7083 26.4054C14.6982 26.4054 14.6881 26.4054 14.678 26.4054C14.678 26.3953 14.678 26.3852 14.678 26.3751C14.668 26.3764 14.6592 26.3739 14.6515 26.3675C14.6477 26.35 14.6465 26.3324 14.6477 26.3145C14.6376 26.3145 14.6275 26.3145 14.6174 26.3145C14.6174 26.3044 14.6174 26.2943 14.6174 26.2842C14.6074 26.2855 14.5986 26.283 14.5909 26.2766C14.5871 26.2591 14.5859 26.2415 14.5871 26.2236C14.577 26.2236 14.5669 26.2236 14.5568 26.2236C14.5568 26.2135 14.5568 26.2034 14.5568 26.1933C14.5467 26.1933 14.5366 26.1933 14.5265 26.1933C14.5265 26.1731 14.5265 26.1529 14.5265 26.1327C14.5164 26.1327 14.5063 26.1327 14.4962 26.1327C14.4962 26.1226 14.4962 26.1125 14.4962 26.1024C14.4861 26.1024 14.476 26.1024 14.4659 26.1024C14.4659 26.0923 14.4659 26.0821 14.4659 26.0721C14.4558 26.0721 14.4457 26.0721 14.4356 26.0721C14.4356 26.0518 14.4356 26.0317 14.4356 26.0115C14.4255 26.0115 14.4154 26.0115 14.4053 26.0115C14.4053 26.0014 14.4053 25.9912 14.4053 25.9812C14.3952 25.9812 14.3851 25.9812 14.375 25.9812C14.375 25.9711 14.375 25.9609 14.375 25.9509C14.3649 25.9509 14.3548 25.9509 14.3447 25.9509C14.3447 25.9408 14.3447 25.9306 14.3447 25.9206C14.3347 25.9218 14.3258 25.9193 14.3182 25.913C14.3144 25.8955 14.3131 25.8778 14.3144 25.86C14.3043 25.86 14.2942 25.86 14.2841 25.86C14.2841 25.8499 14.2841 25.8397 14.2841 25.8296C14.274 25.8296 14.2639 25.8296 14.2538 25.8296C14.2538 25.8196 14.2538 25.8094 14.2538 25.7993C14.231 25.8018 14.221 25.7918 14.2235 25.769C14.2135 25.7703 14.2046 25.7678 14.197 25.7615C14.1932 25.744 14.1919 25.7263 14.1932 25.7084C14.1831 25.7084 14.173 25.7084 14.1629 25.7084C14.1629 25.6984 14.1629 25.6882 14.1629 25.6781C14.1528 25.6781 14.1427 25.6781 14.1326 25.6781C14.1326 25.6681 14.1326 25.6579 14.1326 25.6478C14.1225 25.6478 14.1124 25.6478 14.1023 25.6478C14.1023 25.6378 14.1023 25.6276 14.1023 25.6175C14.0795 25.62 14.0694 25.61 14.072 25.5872C14.0619 25.5885 14.0531 25.586 14.0454 25.5796C14.0417 25.5621 14.0404 25.5445 14.0417 25.5266C14.0316 25.5266 14.0215 25.5266 14.0114 25.5266C14.0114 25.5165 14.0114 25.5064 14.0114 25.4963C14.0013 25.4963 13.9911 25.4963 13.981 25.4963C13.981 25.4862 13.981 25.4761 13.981 25.466C13.971 25.466 13.9608 25.466 13.9507 25.466C13.9507 25.4559 13.9507 25.4458 13.9507 25.4357C13.9406 25.4357 13.9305 25.4357 13.9204 25.4357C13.9204 25.4256 13.9204 25.4155 13.9204 25.4054C13.9103 25.4054 13.9002 25.4054 13.8901 25.4054C13.8901 25.3953 13.8901 25.3852 13.8901 25.3751C13.8674 25.3776 13.8573 25.3675 13.8598 25.3448C13.8498 25.3461 13.841 25.3436 13.8333 25.3372C13.8296 25.3197 13.8283 25.3021 13.8295 25.2842C13.8194 25.2842 13.8093 25.2842 13.7992 25.2842C13.7992 25.2741 13.7992 25.264 13.7992 25.2539C13.7891 25.2539 13.779 25.2539 13.7689 25.2539C13.7689 25.2438 13.7689 25.2337 13.7689 25.2236C13.7588 25.2236 13.7487 25.2236 13.7386 25.2236C13.7386 25.2135 13.7386 25.2034 13.7386 25.1933C13.7285 25.1933 13.7184 25.1933 13.7083 25.1933C13.7083 25.1832 13.7083 25.1731 13.7083 25.163C13.6982 25.163 13.6881 25.163 13.678 25.163C13.678 25.1529 13.678 25.1428 13.678 25.1327C13.6679 25.1327 13.6578 25.1327 13.6477 25.1327C13.6477 25.1226 13.6477 25.1125 13.6477 25.1024C13.6376 25.1024 13.6275 25.1024 13.6174 25.1024C13.6174 25.0923 13.6174 25.0821 13.6174 25.0721C13.6073 25.0721 13.5972 25.0721 13.5871 25.0721C13.5871 25.062 13.5871 25.0518 13.5871 25.0418C13.577 25.0418 13.5669 25.0418 13.5568 25.0418C13.5568 25.0317 13.5568 25.0215 13.5568 25.0115C13.5467 25.0115 13.5366 25.0115 13.5265 25.0115C13.5265 25.0014 13.5265 24.9912 13.5265 24.9812C13.5164 24.9812 13.5063 24.9812 13.4962 24.9812C13.4962 24.9711 13.4962 24.9609 13.4962 24.9509C13.4861 24.9509 13.476 24.9509 13.4659 24.9509C13.4659 24.9408 13.4659 24.9306 13.4659 24.9206C13.4558 24.9206 13.4457 24.9206 13.4356 24.9206C13.4356 24.9105 13.4356 24.9003 13.4356 24.8903C13.4129 24.8928 13.4028 24.8827 13.4053 24.86C13.3826 24.8625 13.3725 24.8524 13.375 24.8296C13.3523 24.8321 13.3422 24.8221 13.3447 24.7993C13.322 24.8018 13.3119 24.7918 13.3144 24.769C13.2917 24.7715 13.2816 24.7615 13.2841 24.7387C13.2614 24.7412 13.2513 24.7312 13.2538 24.7084C13.231 24.7109 13.221 24.7009 13.2235 24.6781C13.2007 24.6806 13.1906 24.6706 13.1932 24.6478C13.1831 24.6478 13.173 24.6478 13.1629 24.6478C13.1629 24.6378 13.1629 24.6276 13.1629 24.6175C13.1528 24.6175 13.1427 24.6175 13.1326 24.6175C13.1326 24.6075 13.1326 24.5973 13.1326 24.5872C13.1225 24.5872 13.1124 24.5872 13.1023 24.5872C13.1023 24.5771 13.1023 24.567 13.1023 24.5569C13.0922 24.5569 13.0821 24.5569 13.072 24.5569C13.072 24.5468 13.072 24.5367 13.072 24.5266C13.0619 24.5266 13.0518 24.5266 13.0417 24.5266C13.0417 24.5165 13.0417 24.5064 13.0417 24.4963C13.0316 24.4963 13.0215 24.4963 13.0114 24.4963C13.0114 24.4862 13.0114 24.4761 13.0114 24.466C13.0013 24.466 12.9911 24.466 12.981 24.466C12.981 24.4559 12.981 24.4458 12.981 24.4357C12.971 24.4357 12.9608 24.4357 12.9507 24.4357C12.9507 24.4256 12.9507 24.4155 12.9507 24.4054C12.9406 24.4054 12.9305 24.4054 12.9204 24.4054C12.9204 24.3953 12.9204 24.3852 12.9204 24.3751C12.9103 24.3751 12.9002 24.3751 12.8901 24.3751C12.8901 24.365 12.8901 24.3549 12.8901 24.3448C12.88 24.3448 12.8699 24.3448 12.8598 24.3448C12.8598 24.3347 12.8598 24.3246 12.8598 24.3145C12.8497 24.3145 12.8396 24.3145 12.8295 24.3145C12.8295 24.3044 12.8295 24.2943 12.8295 24.2842C12.8194 24.2842 12.8093 24.2842 12.7992 24.2842C12.7992 24.2741 12.7992 24.264 12.7992 24.2539C12.7891 24.2539 12.779 24.2539 12.7689 24.2539C12.7689 24.2438 12.7689 24.2337 12.7689 24.2236C12.7511 24.2248 12.7334 24.2236 12.7159 24.2198C12.7096 24.2121 12.707 24.2033 12.7083 24.1933C12.6856 24.1958 12.6755 24.1857 12.678 24.163C12.6553 24.1655 12.6452 24.1554 12.6477 24.1327C12.6376 24.1327 12.6275 24.1327 12.6174 24.1327C12.6174 24.1226 12.6174 24.1125 12.6174 24.1024C12.6073 24.1024 12.5972 24.1024 12.5871 24.1024C12.5871 24.0923 12.5871 24.0821 12.5871 24.0721C12.577 24.0721 12.5669 24.0721 12.5568 24.0721C12.5568 24.062 12.5568 24.0518 12.5568 24.0418C12.5467 24.0418 12.5366 24.0418 12.5265 24.0418C12.5265 24.0317 12.5265 24.0215 12.5265 24.0115C12.5164 24.0115 12.5063 24.0115 12.4962 24.0115C12.4962 24.0014 12.4962 23.9912 12.4962 23.9812C12.4861 23.9812 12.476 23.9812 12.4659 23.9812C12.4659 23.9711 12.4659 23.9609 12.4659 23.9509C12.448 23.9521 12.4304 23.9509 12.4129 23.9471C12.4065 23.9394 12.404 23.9306 12.4053 23.9206C12.3826 23.9231 12.3725 23.913 12.375 23.8903C12.3649 23.8903 12.3548 23.8903 12.3447 23.8903C12.3447 23.8802 12.3447 23.87 12.3447 23.86C12.3346 23.86 12.3245 23.86 12.3144 23.86C12.3144 23.8499 12.3144 23.8397 12.3144 23.8296C12.3043 23.8296 12.2942 23.8296 12.2841 23.8296C12.2841 23.8196 12.2841 23.8094 12.2841 23.7993C12.274 23.7993 12.2639 23.7993 12.2538 23.7993C12.2538 23.7893 12.2538 23.7791 12.2538 23.769C12.2437 23.769 12.2336 23.769 12.2235 23.769C12.2235 23.759 12.2235 23.7488 12.2235 23.7387C12.2056 23.74 12.1879 23.7387 12.1704 23.735C12.1641 23.7273 12.1616 23.7184 12.1629 23.7084C12.1401 23.7109 12.13 23.7009 12.1326 23.6781C12.1225 23.6781 12.1124 23.6781 12.1023 23.6781C12.1023 23.6681 12.1023 23.6579 12.1023 23.6478C12.0922 23.6478 12.0821 23.6478 12.072 23.6478C12.072 23.6378 12.072 23.6276 12.072 23.6175C12.0619 23.6175 12.0518 23.6175 12.0417 23.6175C12.0417 23.6075 12.0417 23.5973 12.0417 23.5872C12.0316 23.5872 12.0215 23.5872 12.0114 23.5872C12.0114 23.5771 12.0114 23.567 12.0114 23.5569C11.9935 23.5581 11.9758 23.5569 11.9583 23.5531C11.952 23.5455 11.9495 23.5366 11.9507 23.5266C11.928 23.5291 11.9179 23.519 11.9204 23.4963C11.9103 23.4963 11.9002 23.4963 11.8901 23.4963C11.8901 23.4862 11.8901 23.4761 11.8901 23.466C11.88 23.466 11.8699 23.466 11.8598 23.466C11.8598 23.4559 11.8598 23.4458 11.8598 23.4357C11.8497 23.4357 11.8396 23.4357 11.8295 23.4357C11.8295 23.4256 11.8295 23.4155 11.8295 23.4054C11.8194 23.4054 11.8093 23.4054 11.7992 23.4054C11.7992 23.3953 11.7992 23.3852 11.7992 23.3751C11.7814 23.3763 11.7637 23.3751 11.7462 23.3713C11.7399 23.3637 11.7373 23.3548 11.7386 23.3448C11.7285 23.3448 11.7184 23.3448 11.7083 23.3448C11.7083 23.3347 11.7083 23.3246 11.7083 23.3145C11.6982 23.3145 11.6881 23.3145 11.678 23.3145C11.678 23.3044 11.678 23.2943 11.678 23.2842C11.6679 23.2842 11.6578 23.2842 11.6477 23.2842C11.6477 23.2741 11.6477 23.264 11.6477 23.2539C11.6299 23.2551 11.6122 23.2539 11.5947 23.2501C11.5883 23.2425 11.5858 23.2336 11.5871 23.2236C11.5644 23.2261 11.5543 23.216 11.5568 23.1933C11.5467 23.1933 11.5366 23.1933 11.5265 23.1933C11.5265 23.1832 11.5265 23.1731 11.5265 23.163C11.5164 23.163 11.5063 23.163 11.4962 23.163C11.4962 23.1529 11.4962 23.1428 11.4962 23.1327C11.4861 23.1327 11.476 23.1327 11.4659 23.1327C11.4659 23.1226 11.4659 23.1125 11.4659 23.1024C11.448 23.1036 11.4304 23.1024 11.4129 23.0986C11.4065 23.0909 11.404 23.0821 11.4053 23.0721C11.3952 23.0721 11.3851 23.0721 11.375 23.0721C11.375 23.062 11.375 23.0518 11.375 23.0418C11.3649 23.0418 11.3548 23.0418 11.3447 23.0418C11.3447 23.0317 11.3447 23.0215 11.3447 23.0115C11.3346 23.0115 11.3245 23.0115 11.3144 23.0115C11.3144 23.0014 11.3144 22.9912 11.3144 22.9812C11.3043 22.9812 11.2942 22.9812 11.2841 22.9812C11.2841 22.9711 11.2841 22.9609 11.2841 22.9509C11.2662 22.9521 11.2485 22.9509 11.231 22.9471C11.2247 22.9394 11.2222 22.9306 11.2235 22.9206C11.2134 22.9206 11.2033 22.9206 11.1932 22.9206C11.1932 22.9105 11.1932 22.9003 11.1932 22.8903C11.1831 22.8903 11.173 22.8903 11.1629 22.8903C11.1629 22.8802 11.1629 22.87 11.1629 22.86C11.1528 22.86 11.1427 22.86 11.1326 22.86C11.1326 22.8499 11.1326 22.8397 11.1326 22.8296C11.1225 22.8296 11.1124 22.8296 11.1023 22.8296C11.1023 22.8196 11.1023 22.8094 11.1023 22.7993C11.0922 22.7993 11.0821 22.7993 11.072 22.7993C11.072 22.7893 11.072 22.7791 11.072 22.769C11.0541 22.7703 11.0364 22.769 11.0189 22.7653C11.0126 22.7576 11.0101 22.7487 11.0114 22.7387C10.9886 22.7412 10.9785 22.7312 10.981 22.7084C10.971 22.7084 10.9608 22.7084 10.9507 22.7084C10.9507 22.6984 10.9507 22.6882 10.9507 22.6781C10.9406 22.6781 10.9305 22.6781 10.9204 22.6781C10.9204 22.6681 10.9204 22.6579 10.9204 22.6478C10.9103 22.6478 10.9002 22.6478 10.8901 22.6478C10.8901 22.6378 10.8901 22.6276 10.8901 22.6175C10.88 22.6175 10.8699 22.6175 10.8598 22.6175C10.8598 22.6075 10.8598 22.5973 10.8598 22.5872C10.8497 22.5872 10.8396 22.5872 10.8295 22.5872C10.8295 22.5771 10.8295 22.567 10.8295 22.5569C10.8194 22.5569 10.8093 22.5569 10.7992 22.5569C10.7992 22.5468 10.7992 22.5367 10.7992 22.5266C10.7891 22.5266 10.779 22.5266 10.7689 22.5266C10.7689 22.5165 10.7689 22.5064 10.7689 22.4963C10.7588 22.4963 10.7487 22.4963 10.7386 22.4963C10.7386 22.4862 10.7386 22.4761 10.7386 22.466C10.7285 22.466 10.7184 22.466 10.7083 22.466C10.7083 22.4559 10.7083 22.4458 10.7083 22.4357C10.6982 22.4357 10.6881 22.4357 10.678 22.4357C10.678 22.4256 10.678 22.4155 10.678 22.4054C10.6679 22.4054 10.6578 22.4054 10.6477 22.4054C10.6477 22.3953 10.6477 22.3852 10.6477 22.3751C10.6376 22.3751 10.6275 22.3751 10.6174 22.3751C10.6174 22.365 10.6174 22.3549 10.6174 22.3448C10.6073 22.3448 10.5972 22.3448 10.5871 22.3448C10.5871 22.3347 10.5871 22.3246 10.5871 22.3145C10.577 22.3145 10.5669 22.3145 10.5568 22.3145C10.5568 22.3044 10.5568 22.2943 10.5568 22.2842C10.5341 22.2867 10.524 22.2766 10.5265 22.2539C10.5165 22.2552 10.5076 22.2527 10.5 22.2463C10.4962 22.2288 10.495 22.2112 10.4962 22.1933C10.4861 22.1933 10.476 22.1933 10.4659 22.1933C10.4659 22.1832 10.4659 22.1731 10.4659 22.163C10.4558 22.163 10.4457 22.163 10.4356 22.163C10.4356 22.1529 10.4356 22.1428 10.4356 22.1327C10.4255 22.1327 10.4154 22.1327 10.4053 22.1327C10.4053 22.1226 10.4053 22.1125 10.4053 22.1024C10.3953 22.1037 10.3864 22.1012 10.3788 22.0948C10.375 22.0773 10.3738 22.0596 10.375 22.0418C10.3649 22.0418 10.3548 22.0418 10.3447 22.0418C10.3447 22.0317 10.3447 22.0215 10.3447 22.0115C10.3346 22.0115 10.3245 22.0115 10.3144 22.0115C10.3144 21.9912 10.3144 21.9711 10.3144 21.9509C10.3043 21.9509 10.2942 21.9509 10.2841 21.9509C10.2841 21.9408 10.2841 21.9306 10.2841 21.9206C10.2741 21.9218 10.2652 21.9193 10.2576 21.913C10.2538 21.8955 10.2525 21.8778 10.2538 21.86C10.2437 21.86 10.2336 21.86 10.2235 21.86C10.2235 21.8397 10.2235 21.8196 10.2235 21.7993C10.2134 21.7993 10.2033 21.7993 10.1932 21.7993C10.1932 21.7791 10.1932 21.759 10.1932 21.7387C10.1831 21.7387 10.173 21.7387 10.1629 21.7387C10.1629 21.7185 10.1629 21.6984 10.1629 21.6781C10.1528 21.6781 10.1427 21.6781 10.1326 21.6781C10.1326 21.6579 10.1326 21.6378 10.1326 21.6175C10.1225 21.6188 10.1137 21.6163 10.106 21.61C10.1023 21.5823 10.101 21.5545 10.1023 21.5266C10.0922 21.5266 10.0821 21.5266 10.072 21.5266C10.072 21.4963 10.072 21.466 10.072 21.4357C10.0619 21.437 10.0531 21.4345 10.0454 21.4281C10.0417 21.3803 10.0404 21.3322 10.0417 21.2842C10.0316 21.2842 10.0215 21.2842 10.0114 21.2842C10.0162 21.2105 10.0111 21.1398 9.9962 21.0721C9.9962 20.87 9.9962 20.6681 9.9962 20.466C10.0112 20.378 10.0162 20.2871 10.0114 20.1933C10.0215 20.1933 10.0316 20.1933 10.0417 20.1933C10.0417 20.1226 10.0417 20.0518 10.0417 19.9812C10.0518 19.9812 10.0619 19.9812 10.072 19.9812C10.072 19.9206 10.072 19.86 10.072 19.7993C10.0821 19.7993 10.0922 19.7993 10.1023 19.7993C10.1023 19.7488 10.1023 19.6984 10.1023 19.6478C10.1124 19.6478 10.1225 19.6478 10.1326 19.6478C10.1326 19.5872 10.1326 19.5266 10.1326 19.466C10.1427 19.466 10.1528 19.466 10.1629 19.466C10.1629 19.4054 10.1629 19.3448 10.1629 19.2842C10.173 19.2842 10.1831 19.2842 10.1932 19.2842C10.1932 19.2236 10.1932 19.163 10.1932 19.1024C10.2033 19.1024 10.2134 19.1024 10.2235 19.1024C10.2222 19.0443 10.2235 18.9862 10.2273 18.9281C10.2349 18.9218 10.2438 18.9193 10.2538 18.9206C10.2538 18.87 10.2538 18.8196 10.2538 18.769C10.2639 18.769 10.274 18.769 10.2841 18.769C10.2841 18.7084 10.2841 18.6478 10.2841 18.5872C10.2942 18.5872 10.3043 18.5872 10.3144 18.5872C10.3144 18.5266 10.3144 18.466 10.3144 18.4054C10.3245 18.4054 10.3346 18.4054 10.3447 18.4054C10.3447 18.3448 10.3447 18.2842 10.3447 18.2236C10.3548 18.2236 10.3649 18.2236 10.375 18.2236C10.375 18.163 10.375 18.1024 10.375 18.0418C10.3851 18.0418 10.3952 18.0418 10.4053 18.0418C10.404 17.9837 10.4053 17.9256 10.4091 17.8675C10.4167 17.8612 10.4256 17.8587 10.4356 17.86C10.4356 17.8094 10.4356 17.759 10.4356 17.7084C10.4457 17.7084 10.4558 17.7084 10.4659 17.7084C10.4659 17.6478 10.4659 17.5872 10.4659 17.5266C10.476 17.5266 10.4861 17.5266 10.4962 17.5266C10.4962 17.466 10.4962 17.4054 10.4962 17.3448C10.5063 17.3448 10.5164 17.3448 10.5265 17.3448C10.5265 17.2842 10.5265 17.2236 10.5265 17.163C10.5366 17.163 10.5467 17.163 10.5568 17.163C10.5555 17.1049 10.5568 17.0468 10.5606 16.9887C10.5683 16.9824 10.5771 16.9799 10.5871 16.9812C10.5858 16.9231 10.5871 16.865 10.5909 16.8069C10.5986 16.8006 10.6074 16.7981 10.6174 16.7993C10.6174 16.7488 10.6174 16.6984 10.6174 16.6478C10.6275 16.6478 10.6376 16.6478 10.6477 16.6478C10.6477 16.5872 10.6477 16.5266 10.6477 16.466C10.6578 16.466 10.6679 16.466 10.678 16.466C10.678 16.4054 10.678 16.3448 10.678 16.2842C10.6881 16.2842 10.6982 16.2842 10.7083 16.2842C10.7083 16.2236 10.7083 16.163 10.7083 16.1024C10.7184 16.1024 10.7285 16.1024 10.7386 16.1024C10.7374 16.0442 10.7386 15.9862 10.7424 15.9281C10.7501 15.9218 10.7589 15.9193 10.7689 15.9206C10.7677 15.8624 10.7689 15.8043 10.7727 15.7463C10.7804 15.74 10.7892 15.7375 10.7992 15.7387C10.7992 15.6882 10.7992 15.6377 10.7992 15.5872C10.8093 15.5872 10.8194 15.5872 10.8295 15.5872C10.8295 15.5266 10.8295 15.466 10.8295 15.4054C10.8396 15.4054 10.8497 15.4054 10.8598 15.4054C10.8598 15.3448 10.8598 15.2842 10.8598 15.2236C10.8699 15.2236 10.88 15.2236 10.8901 15.2236C10.8901 15.163 10.8901 15.1024 10.8901 15.0418C10.9002 15.0418 10.9103 15.0418 10.9204 15.0418C10.9192 14.9836 10.9204 14.9256 10.9242 14.8675C10.9319 14.8612 10.9407 14.8587 10.9507 14.86C10.9495 14.8018 10.9507 14.7437 10.9545 14.6857C10.9622 14.6794 10.971 14.6768 10.981 14.6781C10.981 14.6276 10.981 14.5771 10.981 14.5266C10.9911 14.5266 11.0013 14.5266 11.0114 14.5266C11.0114 14.466 11.0114 14.4054 11.0114 14.3448C11.0215 14.3448 11.0316 14.3448 11.0417 14.3448C11.0417 14.2842 11.0417 14.2236 11.0417 14.163C11.0518 14.163 11.0619 14.163 11.072 14.163C11.072 14.1024 11.072 14.0418 11.072 13.9812C11.0821 13.9812 11.0922 13.9812 11.1023 13.9812C11.101 13.923 11.1023 13.8649 11.106 13.8069C11.1137 13.8006 11.1225 13.7981 11.1326 13.7993C11.1313 13.7412 11.1326 13.6831 11.1364 13.6251C11.144 13.6188 11.1529 13.6162 11.1629 13.6175C11.1629 13.567 11.1629 13.5165 11.1629 13.466C11.173 13.466 11.1831 13.466 11.1932 13.466C11.1932 13.4054 11.1932 13.3448 11.1932 13.2842C11.2033 13.2842 11.2134 13.2842 11.2235 13.2842C11.2235 13.2236 11.2235 13.163 11.2235 13.1024C11.2336 13.1024 11.2437 13.1024 11.2538 13.1024C11.2538 13.0418 11.2538 12.9812 11.2538 12.9206C11.2639 12.9206 11.274 12.9206 11.2841 12.9206C11.2828 12.8624 11.2841 12.8043 11.2879 12.7463C11.2955 12.74 11.3044 12.7375 11.3144 12.7387C11.3131 12.6806 11.3144 12.6225 11.3182 12.5645C11.3258 12.5582 11.3347 12.5556 11.3447 12.5569C11.3447 12.5064 11.3447 12.4559 11.3447 12.4054C11.3548 12.4054 11.3649 12.4054 11.375 12.4054C11.375 12.3448 11.375 12.2842 11.375 12.2236C11.3851 12.2236 11.3952 12.2236 11.4053 12.2236C11.4053 12.163 11.4053 12.1024 11.4053 12.0418C11.4154 12.0418 11.4255 12.0418 11.4356 12.0418C11.4356 11.9812 11.4356 11.9206 11.4356 11.86C11.4457 11.86 11.4558 11.86 11.4659 11.86C11.4659 11.8296 11.4659 11.7993 11.4659 11.769C11.5164 11.769 11.5669 11.769 11.6174 11.769C11.6174 11.7791 11.6174 11.7892 11.6174 11.7993C11.6275 11.7993 11.6376 11.7993 11.6477 11.7993C11.6477 11.8296 11.6477 11.86 11.6477 11.8903C11.6578 11.8903 11.6679 11.8903 11.678 11.8903C11.678 11.9206 11.678 11.9509 11.678 11.9812C11.6881 11.9812 11.6982 11.9812 11.7083 11.9812C11.7083 12.0014 11.7083 12.0216 11.7083 12.0418C11.7183 12.0405 11.7272 12.043 11.7348 12.0493C11.7386 12.0668 11.7399 12.0845 11.7386 12.1024C11.7486 12.1011 11.7575 12.1036 11.7651 12.11C11.7689 12.1275 11.7702 12.1451 11.7689 12.163C11.7789 12.1617 11.7878 12.1642 11.7954 12.1706C11.7992 12.1881 11.8005 12.2057 11.7992 12.2236C11.8092 12.2223 11.8181 12.2248 11.8257 12.2312C11.8295 12.2487 11.8308 12.2663 11.8295 12.2842C11.8396 12.2842 11.8497 12.2842 11.8598 12.2842C11.8598 12.3044 11.8598 12.3246 11.8598 12.3448C11.8699 12.3448 11.88 12.3448 11.8901 12.3448C11.8901 12.3549 11.8901 12.365 11.8901 12.3751C11.9002 12.3738 11.909 12.3763 11.9167 12.3827C11.9204 12.4002 11.9217 12.4179 11.9204 12.4357C11.9305 12.4357 11.9406 12.4357 11.9507 12.4357C11.9507 12.4559 11.9507 12.4761 11.9507 12.4963C11.9608 12.4963 11.971 12.4963 11.981 12.4963C11.981 12.5064 11.981 12.5165 11.981 12.5266C11.9911 12.5266 12.0013 12.5266 12.0114 12.5266C12.0114 12.5367 12.0114 12.5468 12.0114 12.5569C12.0214 12.5556 12.0302 12.5582 12.0379 12.5645C12.0416 12.582 12.0429 12.5997 12.0417 12.6175C12.0518 12.6175 12.0619 12.6175 12.072 12.6175C12.072 12.6276 12.072 12.6377 12.072 12.6478C12.082 12.6465 12.0908 12.6491 12.0985 12.6554C12.1022 12.6729 12.1035 12.6906 12.1023 12.7084C12.1124 12.7084 12.1225 12.7084 12.1326 12.7084C12.1326 12.7185 12.1326 12.7286 12.1326 12.7387C12.1427 12.7387 12.1528 12.7387 12.1629 12.7387C12.1629 12.7488 12.1629 12.7589 12.1629 12.769C12.1729 12.7678 12.1817 12.7703 12.1894 12.7766C12.1931 12.7941 12.1944 12.8118 12.1932 12.8296C12.2033 12.8296 12.2134 12.8296 12.2235 12.8296C12.2235 12.8397 12.2235 12.8499 12.2235 12.86C12.2336 12.86 12.2437 12.86 12.2538 12.86C12.2538 12.8701 12.2538 12.8802 12.2538 12.8903C12.2639 12.8903 12.274 12.8903 12.2841 12.8903C12.2841 12.9004 12.2841 12.9105 12.2841 12.9206C12.2941 12.9193 12.3029 12.9218 12.3106 12.9281C12.3144 12.9456 12.3156 12.9633 12.3144 12.9812C12.3245 12.9812 12.3346 12.9812 12.3447 12.9812C12.3447 12.9913 12.3447 13.0014 12.3447 13.0115C12.3548 13.0115 12.3649 13.0115 12.375 13.0115C12.375 13.0216 12.375 13.0317 12.375 13.0418C12.3851 13.0418 12.3952 13.0418 12.4053 13.0418C12.4053 13.0519 12.4053 13.062 12.4053 13.0721C12.428 13.0696 12.4381 13.0796 12.4356 13.1024C12.4456 13.1011 12.4545 13.1036 12.4621 13.11C12.4659 13.1275 12.4671 13.1451 12.4659 13.163C12.476 13.163 12.4861 13.163 12.4962 13.163C12.4962 13.1731 12.4962 13.1832 12.4962 13.1933C12.5063 13.1933 12.5164 13.1933 12.5265 13.1933C12.5265 13.2034 12.5265 13.2135 12.5265 13.2236C12.5366 13.2236 12.5467 13.2236 12.5568 13.2236C12.5568 13.2337 12.5568 13.2438 12.5568 13.2539C12.5669 13.2539 12.577 13.2539 12.5871 13.2539C12.5871 13.264 12.5871 13.2741 12.5871 13.2842C12.5972 13.2842 12.6073 13.2842 12.6174 13.2842C12.6174 13.2943 12.6174 13.3044 12.6174 13.3145C12.6401 13.312 12.6502 13.3221 12.6477 13.3448C12.6577 13.3435 12.6666 13.346 12.6742 13.3524C12.678 13.3699 12.6793 13.3876 12.678 13.4054C12.6881 13.4054 12.6982 13.4054 12.7083 13.4054C12.7083 13.4155 12.7083 13.4256 12.7083 13.4357C12.7184 13.4357 12.7285 13.4357 12.7386 13.4357C12.7386 13.4458 12.7386 13.4559 12.7386 13.466C12.7487 13.466 12.7588 13.466 12.7689 13.466C12.7689 13.4761 12.7689 13.4862 12.7689 13.4963C12.779 13.4963 12.7891 13.4963 12.7992 13.4963C12.7992 13.5064 12.7992 13.5165 12.7992 13.5266C12.8093 13.5266 12.8194 13.5266 12.8295 13.5266C12.8295 13.5367 12.8295 13.5468 12.8295 13.5569C12.8396 13.5569 12.8497 13.5569 12.8598 13.5569C12.8598 13.567 12.8598 13.5771 12.8598 13.5872C12.8699 13.5872 12.88 13.5872 12.8901 13.5872C12.8901 13.5973 12.8901 13.6074 12.8901 13.6175C12.9002 13.6175 12.9103 13.6175 12.9204 13.6175C12.9204 13.6276 12.9204 13.6377 12.9204 13.6478C12.9305 13.6478 12.9406 13.6478 12.9507 13.6478C12.9507 13.6579 12.9507 13.668 12.9507 13.6781C12.9608 13.6781 12.971 13.6781 12.981 13.6781C12.981 13.6882 12.981 13.6983 12.981 13.7084C12.9911 13.7084 13.0013 13.7084 13.0114 13.7084C13.0114 13.7185 13.0114 13.7286 13.0114 13.7387C13.0215 13.7387 13.0316 13.7387 13.0417 13.7387C13.0417 13.7488 13.0417 13.7589 13.0417 13.769C13.0518 13.769 13.0619 13.769 13.072 13.769C13.072 13.7791 13.072 13.7892 13.072 13.7993C13.0821 13.7993 13.0922 13.7993 13.1023 13.7993C13.1023 13.8094 13.1023 13.8196 13.1023 13.8296C13.125 13.8271 13.1351 13.8372 13.1326 13.86C13.1553 13.8574 13.1654 13.8675 13.1629 13.8903C13.1856 13.8877 13.1957 13.8978 13.1932 13.9206C13.2159 13.918 13.226 13.9281 13.2235 13.9509C13.2462 13.9483 13.2563 13.9584 13.2538 13.9812C13.2765 13.9786 13.2866 13.9887 13.2841 14.0115C13.3068 14.0089 13.3169 14.019 13.3144 14.0418C13.3245 14.0418 13.3346 14.0418 13.3447 14.0418C13.3447 14.0519 13.3447 14.062 13.3447 14.0721C13.3548 14.0721 13.3649 14.0721 13.375 14.0721C13.375 14.0822 13.375 14.0923 13.375 14.1024C13.3851 14.1024 13.3952 14.1024 13.4053 14.1024C13.4053 14.1125 13.4053 14.1226 13.4053 14.1327C13.4154 14.1327 13.4255 14.1327 13.4356 14.1327C13.4356 14.1428 13.4356 14.1529 13.4356 14.163C13.4457 14.163 13.4558 14.163 13.4659 14.163C13.4659 14.1731 13.4659 14.1832 13.4659 14.1933C13.476 14.1933 13.4861 14.1933 13.4962 14.1933C13.4962 14.2034 13.4962 14.2135 13.4962 14.2236C13.5063 14.2236 13.5164 14.2236 13.5265 14.2236C13.5265 14.2337 13.5265 14.2438 13.5265 14.2539C13.5366 14.2539 13.5467 14.2539 13.5568 14.2539C13.5568 14.264 13.5568 14.2741 13.5568 14.2842C13.5669 14.2842 13.577 14.2842 13.5871 14.2842C13.5871 14.2943 13.5871 14.3044 13.5871 14.3145C13.5972 14.3145 13.6073 14.3145 13.6174 14.3145C13.6174 14.3246 13.6174 14.3347 13.6174 14.3448C13.6275 14.3448 13.6376 14.3448 13.6477 14.3448C13.6477 14.3549 13.6477 14.365 13.6477 14.3751C13.6578 14.3751 13.6679 14.3751 13.678 14.3751C13.678 14.3852 13.678 14.3953 13.678 14.4054C13.6881 14.4054 13.6982 14.4054 13.7083 14.4054C13.7083 14.4155 13.7083 14.4256 13.7083 14.4357C13.7184 14.4357 13.7285 14.4357 13.7386 14.4357C13.7386 14.4458 13.7386 14.4559 13.7386 14.466C13.7487 14.466 13.7588 14.466 13.7689 14.466C13.7689 14.4761 13.7689 14.4862 13.7689 14.4963C13.7868 14.4951 13.8045 14.4963 13.822 14.5001C13.8283 14.5078 13.8308 14.5166 13.8295 14.5266C13.8523 14.5241 13.8624 14.5342 13.8598 14.5569C13.8826 14.5544 13.8927 14.5645 13.8901 14.5872C13.9002 14.5872 13.9103 14.5872 13.9204 14.5872C13.9204 14.5973 13.9204 14.6074 13.9204 14.6175C13.9305 14.6175 13.9406 14.6175 13.9507 14.6175C13.9507 14.6276 13.9507 14.6377 13.9507 14.6478C13.9608 14.6478 13.971 14.6478 13.981 14.6478C13.981 14.6579 13.981 14.668 13.981 14.6781C13.9911 14.6781 14.0013 14.6781 14.0114 14.6781C14.0114 14.6882 14.0114 14.6983 14.0114 14.7084C14.0215 14.7084 14.0316 14.7084 14.0417 14.7084C14.0417 14.7185 14.0417 14.7286 14.0417 14.7387C14.0518 14.7387 14.0619 14.7387 14.072 14.7387C14.072 14.7488 14.072 14.7589 14.072 14.769C14.0821 14.769 14.0922 14.769 14.1023 14.769C14.1023 14.7791 14.1023 14.7892 14.1023 14.7993C14.1124 14.7993 14.1225 14.7993 14.1326 14.7993C14.1326 14.8094 14.1326 14.8196 14.1326 14.8296C14.1504 14.8284 14.1681 14.8297 14.1856 14.8334C14.1919 14.8411 14.1945 14.8499 14.1932 14.86C14.2159 14.8574 14.226 14.8675 14.2235 14.8903C14.2336 14.8903 14.2437 14.8903 14.2538 14.8903C14.2538 14.9004 14.2538 14.9105 14.2538 14.9206C14.2639 14.9206 14.274 14.9206 14.2841 14.9206C14.2841 14.9307 14.2841 14.9408 14.2841 14.9509C14.2942 14.9509 14.3043 14.9509 14.3144 14.9509C14.3144 14.961 14.3144 14.9711 14.3144 14.9812C14.3245 14.9812 14.3346 14.9812 14.3447 14.9812C14.3447 14.9913 14.3447 15.0014 14.3447 15.0115C14.3548 15.0115 14.3649 15.0115 14.375 15.0115C14.375 15.0216 14.375 15.0317 14.375 15.0418C14.3928 15.0405 14.4105 15.0418 14.428 15.0456C14.4344 15.0532 14.4369 15.0621 14.4356 15.0721C14.4583 15.0696 14.4684 15.0796 14.4659 15.1024C14.476 15.1024 14.4861 15.1024 14.4962 15.1024C14.4962 15.1125 14.4962 15.1226 14.4962 15.1327C14.5063 15.1327 14.5164 15.1327 14.5265 15.1327C14.5265 15.1428 14.5265 15.1529 14.5265 15.163C14.5366 15.163 14.5467 15.163 14.5568 15.163C14.5568 15.1731 14.5568 15.1832 14.5568 15.1933C14.5669 15.1933 14.577 15.1933 14.5871 15.1933C14.5871 15.2034 14.5871 15.2135 14.5871 15.2236C14.5972 15.2236 14.6073 15.2236 14.6174 15.2236C14.6174 15.2337 14.6174 15.2438 14.6174 15.2539C14.6353 15.2527 14.6529 15.2539 14.6704 15.2577C14.6768 15.2653 14.6793 15.2742 14.678 15.2842C14.6881 15.2842 14.6982 15.2842 14.7083 15.2842C14.7083 15.2943 14.7083 15.3044 14.7083 15.3145C14.7184 15.3145 14.7285 15.3145 14.7386 15.3145C14.7386 15.3246 14.7386 15.3347 14.7386 15.3448C14.7487 15.3448 14.7588 15.3448 14.7689 15.3448C14.7689 15.3549 14.7689 15.365 14.7689 15.3751C14.779 15.3751 14.7891 15.3751 14.7992 15.3751C14.7992 15.3852 14.7992 15.3953 14.7992 15.4054C14.8093 15.4054 14.8194 15.4054 14.8295 15.4054C14.8295 15.4155 14.8295 15.4256 14.8295 15.4357C14.8474 15.4345 14.8651 15.4357 14.8826 15.4395C14.8889 15.4472 14.8914 15.456 14.8901 15.466C14.9002 15.466 14.9103 15.466 14.9204 15.466C14.9204 15.4761 14.9204 15.4862 14.9204 15.4963C14.9305 15.4963 14.9406 15.4963 14.9507 15.4963C14.9507 15.5064 14.9507 15.5165 14.9507 15.5266C14.9608 15.5266 14.971 15.5266 14.981 15.5266C14.981 15.5367 14.981 15.5468 14.981 15.5569C14.9911 15.5569 15.0013 15.5569 15.0114 15.5569C15.0114 15.567 15.0114 15.5771 15.0114 15.5872C15.0292 15.586 15.0469 15.5872 15.0644 15.591C15.0707 15.5987 15.0732 15.6075 15.072 15.6175C15.0821 15.6175 15.0922 15.6175 15.1023 15.6175C15.1023 15.6276 15.1023 15.6377 15.1023 15.6478C15.1124 15.6478 15.1225 15.6478 15.1326 15.6478C15.1326 15.6579 15.1326 15.668 15.1326 15.6781C15.1427 15.6781 15.1528 15.6781 15.1629 15.6781C15.1629 15.6882 15.1629 15.6983 15.1629 15.7084C15.173 15.7084 15.1831 15.7084 15.1932 15.7084C15.1932 15.7185 15.1932 15.7286 15.1932 15.7387C15.2033 15.7387 15.2134 15.7387 15.2235 15.7387C15.2235 15.7488 15.2235 15.7589 15.2235 15.769C15.2336 15.769 15.2437 15.769 15.2538 15.769C15.2538 15.7791 15.2538 15.7892 15.2538 15.7993C15.2716 15.7981 15.2893 15.7994 15.3068 15.8031C15.3131 15.8108 15.3157 15.8196 15.3144 15.8296C15.3371 15.8271 15.3472 15.8372 15.3447 15.86C15.3674 15.8574 15.3775 15.8675 15.375 15.8903C15.3977 15.8877 15.4078 15.8978 15.4053 15.9206C15.428 15.918 15.4381 15.9281 15.4356 15.9509C15.4583 15.9483 15.4684 15.9584 15.4659 15.9812C15.476 15.9812 15.4861 15.9812 15.4962 15.9812C15.4962 15.9913 15.4962 16.0014 15.4962 16.0115C15.5063 16.0115 15.5164 16.0115 15.5265 16.0115C15.5265 16.0216 15.5265 16.0317 15.5265 16.0418C15.5366 16.0418 15.5467 16.0418 15.5568 16.0418C15.5568 16.0519 15.5568 16.062 15.5568 16.0721C15.5669 16.0721 15.577 16.0721 15.5871 16.0721C15.5871 16.0822 15.5871 16.0923 15.5871 16.1024C15.5972 16.1024 15.6073 16.1024 15.6174 16.1024C15.6174 16.1125 15.6174 16.1226 15.6174 16.1327C15.6401 16.1302 15.6502 16.1403 15.6477 16.163C15.6704 16.1605 15.6805 16.1706 15.678 16.1933C15.7007 16.1908 15.7108 16.2009 15.7083 16.2236C15.7183 16.2223 15.7272 16.2248 15.7348 16.2312C15.7386 16.2487 15.7399 16.2663 15.7386 16.2842C15.7487 16.2842 15.7588 16.2842 15.7689 16.2842C15.7689 16.2943 15.7689 16.3044 15.7689 16.3145C15.779 16.3145 15.7891 16.3145 15.7992 16.3145C15.7992 16.3246 15.7992 16.3347 15.7992 16.3448C15.8093 16.3448 15.8194 16.3448 15.8295 16.3448C15.8295 16.3549 15.8295 16.365 15.8295 16.3751C15.8396 16.3751 15.8497 16.3751 15.8598 16.3751C15.8598 16.3852 15.8598 16.3953 15.8598 16.4054C15.8699 16.4054 15.88 16.4054 15.8901 16.4054C15.8901 16.4155 15.8901 16.4256 15.8901 16.4357C15.9002 16.4357 15.9103 16.4357 15.9204 16.4357C15.9204 16.4458 15.9204 16.4559 15.9204 16.466C15.9305 16.4647 15.9393 16.4672 15.947 16.4736C15.9507 16.4911 15.952 16.5088 15.9507 16.5266C15.9608 16.5266 15.971 16.5266 15.981 16.5266C15.981 16.5367 15.981 16.5468 15.981 16.5569C15.9911 16.5569 16.0013 16.5569 16.0114 16.5569C16.0114 16.567 16.0114 16.5771 16.0114 16.5872C16.0214 16.5872 16.0316 16.5872 16.0417 16.5872C16.0417 16.5973 16.0417 16.6075 16.0417 16.6175C16.0517 16.6162 16.0605 16.6187 16.0682 16.6251C16.0719 16.6426 16.0732 16.6603 16.072 16.6781C16.0821 16.6781 16.0922 16.6781 16.1023 16.6781C16.1023 16.6882 16.1023 16.6984 16.1023 16.7084C16.1124 16.7084 16.1225 16.7084 16.1326 16.7084C16.1326 16.7185 16.1326 16.7287 16.1326 16.7387C16.1426 16.7375 16.1514 16.74 16.1591 16.7463C16.1628 16.7638 16.1641 16.7815 16.1629 16.7993C16.173 16.7993 16.1831 16.7993 16.1932 16.7993C16.1932 16.8094 16.1932 16.8196 16.1932 16.8296C16.2032 16.8284 16.212 16.8309 16.2197 16.8372C16.2234 16.8547 16.2247 16.8724 16.2235 16.8903C16.2336 16.8903 16.2437 16.8903 16.2538 16.8903C16.2538 16.9105 16.2538 16.9306 16.2538 16.9509C16.2639 16.9509 16.274 16.9509 16.2841 16.9509C16.2841 16.9609 16.2841 16.9711 16.2841 16.9812C16.2941 16.9799 16.3029 16.9824 16.3106 16.9887C16.3144 17.0062 16.3156 17.0239 16.3144 17.0418C16.3245 17.0418 16.3346 17.0418 16.3447 17.0418C16.3447 17.062 16.3447 17.0821 16.3447 17.1024C16.3548 17.1024 16.3649 17.1024 16.375 17.1024C16.375 17.1226 16.375 17.1428 16.375 17.163C16.3851 17.163 16.3952 17.163 16.4053 17.163C16.4053 17.1832 16.4053 17.2034 16.4053 17.2236C16.4154 17.2236 16.4255 17.2236 16.4356 17.2236C16.4356 17.2539 16.4356 17.2842 16.4356 17.3145C16.4457 17.3145 16.4558 17.3145 16.4659 17.3145C16.4659 17.3347 16.4659 17.3549 16.4659 17.3751C16.4759 17.3738 16.4848 17.3763 16.4924 17.3827C16.4962 17.4103 16.4974 17.4381 16.4962 17.466C16.5062 17.4647 16.5151 17.4672 16.5227 17.4736C16.5265 17.5114 16.5278 17.5493 16.5265 17.5872C16.5366 17.5872 16.5467 17.5872 16.5568 17.5872C16.5568 17.6378 16.5568 17.6882 16.5568 17.7387C16.5669 17.7387 16.577 17.7387 16.5871 17.7387C16.5871 17.8094 16.5871 17.8802 16.5871 17.9509C16.5972 17.9509 16.6073 17.9509 16.6174 17.9509C16.6174 18.163 16.6174 18.3751 16.6174 18.5872C16.6073 18.5872 16.5972 18.5872 16.5871 18.5872C16.5871 18.6882 16.5871 18.7893 16.5871 18.8903C16.577 18.8903 16.5669 18.8903 16.5568 18.8903C16.5568 18.9711 16.5568 19.0518 16.5568 19.1327C16.5467 19.1327 16.5366 19.1327 16.5265 19.1327C16.5265 19.1933 16.5265 19.2539 16.5265 19.3145C16.5164 19.3145 16.5063 19.3145 16.4962 19.3145C16.4975 19.3726 16.4962 19.4307 16.4924 19.4887C16.4848 19.4951 16.4759 19.4976 16.4659 19.4963C16.4672 19.5544 16.4659 19.6125 16.4621 19.6706C16.4544 19.6769 16.4456 19.6794 16.4356 19.6781C16.4356 19.7287 16.4356 19.7791 16.4356 19.8296C16.4255 19.8296 16.4154 19.8296 16.4053 19.8296C16.4053 19.8903 16.4053 19.9509 16.4053 20.0115C16.3952 20.0115 16.3851 20.0115 16.375 20.0115C16.375 20.0721 16.375 20.1327 16.375 20.1933C16.3649 20.1933 16.3548 20.1933 16.3447 20.1933C16.3447 20.2539 16.3447 20.3145 16.3447 20.3751C16.3346 20.3751 16.3245 20.3751 16.3144 20.3751C16.3156 20.4332 16.3144 20.4913 16.3106 20.5493C16.3029 20.5557 16.2941 20.5582 16.2841 20.5569C16.2853 20.615 16.2841 20.6731 16.2803 20.7312C16.2726 20.7375 16.2638 20.74 16.2538 20.7387C16.2538 20.7893 16.2538 20.8397 16.2538 20.8903C16.2437 20.8903 16.2336 20.8903 16.2235 20.8903C16.2235 20.9509 16.2235 21.0115 16.2235 21.0721C16.2134 21.0721 16.2033 21.0721 16.1932 21.0721C16.1932 21.1327 16.1932 21.1933 16.1932 21.2539C16.1831 21.2539 16.173 21.2539 16.1629 21.2539C16.1629 21.3145 16.1629 21.3751 16.1629 21.4357C16.1528 21.4357 16.1427 21.4357 16.1326 21.4357C16.1338 21.4938 16.1326 21.5519 16.1288 21.61C16.1211 21.6163 16.1123 21.6188 16.1023 21.6175C16.1035 21.6756 16.1023 21.7337 16.0985 21.7918C16.0908 21.7981 16.082 21.8006 16.072 21.7993C16.072 21.8499 16.072 21.9003 16.072 21.9509C16.0619 21.9509 16.0518 21.9509 16.0417 21.9509C16.0417 22.0115 16.0417 22.0721 16.0417 22.1327C16.0316 22.1327 16.0214 22.1327 16.0114 22.1327C16.0114 22.1933 16.0114 22.2539 16.0114 22.3145C16.0013 22.3145 15.9911 22.3145 15.981 22.3145C15.981 22.3751 15.981 22.4357 15.981 22.4963C15.971 22.4963 15.9608 22.4963 15.9507 22.4963C15.952 22.5544 15.9507 22.6125 15.947 22.6706C15.9393 22.6769 15.9305 22.6794 15.9204 22.6781C15.9217 22.7362 15.9204 22.7943 15.9167 22.8524C15.909 22.8587 15.9002 22.8612 15.8901 22.86C15.8901 22.9105 15.8901 22.9609 15.8901 23.0115C15.88 23.0115 15.8699 23.0115 15.8598 23.0115C15.8598 23.0721 15.8598 23.1327 15.8598 23.1933C15.8497 23.1933 15.8396 23.1933 15.8295 23.1933C15.8295 23.2539 15.8295 23.3145 15.8295 23.3751C15.8194 23.3751 15.8093 23.3751 15.7992 23.3751C15.7992 23.4357 15.7992 23.4963 15.7992 23.5569C15.7891 23.5569 15.779 23.5569 15.7689 23.5569C15.7702 23.615 15.7689 23.6731 15.7651 23.7312C15.7575 23.7375 15.7486 23.74 15.7386 23.7387C15.7386 23.7893 15.7386 23.8397 15.7386 23.8903C15.7285 23.8903 15.7184 23.8903 15.7083 23.8903C15.7083 23.9509 15.7083 24.0115 15.7083 24.0721C15.6982 24.0721 15.6881 24.0721 15.678 24.0721C15.678 24.1327 15.678 24.1933 15.678 24.2539C15.6679 24.2539 15.6578 24.2539 15.6477 24.2539C15.6477 24.3145 15.6477 24.3751 15.6477 24.4357C15.6376 24.4357 15.6275 24.4357 15.6174 24.4357C15.6174 24.4963 15.6174 24.5569 15.6174 24.6175C15.6073 24.6175 15.5972 24.6175 15.5871 24.6175C15.5884 24.6756 15.5871 24.7337 15.5833 24.7918C15.5757 24.7981 15.5668 24.8006 15.5568 24.7993C15.5568 24.8499 15.5568 24.9003 15.5568 24.9509C15.5467 24.9509 15.5366 24.9509 15.5265 24.9509C15.5265 25.0115 15.5265 25.0721 15.5265 25.1327C15.5164 25.1327 15.5063 25.1327 15.4962 25.1327C15.4962 25.1933 15.4962 25.2539 15.4962 25.3145C15.4861 25.3145 15.476 25.3145 15.4659 25.3145C15.4659 25.3751 15.4659 25.4357 15.4659 25.4963C15.4558 25.4963 15.4457 25.4963 15.4356 25.4963C15.4356 25.5569 15.4356 25.6175 15.4356 25.6781C15.4255 25.6781 15.4154 25.6781 15.4053 25.6781C15.4065 25.7362 15.4053 25.7943 15.4015 25.8524C15.3938 25.8587 15.385 25.8612 15.375 25.86C15.375 25.9105 15.375 25.9609 15.375 26.0115C15.3649 26.0115 15.3548 26.0115 15.3447 26.0115C15.3447 26.0721 15.3447 26.1327 15.3447 26.1933C15.3346 26.1933 15.3245 26.1933 15.3144 26.1933C15.3144 26.2539 15.3144 26.3145 15.3144 26.3751C15.3043 26.3751 15.2942 26.3751 15.2841 26.3751C15.2841 26.4357 15.2841 26.4963 15.2841 26.5569C15.274 26.5569 15.2639 26.5569 15.2538 26.5569C15.255 26.615 15.2538 26.6731 15.25 26.7312C15.2423 26.7375 15.2335 26.74 15.2235 26.7387C15.2247 26.7968 15.2235 26.855 15.2197 26.913C15.212 26.9193 15.2032 26.9218 15.1932 26.9206C15.1932 26.9609 15.1932 27.0014 15.1932 27.0418C15.1781 27.0392 15.168 27.0442 15.1629 27.0569Z" fill="#979BA0"/>
</g>
<defs>
<clipPath id="clip0_45_872">
<rect width="16" height="18.0606" fill="white" transform="translate(10 9)"/>
</clipPath>
</defs>
</svg>
