<svg width="36" height="36" viewBox="0 0 36 36" fill="none" xmlns="http://www.w3.org/2000/svg">
<path fill-rule="evenodd" clip-rule="evenodd" d="M19.4286 9.25C19.4286 8.55964 18.8689 8 18.1786 8H10C6.68629 8 4 10.6863 4 14V26C4 29.3137 6.68629 32 10 32H22C25.3137 32 28 29.3137 28 26V17.8214C28 17.131 27.4404 16.5714 26.75 16.5714V16.5714C26.0596 16.5714 25.5 17.131 25.5 17.8214V26C25.5 27.933 23.933 29.5 22 29.5H10C8.067 29.5 6.5 27.933 6.5 26V14C6.5 12.067 8.067 10.5 10 10.5H18.1786C18.8689 10.5 19.4286 9.94036 19.4286 9.25V9.25Z" fill="#979BA0"/>
<path d="M17 19L31 5M31 5H21.5M31 5V14" stroke="#979BA0" stroke-width="2.5" stroke-linecap="round" stroke-linejoin="round"/>
</svg>
