<svg width="36" height="36" viewBox="0 0 36 36" fill="none" xmlns="http://www.w3.org/2000/svg">
<path fill-rule="evenodd" clip-rule="evenodd" d="M22 10.5H10C8.067 10.5 6.5 12.067 6.5 14V26C6.5 27.933 8.067 29.5 10 29.5H22C23.933 29.5 25.5 27.933 25.5 26V14C25.5 12.067 23.933 10.5 22 10.5ZM10 8C6.68629 8 4 10.6863 4 14V26C4 29.3137 6.68629 32 10 32H22C25.3137 32 28 29.3137 28 26V14C28 10.6863 25.3137 8 22 8H10Z" fill="#979BA0"/>
<path d="M26.75 14.3466V26C26.75 28.6234 24.6234 30.75 22 30.75H10C7.37665 30.75 5.25 28.6234 5.25 26V14.3466C5.25 12.8687 6.96876 12.0563 8.11079 12.9944L13.9371 17.7803C15.136 18.7651 16.864 18.7651 18.0629 17.7803L23.8892 12.9944C25.0312 12.0563 26.75 12.8687 26.75 14.3466Z" stroke="#979BA0" stroke-width="2.5"/>
</svg>
