<svg width="36" height="36" viewBox="0 0 36 36" fill="none" xmlns="http://www.w3.org/2000/svg">
<rect x="5.25" y="5.25" width="25.5" height="25.5" rx="4.75" stroke="#979BA0" stroke-width="2.5"/>
<path d="M15.5 23.8333C15.5 24.7538 14.6046 25.5 13.5 25.5C12.3954 25.5 11.5 24.7538 11.5 23.8333C11.5 22.9129 12.3954 22.1667 13.5 22.1667C14.6046 22.1667 15.5 22.9129 15.5 23.8333Z" fill="#979BA0"/>
<path d="M23.5 21.3333C23.5 22.2538 22.6046 23 21.5 23C20.3954 23 19.5 22.2538 19.5 21.3333C19.5 20.4129 20.3954 19.6667 21.5 19.6667C22.6046 19.6667 23.5 20.4129 23.5 21.3333Z" fill="#979BA0"/>
<path d="M15.5 23.8333L15.5 12L23.5 10.5V21.3333M15.5 23.8333C15.5 24.7538 14.6046 25.5 13.5 25.5C12.3954 25.5 11.5 24.7538 11.5 23.8333C11.5 22.9129 12.3954 22.1667 13.5 22.1667C14.6046 22.1667 15.5 22.9129 15.5 23.8333ZM23.5 21.3333C23.5 22.2538 22.6046 23 21.5 23C20.3954 23 19.5 22.2538 19.5 21.3333C19.5 20.4129 20.3954 19.6667 21.5 19.6667C22.6046 19.6667 23.5 20.4129 23.5 21.3333Z" stroke="#979BA0" stroke-width="2" stroke-linecap="round" stroke-linejoin="round"/>
</svg>
