<svg width="36" height="36" viewBox="0 0 36 36" fill="none" xmlns="http://www.w3.org/2000/svg">
<rect x="5.25" y="5.25" width="25.5" height="25.5" rx="4.75" stroke="#979BA0" stroke-width="2.5"/>
<path d="M24.9267 21.872L22.6155 24.35C22.5656 24.4039 22.505 24.4468 22.4377 24.4762C22.3704 24.5056 22.2977 24.5208 22.2243 24.5209H11.2685C11.2163 24.5209 11.1652 24.5056 11.1215 24.477C11.0777 24.4483 11.0433 24.4076 11.0224 24.3597C11.0015 24.3118 10.995 24.2589 11.0038 24.2073C11.0125 24.1558 11.0361 24.108 11.0716 24.0696L13.3801 21.5915C13.4301 21.5377 13.4906 21.4948 13.558 21.4654C13.6253 21.436 13.6979 21.4208 13.7714 21.4207H24.7271C24.7798 21.4196 24.8317 21.4341 24.8762 21.4625C24.9207 21.4908 24.9559 21.5316 24.9772 21.5799C24.9985 21.6281 25.0051 21.6816 24.9961 21.7336C24.9871 21.7855 24.9629 21.8337 24.9267 21.872ZM22.6155 16.8806C22.5654 16.827 22.5048 16.7842 22.4375 16.7548C22.3702 16.7255 22.2977 16.7101 22.2243 16.7097H11.2685C11.2163 16.7098 11.1652 16.725 11.1215 16.7537C11.0777 16.7823 11.0433 16.823 11.0224 16.8709C11.0015 16.9188 10.995 16.9718 11.0038 17.0233C11.0125 17.0748 11.0361 17.1227 11.0716 17.161L13.3801 19.6404C13.4303 19.694 13.4909 19.7367 13.5581 19.7661C13.6254 19.7955 13.698 19.8109 13.7714 19.8112H24.7271C24.7793 19.811 24.8302 19.7955 24.8737 19.7668C24.9173 19.7381 24.9515 19.6973 24.9722 19.6494C24.9929 19.6016 24.9993 19.5488 24.9905 19.4974C24.9817 19.446 24.9582 19.3982 24.9228 19.36L22.6155 16.8806ZM11.2685 15.1003H22.2243C22.2977 15.1002 22.3704 15.085 22.4377 15.0556C22.505 15.0262 22.5656 14.9832 22.6155 14.9294L24.9267 12.4513C24.9629 12.4131 24.9871 12.3649 24.9961 12.3129C25.0051 12.261 24.9985 12.2075 24.9772 12.1592C24.9559 12.111 24.9207 12.0702 24.8762 12.0418C24.8317 12.0135 24.7798 11.999 24.7271 12.0001H13.7714C13.6979 12.0001 13.6253 12.0153 13.558 12.0447C13.4906 12.0741 13.4301 12.1171 13.3801 12.1709L11.0716 14.649C11.0361 14.6873 11.0125 14.7352 11.0038 14.7867C10.995 14.8382 11.0015 14.8912 11.0224 14.9391C11.0433 14.987 11.0777 15.0277 11.1215 15.0563C11.1652 15.085 11.2163 15.1002 11.2685 15.1003Z" fill="url(#paint0_linear_72_707)"/>
<defs>
<linearGradient id="paint0_linear_72_707" x1="12.1815" y1="24.8196" x2="23.6694" y2="11.8683" gradientUnits="userSpaceOnUse">
<stop offset="0.08" stop-color="#9945FF"/>
<stop offset="0.3" stop-color="#8752F3"/>
<stop offset="0.5" stop-color="#5497D5"/>
<stop offset="0.6" stop-color="#43B4CA"/>
<stop offset="0.72" stop-color="#28E0B9"/>
<stop offset="0.97" stop-color="#19FB9B"/>
</linearGradient>
</defs>
</svg>
